<svg width="24" height="25" viewBox="0 0 24 25" fill="none" xmlns="http://www.w3.org/2000/svg">
<path fill-rule="evenodd" clip-rule="evenodd" d="M10.1869 11.8642C10.7209 11.6294 11.1849 11.2465 11.5298 10.756C11.8469 10.2352 12.0044 9.62379 11.981 9.00504C12.0015 8.44078 11.8974 7.87921 11.6767 7.36487C11.4913 6.91928 11.1938 6.53596 10.8164 6.25666C10.4163 5.96627 9.962 5.76977 9.484 5.68038C8.91832 5.55506 8.34135 5.4956 7.7634 5.50307H1.8C1.63431 5.50307 1.5 5.63738 1.5 5.80307V19.1445C1.5 19.3102 1.63431 19.4445 1.8 19.4445H7.89979C8.48384 19.4449 9.06556 19.3667 9.63088 19.2117C10.1667 19.0653 10.6744 18.8216 11.1312 18.4914C11.5736 18.1675 11.9339 17.7336 12.1803 17.228C12.453 16.6626 12.5865 16.0337 12.5685 15.3995C12.5884 14.6134 12.3796 13.8399 11.9705 13.183C11.5305 12.5224 10.8778 12.0537 10.1345 11.8642H10.1869ZM4.54998 7.75244C4.43952 7.75244 4.34998 7.84198 4.34998 7.95244V11.0524C4.34998 11.1629 4.43952 11.2524 4.54998 11.2524H7.34998C8.31647 11.2524 9.09998 10.4689 9.09998 9.50244C9.09998 8.53594 8.31647 7.75244 7.34998 7.75244H4.54998ZM4.34998 13.2024C4.34998 13.092 4.43952 13.0024 4.54998 13.0024H7.47498C8.64858 13.0024 9.59998 13.9538 9.59998 15.1274C9.59998 16.301 8.64858 17.2524 7.47498 17.2524H4.54998C4.43952 17.2524 4.34998 17.1629 4.34998 17.0524V13.2024Z" fill="#3D3D3D"/>
<path d="M15.4389 6.21233H20.1621C20.3262 6.21233 20.4598 6.3442 20.462 6.5083L20.475 7.47089C20.4772 7.63813 20.3423 7.77492 20.175 7.77492H15.4389C15.2732 7.77492 15.1389 7.6406 15.1389 7.47492V6.51233C15.1389 6.34664 15.2732 6.21233 15.4389 6.21233Z" fill="#3D3D3D"/>
<path fill-rule="evenodd" clip-rule="evenodd" d="M17.9716 17.3721C18.4554 17.3877 18.932 17.2445 19.3355 16.9621C19.5953 16.789 19.8023 16.5419 19.9333 16.2506C19.968 16.1735 20.0424 16.1198 20.127 16.1198H22.048C22.1782 16.1198 22.2738 16.2424 22.2354 16.3669C21.9426 17.316 21.3683 18.1433 20.5945 18.7241C19.7625 19.2623 18.7998 19.532 17.8247 19.4999C17.1297 19.5124 16.4389 19.3845 15.7894 19.1231C15.2069 18.8791 14.6835 18.5004 14.2576 18.0149C13.846 17.5203 13.5321 16.9438 13.3344 16.3193C13.1016 15.6296 12.9878 14.9014 12.9986 14.1693C12.9922 13.4475 13.1095 12.7304 13.3449 12.0526C13.5641 11.4249 13.9034 10.8515 14.3415 10.3681C14.7809 9.89431 15.3052 9.51758 15.8838 9.25993C16.5157 8.98402 17.1935 8.8446 17.8772 8.84989C18.6041 8.83803 19.3234 9.00896 19.9755 9.34859C20.5616 9.67099 21.0709 10.1294 21.4653 10.6895C21.857 11.2669 22.1418 11.9175 22.3046 12.6068C22.4728 13.3313 22.533 14.0791 22.4829 14.8232H15.5376C15.5069 15.5378 15.7401 16.2371 16.188 16.7737C16.4303 16.9977 16.7138 17.1665 17.0207 17.2694C17.3276 17.3724 17.6513 17.4074 17.9716 17.3721ZM15.6 12.9013C15.6 12.9571 15.6453 13.0024 15.7012 13.0024H19.7488C19.8047 13.0024 19.85 12.9571 19.85 12.9013C19.85 11.7835 18.9439 10.8774 17.8262 10.8774H17.6238C16.5061 10.8774 15.6 11.7835 15.6 12.9013Z" fill="#3D3D3D"/>
</svg>
