<svg width="60" height="60" viewBox="0 0 60 60" fill="none" xmlns="http://www.w3.org/2000/svg">
<g filter="url(#filter0_ii_2004_892)">
<path d="M2.52246 20.6C2.52246 15.3625 2.52246 12.7438 3.70134 10.82C4.36099 9.74357 5.26603 8.83852 6.34247 8.17888C8.26623 7 10.885 7 16.1225 7H43.8775C49.115 7 51.7338 7 53.6575 8.17888C54.734 8.83852 55.639 9.74357 56.2987 10.82C57.4775 12.7438 57.4775 15.3625 57.4775 20.6V39.4C57.4775 44.6375 57.4775 47.2562 56.2987 49.18C55.639 50.2564 54.734 51.1615 53.6575 51.8211C51.7338 53 49.115 53 43.8775 53H16.1225C10.885 53 8.26623 53 6.34247 51.8211C5.26603 51.1615 4.36099 50.2564 3.70134 49.18C2.52246 47.2562 2.52246 44.6375 2.52246 39.4V20.6Z" fill="#F5F3FB"/>
</g>
<path d="M16.1221 7.40039H43.8779C46.5042 7.40039 48.4462 7.40076 49.9727 7.5459C51.4928 7.69046 52.5599 7.97528 53.4482 8.51953C54.4709 9.14619 55.3313 10.0067 55.958 11.0293C56.5023 11.9176 56.7871 12.9847 56.9316 14.5049C57.0768 16.0313 57.0771 17.9733 57.0771 20.5996V39.4004C57.0771 42.0267 57.0768 43.9687 56.9316 45.4951C56.7871 47.0153 56.5023 48.0824 55.958 48.9707C55.3313 49.9933 54.4709 50.8538 53.4482 51.4805C52.5599 52.0247 51.4928 52.3095 49.9727 52.4541C48.4462 52.5992 46.5042 52.5996 43.8779 52.5996H16.1221C13.4958 52.5996 11.5538 52.5992 10.0273 52.4541C8.5072 52.3095 7.44008 52.0247 6.55176 51.4805C5.52914 50.8538 4.66866 49.9933 4.04199 48.9707C3.49774 48.0824 3.21293 47.0153 3.06836 45.4951C2.92322 43.9687 2.92285 42.0267 2.92285 39.4004V20.5996C2.92285 17.9733 2.92322 16.0313 3.06836 14.5049C3.21293 12.9847 3.49774 11.9176 4.04199 11.0293C4.66866 10.0067 5.52914 9.14619 6.55176 8.51953C7.44008 7.97528 8.5072 7.69046 10.0273 7.5459C11.5538 7.40076 13.4958 7.40039 16.1221 7.40039Z" stroke="#C5C0D9" stroke-width="0.8"/>
<g filter="url(#filter1_i_2004_892)">
<rect width="6.39198" height="23.0111" rx="1" transform="matrix(-1 0 0 1 43.4229 18.4944)" fill="#4B22E0"/>
</g>
<g filter="url(#filter2_i_2004_892)">
<rect width="6.39198" height="14.0623" rx="1" transform="matrix(-1 0 0 1 33.1953 27.4432)" fill="#4B22E0"/>
</g>
<g filter="url(#filter3_i_2004_892)">
<rect width="6.39198" height="8.8226" rx="1" transform="matrix(-1 0 0 1 22.9678 32.683)" fill="#4B22E0"/>
</g>
<defs>
<filter id="filter0_ii_2004_892" x="2.52246" y="-2" width="54.9551" height="62.8" filterUnits="userSpaceOnUse" color-interpolation-filters="sRGB">
<feFlood flood-opacity="0" result="BackgroundImageFix"/>
<feBlend mode="normal" in="SourceGraphic" in2="BackgroundImageFix" result="shape"/>
<feColorMatrix in="SourceAlpha" type="matrix" values="0 0 0 0 0 0 0 0 0 0 0 0 0 0 0 0 0 0 127 0" result="hardAlpha"/>
<feOffset dy="-9"/>
<feGaussianBlur stdDeviation="6.5"/>
<feComposite in2="hardAlpha" operator="arithmetic" k2="-1" k3="1"/>
<feColorMatrix type="matrix" values="0 0 0 0 0.294118 0 0 0 0 0.133333 0 0 0 0 0.878431 0 0 0 0.16 0"/>
<feBlend mode="normal" in2="shape" result="effect1_innerShadow_2004_892"/>
<feColorMatrix in="SourceAlpha" type="matrix" values="0 0 0 0 0 0 0 0 0 0 0 0 0 0 0 0 0 0 127 0" result="hardAlpha"/>
<feOffset dy="9"/>
<feGaussianBlur stdDeviation="3.9"/>
<feComposite in2="hardAlpha" operator="arithmetic" k2="-1" k3="1"/>
<feColorMatrix type="matrix" values="0 0 0 0 1 0 0 0 0 1 0 0 0 0 1 0 0 0 0.7 0"/>
<feBlend mode="normal" in2="effect1_innerShadow_2004_892" result="effect2_innerShadow_2004_892"/>
</filter>
<filter id="filter1_i_2004_892" x="37.0308" y="18.4944" width="6.39209" height="24.0111" filterUnits="userSpaceOnUse" color-interpolation-filters="sRGB">
<feFlood flood-opacity="0" result="BackgroundImageFix"/>
<feBlend mode="normal" in="SourceGraphic" in2="BackgroundImageFix" result="shape"/>
<feColorMatrix in="SourceAlpha" type="matrix" values="0 0 0 0 0 0 0 0 0 0 0 0 0 0 0 0 0 0 127 0" result="hardAlpha"/>
<feOffset dy="1"/>
<feGaussianBlur stdDeviation="0.8"/>
<feComposite in2="hardAlpha" operator="arithmetic" k2="-1" k3="1"/>
<feColorMatrix type="matrix" values="0 0 0 0 1 0 0 0 0 1 0 0 0 0 1 0 0 0 0.45 0"/>
<feBlend mode="normal" in2="shape" result="effect1_innerShadow_2004_892"/>
</filter>
<filter id="filter2_i_2004_892" x="26.8032" y="27.4432" width="6.39209" height="15.0624" filterUnits="userSpaceOnUse" color-interpolation-filters="sRGB">
<feFlood flood-opacity="0" result="BackgroundImageFix"/>
<feBlend mode="normal" in="SourceGraphic" in2="BackgroundImageFix" result="shape"/>
<feColorMatrix in="SourceAlpha" type="matrix" values="0 0 0 0 0 0 0 0 0 0 0 0 0 0 0 0 0 0 127 0" result="hardAlpha"/>
<feOffset dy="1"/>
<feGaussianBlur stdDeviation="0.8"/>
<feComposite in2="hardAlpha" operator="arithmetic" k2="-1" k3="1"/>
<feColorMatrix type="matrix" values="0 0 0 0 1 0 0 0 0 1 0 0 0 0 1 0 0 0 0.45 0"/>
<feBlend mode="normal" in2="shape" result="effect1_innerShadow_2004_892"/>
</filter>
<filter id="filter3_i_2004_892" x="16.5757" y="32.683" width="6.39209" height="9.82263" filterUnits="userSpaceOnUse" color-interpolation-filters="sRGB">
<feFlood flood-opacity="0" result="BackgroundImageFix"/>
<feBlend mode="normal" in="SourceGraphic" in2="BackgroundImageFix" result="shape"/>
<feColorMatrix in="SourceAlpha" type="matrix" values="0 0 0 0 0 0 0 0 0 0 0 0 0 0 0 0 0 0 127 0" result="hardAlpha"/>
<feOffset dy="1"/>
<feGaussianBlur stdDeviation="0.8"/>
<feComposite in2="hardAlpha" operator="arithmetic" k2="-1" k3="1"/>
<feColorMatrix type="matrix" values="0 0 0 0 1 0 0 0 0 1 0 0 0 0 1 0 0 0 0.45 0"/>
<feBlend mode="normal" in2="shape" result="effect1_innerShadow_2004_892"/>
</filter>
</defs>
</svg>
