<svg width="61" height="61" viewBox="0 0 61 61" fill="none" xmlns="http://www.w3.org/2000/svg">
<rect x="6.75049" y="8.53027" width="46.5" height="44.5" stroke="black" stroke-width="1.5"/>
<rect x="4.00049" y="5.78027" width="6" height="6" fill="black"/>
<rect x="4.00049" y="49.7803" width="6" height="6" fill="black"/>
<rect x="50.0005" y="5.78027" width="6" height="6" fill="black"/>
<rect x="50.0005" y="49.7803" width="6" height="6" fill="black"/>
<path d="M30.0005 21.5303C34.7053 21.5303 39.0343 24.1432 42.2446 26.8535C43.8386 28.1992 45.1307 29.5464 46.0239 30.5576C46.4701 31.0628 46.8155 31.4833 47.0483 31.7754C47.0495 31.7769 47.0501 31.7788 47.0513 31.7803C47.0501 31.7817 47.0495 31.7837 47.0483 31.7852C46.8155 32.0772 46.4701 32.4978 46.0239 33.0029C45.1307 34.0142 43.8386 35.3614 42.2446 36.707C39.0343 39.4173 34.7053 42.0303 30.0005 42.0303C25.2957 42.0303 20.9666 39.4173 17.7563 36.707C16.1624 35.3614 14.8702 34.0142 13.9771 33.0029C13.5309 32.4978 13.1855 32.0772 12.9526 31.7852C12.9513 31.7835 12.95 31.7819 12.9487 31.7803C12.95 31.7786 12.9513 31.777 12.9526 31.7754C13.1855 31.4833 13.5309 31.0628 13.9771 30.5576C14.8702 29.5464 16.1624 28.1992 17.7563 26.8535C20.9666 24.1432 25.2957 21.5303 30.0005 21.5303Z" fill="white" stroke="black" stroke-width="1.5"/>
<circle cx="30.0005" cy="31.7803" r="7" fill="black"/>
</svg>
