<svg width="24" height="25" viewBox="0 0 24 25" fill="none" xmlns="http://www.w3.org/2000/svg">
<g clip-path="url(#clip0_385_146)">
<path d="M12 0.271973C5.38323 0.271973 0 5.6552 0 12.272C0 18.8883 5.38323 24.272 12 24.272C18.6163 24.272 24 18.8883 24 12.272C24 5.6552 18.6173 0.271973 12 0.271973ZM14.9843 12.6944H13.032V19.6529H10.139C10.139 19.6529 10.139 15.8508 10.139 12.6944H8.76388V10.2351H10.139V8.64432C10.139 7.50503 10.6804 5.7248 13.0586 5.7248L15.2023 5.73302V8.12036C15.2023 8.12036 13.8996 8.12036 13.6463 8.12036C13.3931 8.12036 13.0329 8.247 13.0329 8.7903V10.2356H15.2371L14.9843 12.6944Z" fill="#191919"/>
</g>
<defs>
<clipPath id="clip0_385_146">
<rect width="24" height="24" fill="white" transform="translate(0 0.271973)"/>
</clipPath>
</defs>
</svg>
