<svg width="242" height="40" viewBox="0 0 242 40" fill="none" xmlns="http://www.w3.org/2000/svg">
<path d="M35.8479 22V6.23386H43.5508C45.5328 6.23386 47.0194 6.60925 48.0104 7.36002C49.0164 8.11079 49.5194 9.1018 49.5194 10.3331C49.5194 11.1589 49.3167 11.8796 48.9113 12.4953C48.5059 13.0959 47.9503 13.5614 47.2446 13.8917C46.5389 14.222 45.728 14.3872 44.8121 14.3872L45.24 13.4638C46.2311 13.4638 47.1095 13.6289 47.8752 13.9593C48.641 14.2746 49.2341 14.7476 49.6546 15.3782C50.09 16.0089 50.3077 16.7822 50.3077 17.6981C50.3077 19.0495 49.7747 20.1081 48.7086 20.8738C47.6425 21.6246 46.0734 22 44.0013 22H35.8479ZM39.4741 19.2522H43.731C44.677 19.2522 45.3902 19.102 45.8707 18.8017C46.3662 18.4864 46.6139 17.9909 46.6139 17.3152C46.6139 16.6545 46.3662 16.1665 45.8707 15.8512C45.3902 15.5209 44.677 15.3557 43.731 15.3557H39.2039V12.698H43.1004C43.9863 12.698 44.6619 12.5478 45.1274 12.2475C45.6079 11.9322 45.8482 11.4592 45.8482 10.8286C45.8482 10.2129 45.6079 9.75497 45.1274 9.45466C44.6619 9.13934 43.9863 8.98168 43.1004 8.98168H39.4741V19.2522ZM50.998 22L58.0252 6.23386H61.6289L68.6786 22H64.8497L59.0838 8.08075H60.5253L54.7369 22H50.998ZM54.5116 18.6215L55.4801 15.8512H63.5884L64.5794 18.6215H54.5116ZM73.6703 12.5854H81.2606V15.4233H73.6703V12.5854ZM73.9406 19.072H82.5218V22H70.3144V6.23386H82.2291V9.16186H73.9406V19.072ZM85.425 22V6.23386H89.0738V19.027H96.9794V22H85.425ZM99.018 22V6.23386H106.721C108.703 6.23386 110.189 6.60925 111.18 7.36002C112.187 8.11079 112.69 9.1018 112.69 10.3331C112.69 11.1589 112.487 11.8796 112.081 12.4953C111.676 13.0959 111.12 13.5614 110.415 13.8917C109.709 14.222 108.898 14.3872 107.982 14.3872L108.41 13.4638C109.401 13.4638 110.28 13.6289 111.045 13.9593C111.811 14.2746 112.404 14.7476 112.825 15.3782C113.26 16.0089 113.478 16.7822 113.478 17.6981C113.478 19.0495 112.945 20.1081 111.879 20.8738C110.813 21.6246 109.244 22 107.171 22H99.018ZM102.644 19.2522H106.901C107.847 19.2522 108.56 19.102 109.041 18.8017C109.536 18.4864 109.784 17.9909 109.784 17.3152C109.784 16.6545 109.536 16.1665 109.041 15.8512C108.56 15.5209 107.847 15.3557 106.901 15.3557H102.374V12.698H106.27C107.156 12.698 107.832 12.5478 108.298 12.2475C108.778 11.9322 109.018 11.4592 109.018 10.8286C109.018 10.2129 108.778 9.75497 108.298 9.45466C107.832 9.13934 107.156 8.98168 106.27 8.98168H102.644V19.2522ZM119.596 12.5854H127.186V15.4233H119.596V12.5854ZM119.866 19.072H128.448V22H116.24V6.23386H128.155V9.16186H119.866V19.072ZM131.351 22V6.23386H138.175C139.587 6.23386 140.803 6.4666 141.824 6.93208C142.845 7.38254 143.634 8.03571 144.189 8.89158C144.745 9.74746 145.022 10.7685 145.022 11.9547C145.022 13.1259 144.745 14.1395 144.189 14.9953C143.634 15.8362 142.845 16.4819 141.824 16.9323C140.803 17.3828 139.587 17.608 138.175 17.608H133.378L135 16.0089V22H131.351ZM141.374 22L137.432 16.2791H141.329L145.315 22H141.374ZM135 16.4143L133.378 14.7025H137.973C139.099 14.7025 139.94 14.4623 140.495 13.9818C141.051 13.4863 141.329 12.8106 141.329 11.9547C141.329 11.0838 141.051 10.4081 140.495 9.92764C139.94 9.44715 139.099 9.20691 137.973 9.20691H133.378L135 7.47263V16.4143ZM155.526 22.2703C154.28 22.2703 153.131 22.0751 152.08 21.6847C151.044 21.2793 150.136 20.7087 149.355 19.9729C148.589 19.2372 147.988 18.3738 147.553 17.3828C147.133 16.3918 146.922 15.3031 146.922 14.1169C146.922 12.9307 147.133 11.8421 147.553 10.8511C147.988 9.86007 148.597 8.99669 149.377 8.26094C150.158 7.52519 151.074 6.96211 152.125 6.57171C153.176 6.16629 154.332 5.96359 155.594 5.96359C156.99 5.96359 158.244 6.19633 159.355 6.6618C160.481 7.12728 161.427 7.80297 162.193 8.68888L159.851 10.8511C159.28 10.2505 158.657 9.80752 157.981 9.52223C157.305 9.22192 156.57 9.07177 155.774 9.07177C155.008 9.07177 154.31 9.19189 153.679 9.43214C153.049 9.67238 152.5 10.0177 152.035 10.4682C151.585 10.9187 151.232 11.4517 150.976 12.0673C150.736 12.683 150.616 13.3662 150.616 14.1169C150.616 14.8527 150.736 15.5284 150.976 16.144C151.232 16.7596 151.585 17.3002 152.035 17.7657C152.5 18.2161 153.041 18.5615 153.657 18.8017C154.287 19.042 154.978 19.1621 155.729 19.1621C156.45 19.1621 157.148 19.0495 157.823 18.8242C158.514 18.584 159.182 18.1861 159.828 17.6305L161.9 20.2657C161.044 20.9114 160.046 21.4069 158.905 21.7522C157.778 22.0976 156.652 22.2703 155.526 22.2703ZM158.567 19.7927V13.8692H161.9V20.2657L158.567 19.7927Z" fill="#191919"/>
<path d="M36.3026 36.272V27.872H37.1906V36.272H36.3026ZM42.2877 35.276L42.5877 35.888C42.2517 36.188 41.7477 36.332 41.2557 36.332C40.0677 36.332 39.4077 35.66 39.4077 34.496V30.68H38.2797V29.96H39.4077V28.58H40.2597V29.96H42.1797V30.68H40.2597V34.448C40.2597 35.192 40.6437 35.6 41.3517 35.6C41.6997 35.6 42.0477 35.492 42.2877 35.276ZM43.7547 27.308C44.1267 27.308 44.3907 27.596 44.3907 27.956C44.3907 28.16 44.3427 28.304 44.2347 28.64L43.7187 30.296H43.1427L43.5627 28.568C43.2987 28.484 43.1187 28.268 43.1187 27.956C43.1187 27.572 43.3947 27.308 43.7547 27.308ZM47.2261 36.332C46.1821 36.332 45.1741 35.996 44.6581 35.552L45.0421 34.88C45.5461 35.276 46.3981 35.588 47.2861 35.588C48.4861 35.588 48.9781 35.18 48.9781 34.556C48.9781 32.912 44.8861 34.208 44.8861 31.712C44.8861 30.68 45.7741 29.912 47.3821 29.912C48.1981 29.912 49.0861 30.14 49.6141 30.5L49.2421 31.184C48.6901 30.8 48.0301 30.644 47.3821 30.644C46.2421 30.644 45.7381 31.088 45.7381 31.688C45.7381 33.392 49.8301 32.108 49.8301 34.532C49.8301 35.624 48.8701 36.332 47.2261 36.332ZM61.7579 27.872H62.4899V36.272H61.6379V29.552L58.3379 35.204H57.9179L54.6179 29.588V36.272H53.7659V27.872H54.4979L58.1459 34.1L61.7579 27.872ZM67.1468 36.332C65.2988 36.332 63.9308 34.988 63.9308 33.116C63.9308 31.244 65.2988 29.912 67.1468 29.912C68.9948 29.912 70.3508 31.244 70.3508 33.116C70.3508 34.988 68.9948 36.332 67.1468 36.332ZM67.1468 35.576C68.4908 35.576 69.4868 34.592 69.4868 33.116C69.4868 31.64 68.4908 30.656 67.1468 30.656C65.8028 30.656 64.7948 31.64 64.7948 33.116C64.7948 34.592 65.8028 35.576 67.1468 35.576ZM72.4262 31.196C72.8222 30.356 73.6262 29.912 74.7902 29.912V30.74C74.7182 30.74 74.6462 30.728 74.5862 30.728C73.2662 30.728 72.4622 31.568 72.4622 33.056V36.272H71.6102V29.96H72.4262V31.196ZM81.3023 33.116C81.3023 33.188 81.2903 33.284 81.2903 33.38H76.0103C76.1063 34.7 77.1143 35.576 78.4943 35.576C79.2623 35.576 79.9463 35.3 80.4263 34.748L80.9063 35.3C80.3423 35.972 79.4663 36.332 78.4703 36.332C76.5023 36.332 75.1583 34.988 75.1583 33.116C75.1583 31.244 76.4663 29.912 78.2423 29.912C80.0183 29.912 81.3023 31.22 81.3023 33.116ZM78.2423 30.644C77.0183 30.644 76.1183 31.508 76.0103 32.744H80.4863C80.3783 31.508 79.4783 30.644 78.2423 30.644ZM87.0291 36.272V28.64H84.0771V27.872H90.8691V28.64H87.9171V36.272H87.0291ZM94.8437 29.912C96.3797 29.912 97.4357 30.8 97.4357 32.612V36.272H96.5837V32.696C96.5837 31.364 95.8877 30.68 94.6877 30.68C93.3317 30.68 92.4797 31.52 92.4797 32.96V36.272H91.6277V27.368H92.4797V31.064C92.9477 30.332 93.7757 29.912 94.8437 29.912ZM101.477 29.912C103.109 29.912 104.033 30.728 104.033 32.36V36.272H103.217V35.288C102.833 35.936 102.089 36.332 101.045 36.332C99.6168 36.332 98.7408 35.588 98.7408 34.496C98.7408 33.524 99.3648 32.708 101.177 32.708H103.181V32.324C103.181 31.244 102.569 30.656 101.393 30.656C100.577 30.656 99.8088 30.944 99.2928 31.4L98.9088 30.764C99.5448 30.224 100.481 29.912 101.477 29.912ZM101.177 35.66C102.137 35.66 102.845 35.204 103.181 34.376V33.344H101.201C99.9768 33.344 99.5808 33.824 99.5808 34.472C99.5808 35.204 100.169 35.66 101.177 35.66ZM109.083 29.912C110.619 29.912 111.675 30.8 111.675 32.612V36.272H110.823V32.696C110.823 31.364 110.127 30.68 108.927 30.68C107.571 30.68 106.719 31.52 106.719 32.96V36.272H105.867V29.96H106.683V31.124C107.139 30.356 107.991 29.912 109.083 29.912ZM124.653 29.96H125.433L123.045 36.272H122.241L120.249 31.1L118.257 36.272H117.453L115.077 29.96H115.893L117.873 35.324L119.901 29.96H120.633L122.649 35.324L124.653 29.96ZM129.452 29.912C130.988 29.912 132.044 30.8 132.044 32.612V36.272H131.192V32.696C131.192 31.364 130.496 30.68 129.296 30.68C127.94 30.68 127.088 31.52 127.088 32.96V36.272H126.236V27.368H127.088V31.064C127.556 30.332 128.384 29.912 129.452 29.912ZM136.085 29.912C137.717 29.912 138.641 30.728 138.641 32.36V36.272H137.825V35.288C137.441 35.936 136.697 36.332 135.653 36.332C134.225 36.332 133.349 35.588 133.349 34.496C133.349 33.524 133.973 32.708 135.785 32.708H137.789V32.324C137.789 31.244 137.177 30.656 136.001 30.656C135.185 30.656 134.417 30.944 133.901 31.4L133.517 30.764C134.153 30.224 135.089 29.912 136.085 29.912ZM135.785 35.66C136.745 35.66 137.453 35.204 137.789 34.376V33.344H135.809C134.585 33.344 134.189 33.824 134.189 34.472C134.189 35.204 134.777 35.66 135.785 35.66ZM143.499 35.276L143.799 35.888C143.463 36.188 142.959 36.332 142.467 36.332C141.279 36.332 140.619 35.66 140.619 34.496V30.68H139.491V29.96H140.619V28.58H141.471V29.96H143.391V30.68H141.471V34.448C141.471 35.192 141.855 35.6 142.563 35.6C142.911 35.6 143.259 35.492 143.499 35.276ZM153.95 27.872L150.59 33.368V36.272H149.714V33.368L146.354 27.872H147.302L150.182 32.588L153.062 27.872H153.95ZM156.533 36.332C154.685 36.332 153.317 34.988 153.317 33.116C153.317 31.244 154.685 29.912 156.533 29.912C158.381 29.912 159.737 31.244 159.737 33.116C159.737 34.988 158.381 36.332 156.533 36.332ZM156.533 35.576C157.877 35.576 158.873 34.592 158.873 33.116C158.873 31.64 157.877 30.656 156.533 30.656C155.189 30.656 154.181 31.64 154.181 33.116C154.181 34.592 155.189 35.576 156.533 35.576ZM165.832 29.96H166.684V36.272H165.868V35.12C165.424 35.888 164.608 36.332 163.6 36.332C161.992 36.332 160.936 35.432 160.936 33.62V29.96H161.788V33.536C161.788 34.88 162.484 35.564 163.684 35.564C165.004 35.564 165.832 34.712 165.832 33.272V29.96ZM169.406 31.196C169.802 30.356 170.606 29.912 171.77 29.912V30.74C171.698 30.74 171.626 30.728 171.566 30.728C170.246 30.728 169.442 31.568 169.442 33.056V36.272H168.59V29.96H169.406V31.196ZM181.059 31.94C182.139 32.18 182.787 32.888 182.787 34.028C182.787 35.456 181.731 36.272 179.631 36.272H175.767V27.872H179.391C181.263 27.872 182.343 28.664 182.343 30.032C182.343 30.992 181.827 31.628 181.059 31.94ZM179.331 28.604H176.655V31.652H179.331C180.675 31.652 181.455 31.136 181.455 30.128C181.455 29.12 180.675 28.604 179.331 28.604ZM179.619 35.54C181.095 35.54 181.899 35.06 181.899 33.956C181.899 32.864 181.095 32.384 179.619 32.384H176.655V35.54H179.619ZM186.734 36.332C184.886 36.332 183.518 34.988 183.518 33.116C183.518 31.244 184.886 29.912 186.734 29.912C188.582 29.912 189.938 31.244 189.938 33.116C189.938 34.988 188.582 36.332 186.734 36.332ZM186.734 35.576C188.078 35.576 189.074 34.592 189.074 33.116C189.074 31.64 188.078 30.656 186.734 30.656C185.39 30.656 184.382 31.64 184.382 33.116C184.382 34.592 185.39 35.576 186.734 35.576ZM196.106 27.368H196.958V36.272H196.142V35.024C195.626 35.876 194.75 36.332 193.706 36.332C191.906 36.332 190.562 35.024 190.562 33.116C190.562 31.208 191.906 29.912 193.706 29.912C194.714 29.912 195.578 30.344 196.106 31.16V27.368ZM193.778 35.576C195.11 35.576 196.118 34.592 196.118 33.116C196.118 31.64 195.11 30.656 193.778 30.656C192.434 30.656 191.426 31.64 191.426 33.116C191.426 34.592 192.434 35.576 193.778 35.576ZM203.315 29.96H204.155L200.999 37.028C200.471 38.264 199.799 38.66 198.899 38.66C198.311 38.66 197.747 38.468 197.363 38.084L197.759 37.448C198.071 37.76 198.455 37.928 198.911 37.928C199.475 37.928 199.859 37.664 200.219 36.872L200.495 36.26L197.675 29.96H198.563L200.939 35.324L203.315 29.96ZM210.751 29.912C212.287 29.912 213.343 30.8 213.343 32.612V36.272H212.491V32.696C212.491 31.364 211.795 30.68 210.595 30.68C209.239 30.68 208.387 31.52 208.387 32.96V36.272H207.535V29.96H208.351V31.124C208.807 30.356 209.659 29.912 210.751 29.912ZM220.708 33.116C220.708 33.188 220.696 33.284 220.696 33.38H215.416C215.512 34.7 216.52 35.576 217.9 35.576C218.668 35.576 219.352 35.3 219.832 34.748L220.312 35.3C219.748 35.972 218.872 36.332 217.876 36.332C215.908 36.332 214.564 34.988 214.564 33.116C214.564 31.244 215.872 29.912 217.648 29.912C219.424 29.912 220.708 31.22 220.708 33.116ZM217.648 30.644C216.424 30.644 215.524 31.508 215.416 32.744H219.892C219.784 31.508 218.884 30.644 217.648 30.644ZM227.47 33.116C227.47 33.188 227.458 33.284 227.458 33.38H222.178C222.274 34.7 223.282 35.576 224.662 35.576C225.43 35.576 226.114 35.3 226.594 34.748L227.074 35.3C226.51 35.972 225.634 36.332 224.638 36.332C222.67 36.332 221.326 34.988 221.326 33.116C221.326 31.244 222.634 29.912 224.41 29.912C226.186 29.912 227.47 31.22 227.47 33.116ZM224.41 30.644C223.186 30.644 222.286 31.508 222.178 32.744H226.654C226.546 31.508 225.646 30.644 224.41 30.644ZM233.632 27.368H234.484V36.272H233.668V35.024C233.152 35.876 232.276 36.332 231.232 36.332C229.432 36.332 228.088 35.024 228.088 33.116C228.088 31.208 229.432 29.912 231.232 29.912C232.24 29.912 233.104 30.344 233.632 31.16V27.368ZM231.304 35.576C232.636 35.576 233.644 34.592 233.644 33.116C233.644 31.64 232.636 30.656 231.304 30.656C229.96 30.656 228.952 31.64 228.952 33.116C228.952 34.592 229.96 35.576 231.304 35.576ZM238.069 36.332C237.025 36.332 236.017 35.996 235.501 35.552L235.885 34.88C236.389 35.276 237.241 35.588 238.129 35.588C239.329 35.588 239.821 35.18 239.821 34.556C239.821 32.912 235.729 34.208 235.729 31.712C235.729 30.68 236.617 29.912 238.225 29.912C239.041 29.912 239.929 30.14 240.457 30.5L240.085 31.184C239.533 30.8 238.873 30.644 238.225 30.644C237.085 30.644 236.581 31.088 236.581 31.688C236.581 33.392 240.673 32.108 240.673 34.532C240.673 35.624 239.713 36.332 238.069 36.332Z" fill="#7F7F7F"/>
<path d="M12.8835 32.0552C13.2226 32.0616 13.4946 32.3436 13.4882 32.6833C13.4818 33.023 13.2003 33.2954 12.8611 33.289C11.1911 33.2538 9.52427 32.9012 7.96942 32.2379C6.46576 31.5969 5.06127 30.6675 3.84234 29.4465C1.27971 26.8794 0 23.5015 0 20.1205C0 16.7394 1.27971 13.3615 3.83914 10.7977L12.714 1.91074C12.9539 1.67038 13.3474 1.67038 13.5874 1.91074L22.459 10.7977C25.0184 13.3615 26.2981 16.7426 26.2981 20.1205C26.2981 27.0589 19.2917 35.8369 12.1669 29.4945C11.7798 29.1516 11.4438 28.8087 11.1527 28.469C10.4297 28.2991 9.72263 28.0331 9.05398 27.6742C8.34054 27.2896 7.67189 26.7961 7.07682 26.2C5.40999 24.5303 4.57818 22.3254 4.57818 20.1205C4.57818 17.9156 5.40999 15.7106 7.07682 14.0409L12.7076 8.40048C12.9475 8.16012 13.341 8.16012 13.581 8.40048L19.2117 14.0409C20.8657 15.6978 21.6976 17.8867 21.7072 20.082C21.7136 21.5915 21.3296 23.1041 20.5554 24.4438C19.7332 25.8699 18.1655 27.0621 16.7483 26.8922C16.1436 26.8185 15.5645 26.498 15.0814 25.8411C14.1856 24.62 14.8703 22.6619 15.2286 21.3127C15.7085 19.5019 16.2172 17.5823 15.5485 15.6401C15.4398 15.3165 15.6093 14.9639 15.9324 14.855C16.2556 14.7428 16.6075 14.9159 16.7163 15.2395C17.5065 17.5342 16.9466 19.6397 16.4187 21.6299C16.1628 22.601 15.9132 23.5432 15.8557 24.4213C15.8653 24.7065 15.9452 24.9373 16.0764 25.1136C17.1226 26.5397 18.8246 24.9661 19.4773 23.8477C20.1491 22.6939 20.4818 21.3896 20.4754 20.0884C20.4658 18.2136 19.7556 16.3388 18.3383 14.9191L13.9425 10.5157C14.0961 13.8807 13.0403 16.6881 12.0965 19.2039C10.772 22.7292 9.68104 25.6327 12.9827 28.5716C19.2469 34.1511 25.0568 25.9692 25.0568 20.1205C25.0568 17.0567 23.8987 13.9929 21.5792 11.6726L13.1491 3.22151L4.71575 11.6726C2.39627 13.9961 1.23812 17.0599 1.23812 20.1205C1.23812 23.1811 2.39627 26.2481 4.71575 28.5683C5.8227 29.6772 7.09282 30.5201 8.44932 31.0969C9.8634 31.6994 11.3735 32.0199 12.8835 32.052M10.948 18.768C11.8853 16.2715 12.9347 13.4737 12.6916 10.1727L7.95662 14.9159C6.53294 16.342 5.8195 18.2296 5.8195 20.1205C5.8195 22.0113 6.53294 23.8957 7.95662 25.3251C8.46851 25.8411 9.03798 26.2609 9.64265 26.5846C9.78022 26.6583 9.92099 26.7288 10.0618 26.7929C8.89402 24.2483 9.8506 21.6972 10.9512 18.768" fill="#191919"/>
</svg>
