<svg width="138" height="33" viewBox="0 0 138 33" fill="none" xmlns="http://www.w3.org/2000/svg">
<path fill-rule="evenodd" clip-rule="evenodd" d="M16.7325 4.178C16.7325 2.04887 15.0039 0.322876 12.8715 0.322876V7.02522C14.3572 7.75951 15.6374 8.84573 16.6028 10.1747C17.3965 11.2674 17.9775 12.5242 18.2849 13.8845C19.4879 12.4807 21.2865 11.5893 23.2962 11.5893C26.9181 11.5893 29.8542 14.4847 29.8542 18.0564C29.8542 21.6281 26.9181 24.5236 23.2962 24.5236C19.7033 24.5236 16.7791 21.6813 16.7326 18.1491L16.7325 16.1289C16.7325 11.5158 12.9871 7.77611 8.36698 7.77611C6.43443 7.77611 4.65494 8.43041 3.23861 9.52925C2.54977 8.47382 1.35722 7.77611 0.00146484 7.77611V28.3367H3.86247V16.0871C3.86247 13.6031 5.87919 11.5894 8.36698 11.5894C10.8548 11.5894 12.8715 13.6031 12.8715 16.0871V28.3367L16.7322 26.0434C18.5243 27.4774 20.8085 28.3367 23.2962 28.3367H20.4448C19.9514 28.336 19.4633 28.4383 19.0109 28.6371C18.5584 28.8359 18.1515 29.127 17.8155 29.4921C17.1106 30.2591 16.7231 31.2699 16.7327 32.3168L26.4052 32.3204C26.9002 32.3171 27.3893 32.2106 27.8417 32.0075C28.2941 31.8044 28.7002 31.509 29.0345 31.14C29.6904 30.4221 30.074 29.3129 30.1173 28.3367L23.2962 28.3367C26.8001 28.3367 29.9004 26.6319 31.7904 24.0175C33.6805 26.6319 36.7807 28.3367 40.2846 28.3367C42.7722 28.3367 45.0563 27.4775 46.8483 26.0438L50.7094 28.3367V0.322876C48.577 0.322876 46.8483 2.04887 46.8483 4.178V10.0693C45.0563 8.63534 42.7722 7.77611 40.2846 7.77611C36.7807 7.77611 33.6804 9.48092 31.7904 12.0953C29.9004 9.48092 26.8001 7.77611 23.2962 7.77611C20.8086 7.77611 18.5245 8.63533 16.7325 10.0692V4.178ZM40.2846 24.5236C36.6627 24.5236 33.7266 21.6281 33.7266 18.0564C33.7266 14.4847 36.6627 11.5893 40.2846 11.5893C43.9065 11.5893 46.8426 14.4847 46.8426 18.0564C46.8426 21.6281 43.9065 24.5236 40.2846 24.5236Z" fill="url(#paint0_linear_1564_407)"/>
<path d="M130.071 19.4992C129.832 19.4992 129.599 19.4775 129.371 19.4342C129.144 19.4016 128.937 19.3365 128.753 19.2389V17.4655C128.894 17.498 129.062 17.5306 129.257 17.5631C129.463 17.5957 129.653 17.6119 129.827 17.6119C130.315 17.6119 130.667 17.498 130.884 17.2703C131.112 17.0533 131.313 16.7605 131.486 16.3917L132.072 15.025L132.04 16.8147L128.184 7.06903H130.478L133.178 14.2603H132.365L135.049 7.06903H137.36L133.504 16.8147C133.276 17.3787 132.999 17.8614 132.674 18.2627C132.349 18.6641 131.969 18.9678 131.535 19.1738C131.112 19.3908 130.624 19.4992 130.071 19.4992Z" fill="black"/>
<path d="M122.654 15.9198V7.06899H124.655V9.03765L124.492 8.74479C124.698 8.08315 125.018 7.62217 125.452 7.36185C125.897 7.10153 126.428 6.97137 127.047 6.97137H127.567V8.85868H126.803C126.195 8.85868 125.707 9.0485 125.338 9.42813C124.97 9.79692 124.785 10.3176 124.785 10.99V15.9198H122.654Z" fill="black"/>
<path d="M116.705 15.9199V7.06905H118.706V9.03771L118.544 8.74486C118.75 8.08321 119.07 7.62223 119.504 7.36191C119.948 7.10159 120.48 6.97144 121.098 6.97144H121.619V8.85874H120.854C120.246 8.85874 119.758 9.04856 119.39 9.42819C119.021 9.79698 118.836 10.3176 118.836 10.9901V15.9199H116.705Z" fill="black"/>
<path d="M111.754 15.9199C110.843 15.9199 110.045 15.7138 109.362 15.3016C108.679 14.8895 108.147 14.3309 107.768 13.6258C107.388 12.9208 107.198 12.1399 107.198 11.283C107.198 10.3936 107.388 9.60717 107.768 8.92384C108.158 8.22965 108.684 7.6819 109.346 7.28058C110.018 6.87925 110.767 6.67859 111.591 6.67859C112.285 6.67859 112.893 6.79248 113.413 7.02026C113.945 7.24804 114.395 7.56259 114.764 7.96391C115.133 8.36524 115.415 8.82622 115.61 9.34685C115.805 9.85665 115.903 10.4098 115.903 11.0064C115.903 11.1582 115.892 11.3155 115.87 11.4782C115.859 11.6409 115.832 11.7819 115.789 11.9012H108.955V10.2742H114.585L113.576 11.0389C113.674 10.54 113.647 10.0953 113.495 9.70479C113.354 9.31431 113.115 9.00519 112.779 8.77741C112.453 8.54963 112.058 8.43574 111.591 8.43574C111.146 8.43574 110.751 8.54963 110.403 8.77741C110.056 8.99434 109.791 9.31974 109.606 9.7536C109.433 10.1766 109.368 10.6918 109.411 11.2992C109.368 11.8416 109.438 12.3242 109.622 12.7473C109.818 13.1594 110.1 13.4794 110.468 13.7072C110.848 13.935 111.282 14.0489 111.77 14.0489C112.258 14.0489 112.67 13.9458 113.007 13.7397C113.354 13.5336 113.625 13.2571 113.82 12.91L115.545 13.756C115.371 14.179 115.1 14.5532 114.731 14.8786C114.362 15.204 113.923 15.4589 113.413 15.6433C112.914 15.8277 112.361 15.9199 111.754 15.9199Z" fill="black"/>
<path d="M102.109 15.9199C101.469 15.9199 100.877 15.7951 100.335 15.5456C99.8036 15.2853 99.3806 14.9165 99.0661 14.4393L99.2776 14.0163V15.9199H97.2764L97.2764 3.78912H99.4077V8.63094L99.0823 8.19165C99.386 7.7144 99.7982 7.34561 100.319 7.0853C100.839 6.81413 101.441 6.67855 102.125 6.67855C102.96 6.67855 103.714 6.88463 104.386 7.2968C105.059 7.70898 105.59 8.26215 105.981 8.95633C106.382 9.65052 106.583 10.4315 106.583 11.2992C106.583 12.1561 106.388 12.937 105.997 13.6421C105.607 14.3471 105.075 14.9057 104.403 15.3179C103.73 15.7192 102.965 15.9199 102.109 15.9199ZM101.864 13.9675C102.353 13.9675 102.786 13.8536 103.166 13.6258C103.546 13.398 103.839 13.0835 104.045 12.6821C104.262 12.2808 104.37 11.8198 104.37 11.2992C104.37 10.7786 104.262 10.323 104.045 9.93253C103.839 9.5312 103.546 9.21665 103.166 8.98887C102.786 8.75025 102.353 8.63094 101.864 8.63094C101.398 8.63094 100.975 8.74482 100.595 8.9726C100.227 9.20038 99.9338 9.52036 99.7169 9.93253C99.5108 10.3339 99.4077 10.7894 99.4077 11.2992C99.4077 11.8198 99.5108 12.2808 99.7169 12.6821C99.9338 13.0835 100.227 13.398 100.595 13.6258C100.975 13.8536 101.398 13.9675 101.864 13.9675Z" fill="black"/>
<path d="M92.3251 15.9199C91.414 15.9199 90.6168 15.7138 89.9334 15.3016C89.2501 14.8895 88.7186 14.3309 88.339 13.6258C87.9593 12.9208 87.7695 12.1399 87.7695 11.283C87.7695 10.3936 87.9593 9.60717 88.339 8.92384C88.7295 8.22965 89.2555 7.6819 89.9172 7.28058C90.5897 6.87925 91.3381 6.67859 92.1624 6.67859C92.8566 6.67859 93.464 6.79248 93.9846 7.02026C94.5161 7.24804 94.9663 7.56259 95.335 7.96391C95.7038 8.36524 95.9858 8.82622 96.1811 9.34685C96.3763 9.85665 96.4739 10.4098 96.4739 11.0064C96.4739 11.1582 96.4631 11.3155 96.4414 11.4782C96.4306 11.6409 96.4034 11.7819 96.36 11.9012H89.5267V10.2742H95.1561L94.1473 11.0389C94.245 10.54 94.2178 10.0953 94.066 9.70479C93.925 9.31431 93.6864 9.00519 93.3501 8.77741C93.0247 8.54963 92.6288 8.43574 92.1624 8.43574C91.7177 8.43574 91.3218 8.54963 90.9747 8.77741C90.6276 8.99434 90.3619 9.31974 90.1775 9.7536C90.0039 10.1766 89.9389 10.6918 89.9822 11.2992C89.9389 11.8416 90.0094 12.3242 90.1937 12.7473C90.389 13.1594 90.671 13.4794 91.0398 13.7072C91.4194 13.935 91.8533 14.0489 92.3414 14.0489C92.8295 14.0489 93.2416 13.9458 93.5779 13.7397C93.925 13.5336 94.1961 13.2571 94.3914 12.91L96.116 13.756C95.9425 14.179 95.6713 14.5532 95.3025 14.8786C94.9337 15.204 94.4944 15.4589 93.9846 15.6433C93.4857 15.8277 92.9325 15.9199 92.3251 15.9199Z" fill="black"/>
<path d="M83.7891 15.9199C82.8454 15.9199 82.0211 15.6975 81.316 15.2528C80.6218 14.7973 80.1446 14.1844 79.8843 13.4143L81.4787 12.6496C81.7065 13.1486 82.0211 13.5391 82.4224 13.8211C82.8346 14.1031 83.2901 14.2441 83.7891 14.2441C84.1795 14.2441 84.4887 14.1573 84.7164 13.9838C84.9442 13.8102 85.0581 13.5825 85.0581 13.3004C85.0581 13.1269 85.0093 12.9859 84.9117 12.8774C84.8249 12.7581 84.7002 12.6605 84.5375 12.5846C84.3856 12.4978 84.2175 12.4273 84.0331 12.3731L82.5851 11.9663C81.8367 11.7494 81.2672 11.4186 80.8767 10.9738C80.4971 10.5291 80.3073 10.0031 80.3073 9.39566C80.3073 8.85333 80.4429 8.38151 80.714 7.98018C80.9961 7.56801 81.3811 7.24804 81.8692 7.02026C82.3682 6.79248 82.9376 6.67859 83.5775 6.67859C84.4127 6.67859 85.1503 6.87925 85.7903 7.28058C86.4302 7.6819 86.8858 8.24592 87.1569 8.97265L85.5299 9.73733C85.3781 9.33601 85.1232 9.01603 84.7653 8.77741C84.4073 8.53878 84.006 8.41947 83.5613 8.41947C83.2033 8.41947 82.9213 8.50082 82.7152 8.66352C82.5092 8.82622 82.4061 9.03773 82.4061 9.29805C82.4061 9.46074 82.4495 9.60175 82.5363 9.72106C82.623 9.84038 82.7424 9.93799 82.8942 10.0139C83.0569 10.0898 83.2413 10.1604 83.4474 10.2254L84.8629 10.6484C85.5896 10.8654 86.1482 11.1908 86.5387 11.6246C86.94 12.0585 87.1407 12.59 87.1407 13.2191C87.1407 13.7506 86.9997 14.2224 86.7176 14.6346C86.4356 15.0359 86.0451 15.3505 85.5462 15.5782C85.0473 15.806 84.4615 15.9199 83.7891 15.9199Z" fill="black"/>
<path d="M74.9479 15.9198C74.0802 15.9198 73.2884 15.7192 72.5725 15.3179C71.8675 14.9165 71.3035 14.3688 70.8805 13.6746C70.4683 12.9804 70.2622 12.1886 70.2622 11.2992C70.2622 10.4098 70.4683 9.61796 70.8805 8.92378C71.3035 8.22959 71.8675 7.68184 72.5725 7.28051C73.2776 6.87919 74.0694 6.67853 74.9479 6.67853C75.8157 6.67853 76.602 6.87919 77.3071 7.28051C78.0121 7.68184 78.5707 8.22959 78.9829 8.92378C79.4059 9.60711 79.6174 10.3989 79.6174 11.2992C79.6174 12.1886 79.4059 12.9804 78.9829 13.6746C78.5599 14.3688 77.9958 14.9165 77.2908 15.3179C76.5858 15.7192 75.8048 15.9198 74.9479 15.9198ZM74.9479 13.9674C75.4252 13.9674 75.8428 13.8536 76.2007 13.6258C76.5695 13.398 76.8569 13.0834 77.063 12.6821C77.28 12.27 77.3884 11.809 77.3884 11.2992C77.3884 10.7785 77.28 10.323 77.063 9.93251C76.8569 9.53119 76.5695 9.21663 76.2007 8.98886C75.8428 8.75023 75.4252 8.63092 74.9479 8.63092C74.4598 8.63092 74.0314 8.75023 73.6626 8.98886C73.2938 9.21663 73.001 9.53119 72.784 9.93251C72.578 10.323 72.4749 10.7785 72.4749 11.2992C72.4749 11.809 72.578 12.27 72.784 12.6821C73.001 13.0834 73.2938 13.398 73.6626 13.6258C74.0314 13.8536 74.4598 13.9674 74.9479 13.9674Z" fill="black"/>
<path d="M59.7163 15.9199V3.79877H61.4409L68.1116 12.7798L67.2167 12.9587V3.79877H69.4294V15.9199H67.6886L61.1155 6.87378L61.929 6.69481V15.9199H59.7163Z" fill="black"/>
<path d="M101.161 29.3998C100.443 29.3998 99.8186 29.2227 99.2871 28.8683C98.7556 28.514 98.3792 28.0357 98.1577 27.4333L99.141 26.955C99.3447 27.3802 99.6237 27.7168 99.9781 27.9648C100.332 28.2128 100.727 28.3369 101.161 28.3369C101.55 28.3369 101.874 28.2438 102.131 28.0578C102.387 27.8718 102.516 27.6282 102.516 27.327C102.516 27.1144 102.454 26.9461 102.33 26.8221C102.215 26.6893 102.073 26.5874 101.905 26.5165C101.736 26.4368 101.581 26.3792 101.44 26.3438L100.363 26.0382C99.7167 25.8522 99.2428 25.5864 98.9417 25.241C98.6493 24.8955 98.5032 24.4925 98.5032 24.0318C98.5032 23.6067 98.6095 23.239 98.8221 22.929C99.0435 22.6101 99.3403 22.3621 99.7123 22.1849C100.093 22.0078 100.518 21.9192 100.988 21.9192C101.617 21.9192 102.179 22.0786 102.675 22.3975C103.18 22.7164 103.539 23.1637 103.752 23.7395L102.742 24.2046C102.582 23.8325 102.343 23.5402 102.024 23.3276C101.705 23.1062 101.347 22.9954 100.948 22.9954C100.585 22.9954 100.297 23.0885 100.084 23.2745C99.8718 23.4516 99.7655 23.6775 99.7655 23.9521C99.7655 24.1559 99.8186 24.3242 99.9249 24.457C100.031 24.581 100.16 24.6785 100.31 24.7493C100.461 24.8113 100.607 24.8645 100.749 24.9088L101.918 25.2543C102.503 25.4226 102.954 25.6839 103.273 26.0382C103.601 26.3925 103.765 26.8177 103.765 27.3138C103.765 27.7124 103.654 28.0711 103.433 28.39C103.211 28.7089 102.906 28.9569 102.516 29.1341C102.126 29.3112 101.674 29.3998 101.161 29.3998Z" fill="black"/>
<path d="M95.709 29.3997V19.4999H96.9447V29.3997H95.709Z" fill="black"/>
<path d="M90.4312 29.3998C89.9618 29.3998 89.5454 29.3157 89.1822 29.1474C88.8279 28.9702 88.5489 28.731 88.3452 28.4299C88.1414 28.1198 88.0396 27.7655 88.0396 27.3669C88.0396 26.986 88.1193 26.645 88.2787 26.3438C88.447 26.0338 88.7039 25.7724 89.0494 25.5599C89.4037 25.3473 89.8466 25.1967 90.3781 25.1081L93.0355 24.6696V25.706L90.6571 26.1046C90.1965 26.1843 89.8599 26.3305 89.6473 26.5431C89.4436 26.7557 89.3417 27.017 89.3417 27.327C89.3417 27.6194 89.4568 27.8629 89.6872 28.0578C89.9263 28.2527 90.2231 28.3501 90.5774 28.3501C91.0291 28.3501 91.4189 28.2571 91.7467 28.0711C92.0833 27.8762 92.3446 27.6149 92.5306 27.2872C92.7255 26.9594 92.8229 26.5962 92.8229 26.1976V24.3773C92.8229 23.9875 92.6767 23.6731 92.3844 23.4339C92.101 23.1859 91.7245 23.0619 91.255 23.0619C90.8476 23.0619 90.4844 23.1682 90.1655 23.3808C89.8555 23.5845 89.6251 23.8591 89.4746 24.2046L88.3983 23.6465C88.5312 23.3188 88.7438 23.0264 89.0361 22.7696C89.3284 22.5038 89.6694 22.2957 90.0592 22.1451C90.4489 21.9945 90.8564 21.9192 91.2816 21.9192C91.8308 21.9192 92.3136 22.0255 92.7299 22.2381C93.1462 22.4418 93.4695 22.7297 93.6999 23.1017C93.939 23.4649 94.0586 23.8901 94.0586 24.3773V29.3998H92.8495V27.8851L93.0754 27.9648C92.9248 28.2483 92.721 28.4963 92.4642 28.7089C92.2073 28.9215 91.9061 29.0898 91.5606 29.2138C91.2152 29.3378 90.8387 29.3998 90.4312 29.3998Z" fill="black"/>
<path d="M86.3303 29.3888C85.6306 29.3888 85.0902 29.1895 84.7093 28.7909C84.3373 28.3923 84.1513 27.8298 84.1513 27.1034V23.4205H82.8491V22.238H83.1149C83.4338 22.238 83.6862 22.1406 83.8722 21.9457C84.0582 21.7508 84.1513 21.4939 84.1513 21.175V20.5904H85.387V22.238H86.9947V23.4205H85.387V27.0636C85.387 27.3027 85.4224 27.5109 85.4933 27.688C85.573 27.8652 85.7014 28.0069 85.8786 28.1132C86.0557 28.2107 86.2905 28.2594 86.5828 28.2594C86.6448 28.2594 86.7201 28.255 86.8087 28.2461C86.9061 28.2372 86.9947 28.2284 87.0744 28.2195V29.3091C86.9593 29.3356 86.8308 29.3534 86.6891 29.3622C86.5474 29.3799 86.4278 29.3888 86.3303 29.3888Z" fill="black"/>
<path d="M80.5332 29.3997V22.238H81.7689V29.3997H80.5332ZM80.5332 21.0953V19.5009H81.7689V21.0953H80.5332Z" fill="black"/>
<path d="M75.4551 32.3229C74.9502 32.3229 74.4808 32.2432 74.0467 32.0837C73.6215 31.9243 73.2539 31.7028 72.9439 31.4194C72.6427 31.1448 72.4124 30.8214 72.253 30.4494L73.4089 29.9179C73.5329 30.2545 73.7677 30.538 74.1131 30.7683C74.4675 31.0075 74.9104 31.127 75.4419 31.127C75.8493 31.127 76.2169 31.0473 76.5447 30.8879C76.8813 30.7373 77.147 30.507 77.3419 30.197C77.5368 29.8958 77.6342 29.6957 77.6342 29.2616V27.6539L77.8601 27.893C77.6121 28.3802 77.2533 28.7523 76.7839 29.0092C76.3232 29.266 75.8139 29.3945 75.2558 29.3945C74.5826 29.3945 73.9803 29.2395 73.4488 28.9294C72.9173 28.6106 72.501 28.1809 72.1998 27.6406C71.8986 27.0914 71.748 26.4846 71.748 25.8203C71.748 25.147 71.8986 24.5403 72.1998 23.9999C72.501 23.4596 72.9129 23.0344 73.4355 22.7244C73.967 22.4055 74.5693 22.246 75.2426 22.246C75.8006 22.246 76.3055 22.3745 76.7573 22.6314C77.2179 22.8794 77.5855 23.2248 77.8601 23.6678L77.6741 23.9999V22.246H78.8832V29.2616C78.8832 29.8817 78.7371 30.2678 78.4447 30.755C78.1524 31.2422 77.745 31.6231 77.2223 31.8977C76.7086 32.1812 76.1195 32.3229 75.4551 32.3229ZM75.3621 28.1987C75.7873 28.1987 76.1682 28.0924 76.5048 27.8798C76.8503 27.6672 77.1249 27.3837 77.3286 27.0294C77.5324 26.6662 77.6342 26.2632 77.6342 25.8203C77.6342 25.3862 77.5324 24.9876 77.3286 24.6244C77.1249 24.2612 76.8503 23.9734 76.5048 23.7608C76.1682 23.5482 75.7873 23.4419 75.3621 23.4419C74.9281 23.4419 74.5339 23.5482 74.1796 23.7608C73.8253 23.9734 73.5462 24.2612 73.3425 24.6244C73.1476 24.9787 73.0502 25.3774 73.0502 25.8203C73.0502 26.2632 73.1476 26.6662 73.3425 27.0294C73.5462 27.3837 73.8208 27.6672 74.1663 27.8798C74.5206 28.0924 74.9192 28.1987 75.3621 28.1987Z" fill="black"/>
<path d="M69.1533 29.3997V22.238H70.389V29.3997H69.1533ZM69.1533 21.0953V19.5009H70.389V21.0953H69.1533Z" fill="black"/>
<path d="M59.7163 29.3997V19.5009H62.9584C63.9593 19.5009 64.8318 19.7046 65.5759 20.1121C66.32 20.5195 66.8958 21.0953 67.3032 21.8394C67.7107 22.5746 67.9144 23.4427 67.9144 24.4437C67.9144 25.4358 67.7107 26.3038 67.3032 27.0479C66.8958 27.792 66.32 28.3722 65.5759 28.7885C64.8318 29.196 63.9593 29.3997 62.9584 29.3997H59.7163ZM61.0184 28.2039H62.9716C63.7069 28.2039 64.3402 28.0489 64.8717 27.7389C65.412 27.4288 65.8284 26.9948 66.1207 26.4367C66.413 25.8698 66.5592 25.2054 66.5592 24.4437C66.5592 23.673 66.4086 23.0086 66.1074 22.4506C65.8151 21.8925 65.3988 21.4629 64.8584 21.1617C64.3269 20.8517 63.698 20.6967 62.9716 20.6967H61.0184V28.2039Z" fill="black"/>
<defs>
<linearGradient id="paint0_linear_1564_407" x1="0.00146484" y1="16.3216" x2="50.566" y2="13.6295" gradientUnits="userSpaceOnUse">
<stop stop-color="#7A3DF0"/>
<stop offset="0.375" stop-color="#C236A7"/>
<stop offset="0.667597" stop-color="#F43B3B"/>
<stop offset="0.841424" stop-color="#F85A29"/>
<stop offset="1" stop-color="#F98F1D"/>
</linearGradient>
</defs>
</svg>
