<svg width="24" height="25" viewBox="0 0 24 25" fill="none" xmlns="http://www.w3.org/2000/svg">
<path d="M12.0002 9.25249C10.2053 9.25249 8.75018 10.7076 8.75018 12.5025C8.75018 14.2974 10.2053 15.7525 12.0002 15.7525C13.7951 15.7525 15.2502 14.2974 15.2502 12.5025C15.2502 10.7076 13.7951 9.25249 12.0002 9.25249Z" fill="#3D3D3D"/>
<path fill-rule="evenodd" clip-rule="evenodd" d="M6.76972 3.58396C10.2178 3.19858 13.7825 3.19858 17.2307 3.58396C19.1291 3.79613 20.6603 5.29191 20.8831 7.19696C21.2954 10.722 21.2954 14.283 20.8831 17.808C20.6603 19.7131 19.1291 21.2088 17.2307 21.421C13.7825 21.8064 10.2178 21.8064 6.76972 21.421C4.87132 21.2088 3.34013 19.7131 3.11732 17.808C2.70504 14.283 2.70504 10.722 3.11732 7.19696C3.34013 5.29191 4.87132 3.79613 6.76972 3.58396ZM17.0002 6.50249C16.4479 6.50249 16.0002 6.9502 16.0002 7.50249C16.0002 8.05477 16.4479 8.50249 17.0002 8.50249C17.5525 8.50249 18.0002 8.05477 18.0002 7.50249C18.0002 6.9502 17.5525 6.50249 17.0002 6.50249ZM7.25018 12.5025C7.25018 9.87913 9.37683 7.75249 12.0002 7.75249C14.6235 7.75249 16.7502 9.87913 16.7502 12.5025C16.7502 15.1258 14.6235 17.2525 12.0002 17.2525C9.37683 17.2525 7.25018 15.1258 7.25018 12.5025Z" fill="#3D3D3D"/>
</svg>
