<svg width="24" height="25" viewBox="0 0 24 25" fill="none" xmlns="http://www.w3.org/2000/svg">
<path d="M4.75 2.37744C3.57639 2.37744 2.625 3.32884 2.625 4.50244C2.625 5.67605 3.57639 6.62744 4.75 6.62744C5.9236 6.62744 6.875 5.67605 6.875 4.50244C6.875 3.32884 5.9236 2.37744 4.75 2.37744Z" fill="#3D3D3D"/>
<path d="M2.75 8.37744C2.68096 8.37744 2.625 8.43341 2.625 8.50244V21.5024C2.625 21.5715 2.68096 21.6274 2.75 21.6274H6.75C6.81904 21.6274 6.875 21.5715 6.875 21.5024V8.50244C6.875 8.43341 6.81904 8.37744 6.75 8.37744H2.75Z" fill="#3D3D3D"/>
<path d="M9.25 8.37744C9.18096 8.37744 9.125 8.43341 9.125 8.50244V21.5024C9.125 21.5715 9.18096 21.6274 9.25 21.6274H13.25C13.319 21.6274 13.375 21.5715 13.375 21.5024V14.5024C13.375 14.0052 13.5725 13.5282 13.9242 13.1766C14.2758 12.825 14.7527 12.6274 15.25 12.6274C15.7473 12.6274 16.2242 12.825 16.5758 13.1766C16.9275 13.5282 17.125 14.0052 17.125 14.5024V21.5024C17.125 21.5715 17.181 21.6274 17.25 21.6274H21.25C21.319 21.6274 21.375 21.5715 21.375 21.5024V12.8827C21.375 10.4559 19.2644 8.55744 16.8498 8.77694C16.1052 8.84464 15.369 9.02975 14.6815 9.32439L13.375 9.8843V8.50244C13.375 8.43341 13.319 8.37744 13.25 8.37744H9.25Z" fill="#3D3D3D"/>
</svg>
