<svg width="164" height="34" viewBox="0 0 164 34" fill="none" xmlns="http://www.w3.org/2000/svg">
<path d="M35.8479 22.3555V6.58939H43.5508C45.5328 6.58939 47.0194 6.96478 48.0104 7.71555C49.0164 8.46631 49.5194 9.45733 49.5194 10.6886C49.5194 11.5144 49.3167 12.2352 48.9113 12.8508C48.5059 13.4514 47.9503 13.9169 47.2446 14.2472C46.5389 14.5776 45.728 14.7427 44.8121 14.7427L45.24 13.8193C46.2311 13.8193 47.1095 13.9845 47.8752 14.3148C48.641 14.6301 49.2341 15.1031 49.6546 15.7338C50.09 16.3644 50.3077 17.1377 50.3077 18.0536C50.3077 19.405 49.7747 20.4636 48.7086 21.2294C47.6425 21.9801 46.0734 22.3555 44.0013 22.3555H35.8479ZM39.4741 19.6077H43.731C44.677 19.6077 45.3902 19.4576 45.8707 19.1573C46.3662 18.8419 46.6139 18.3464 46.6139 17.6707C46.6139 17.0101 46.3662 16.5221 45.8707 16.2067C45.3902 15.8764 44.677 15.7112 43.731 15.7112H39.2039V13.0535H43.1004C43.9863 13.0535 44.6619 12.9034 45.1274 12.603C45.6079 12.2877 45.8482 11.8147 45.8482 11.1841C45.8482 10.5685 45.6079 10.1105 45.1274 9.81019C44.6619 9.49487 43.9863 9.33721 43.1004 9.33721H39.4741V19.6077ZM50.998 22.3555L58.0252 6.58939H61.6289L68.6786 22.3555H64.8497L59.0838 8.43628H60.5253L54.7369 22.3555H50.998ZM54.5116 18.9771L55.4801 16.2067H63.5884L64.5794 18.9771H54.5116ZM73.6703 12.9409H81.2606V15.7788H73.6703V12.9409ZM73.9406 19.4275H82.5218V22.3555H70.3144V6.58939H82.2291V9.51739H73.9406V19.4275ZM85.425 22.3555V6.58939H89.0738V19.3825H96.9794V22.3555H85.425ZM99.018 22.3555V6.58939H106.721C108.703 6.58939 110.189 6.96478 111.18 7.71555C112.187 8.46631 112.69 9.45733 112.69 10.6886C112.69 11.5144 112.487 12.2352 112.081 12.8508C111.676 13.4514 111.12 13.9169 110.415 14.2472C109.709 14.5776 108.898 14.7427 107.982 14.7427L108.41 13.8193C109.401 13.8193 110.28 13.9845 111.045 14.3148C111.811 14.6301 112.404 15.1031 112.825 15.7338C113.26 16.3644 113.478 17.1377 113.478 18.0536C113.478 19.405 112.945 20.4636 111.879 21.2294C110.813 21.9801 109.244 22.3555 107.171 22.3555H99.018ZM102.644 19.6077H106.901C107.847 19.6077 108.56 19.4576 109.041 19.1573C109.536 18.8419 109.784 18.3464 109.784 17.6707C109.784 17.0101 109.536 16.5221 109.041 16.2067C108.56 15.8764 107.847 15.7112 106.901 15.7112H102.374V13.0535H106.27C107.156 13.0535 107.832 12.9034 108.298 12.603C108.778 12.2877 109.018 11.8147 109.018 11.1841C109.018 10.5685 108.778 10.1105 108.298 9.81019C107.832 9.49487 107.156 9.33721 106.27 9.33721H102.644V19.6077ZM119.596 12.9409H127.186V15.7788H119.596V12.9409ZM119.866 19.4275H128.448V22.3555H116.24V6.58939H128.155V9.51739H119.866V19.4275ZM131.351 22.3555V6.58939H138.175C139.587 6.58939 140.803 6.82213 141.824 7.28761C142.845 7.73807 143.634 8.39124 144.189 9.24711C144.745 10.103 145.022 11.124 145.022 12.3102C145.022 13.4814 144.745 14.495 144.189 15.3509C143.634 16.1917 142.845 16.8374 141.824 17.2878C140.803 17.7383 139.587 17.9635 138.175 17.9635H133.378L135 16.3644V22.3555H131.351ZM141.374 22.3555L137.432 16.6347H141.329L145.315 22.3555H141.374ZM135 16.7698L133.378 15.0581H137.973C139.099 15.0581 139.94 14.8178 140.495 14.3373C141.051 13.8418 141.329 13.1661 141.329 12.3102C141.329 11.4394 141.051 10.7637 140.495 10.2832C139.94 9.80268 139.099 9.56244 137.973 9.56244H133.378L135 7.82816V16.7698ZM155.526 22.6258C154.28 22.6258 153.131 22.4306 152.08 22.0402C151.044 21.6348 150.136 21.0642 149.355 20.3285C148.589 19.5927 147.988 18.7293 147.553 17.7383C147.133 16.7473 146.922 15.6587 146.922 14.4725C146.922 13.2862 147.133 12.1976 147.553 11.2066C147.988 10.2156 148.597 9.35222 149.377 8.61647C150.158 7.88071 151.074 7.31764 152.125 6.92724C153.176 6.52182 154.332 6.31912 155.594 6.31912C156.99 6.31912 158.244 6.55186 159.355 7.01733C160.481 7.48281 161.427 8.1585 162.193 9.04441L159.851 11.2066C159.28 10.606 158.657 10.1631 157.981 9.87776C157.305 9.57745 156.57 9.4273 155.774 9.4273C155.008 9.4273 154.31 9.54742 153.679 9.78767C153.049 10.0279 152.5 10.3733 152.035 10.8237C151.585 11.2742 151.232 11.8072 150.976 12.4229C150.736 13.0385 150.616 13.7217 150.616 14.4725C150.616 15.2082 150.736 15.8839 150.976 16.4995C151.232 17.1152 151.585 17.6557 152.035 18.1212C152.5 18.5717 153.041 18.917 153.657 19.1573C154.287 19.3975 154.978 19.5176 155.729 19.5176C156.45 19.5176 157.148 19.405 157.823 19.1798C158.514 18.9395 159.182 18.5416 159.828 17.9861L161.9 20.6213C161.044 21.2669 160.046 21.7624 158.905 22.1078C157.778 22.4531 156.652 22.6258 155.526 22.6258ZM158.567 20.1483V14.2247H161.9V20.6213L158.567 20.1483Z" fill="white"/>
<path d="M35.8513 31.6276V26.3678H36.2345V31.6276H35.8513ZM38.7887 31.6576C38.443 31.6576 38.1775 31.5625 37.9922 31.3721C37.8118 31.1818 37.7217 30.9213 37.7217 30.5907V26.8487H38.0974V30.5531C38.0974 30.8035 38.16 30.9964 38.2852 31.1317C38.4105 31.2669 38.5908 31.3345 38.8262 31.3345C39.0717 31.3345 39.2746 31.2619 39.4349 31.1166L39.5927 31.3796C39.4925 31.4748 39.3697 31.5449 39.2245 31.59C39.0842 31.6351 38.9389 31.6576 38.7887 31.6576ZM37.0003 28.0284V27.7053H39.3447V28.0284H37.0003ZM39.9792 27.7053L40.2722 26.4354L40.3098 26.6533C40.2146 26.6533 40.1344 26.6233 40.0693 26.5632C40.0092 26.503 39.9792 26.4279 39.9792 26.3377C39.9792 26.2476 40.0092 26.1724 40.0693 26.1123C40.1344 26.0522 40.2096 26.0222 40.2947 26.0222C40.3899 26.0222 40.4651 26.0547 40.5202 26.1198C40.5803 26.1799 40.6103 26.2526 40.6103 26.3377C40.6103 26.3728 40.6078 26.4079 40.6028 26.4429C40.5978 26.478 40.5903 26.5131 40.5803 26.5481C40.5703 26.5832 40.5577 26.6283 40.5427 26.6834L40.2497 27.7053H39.9792ZM42.418 31.6576C42.0924 31.6576 41.7868 31.61 41.5013 31.5149C41.2207 31.4197 41.0028 31.2995 40.8475 31.1542L41.0204 30.8536C41.1706 30.9839 41.371 31.0966 41.6215 31.1918C41.872 31.2819 42.1425 31.327 42.433 31.327C42.8438 31.327 43.1393 31.2594 43.3196 31.1241C43.5 30.9889 43.5901 30.8111 43.5901 30.5907C43.5901 30.4304 43.5426 30.3051 43.4474 30.215C43.3572 30.1198 43.2345 30.0471 43.0792 29.997C42.9239 29.947 42.7536 29.9069 42.5682 29.8768C42.3829 29.8418 42.1976 29.8042 42.0122 29.7641C41.8269 29.724 41.6566 29.6664 41.5013 29.5913C41.346 29.5162 41.2207 29.4135 41.1256 29.2832C41.0354 29.148 40.9903 28.9701 40.9903 28.7497C40.9903 28.5494 41.0454 28.369 41.1556 28.2087C41.2658 28.0484 41.4311 27.9207 41.6515 27.8255C41.872 27.7253 42.1475 27.6752 42.4781 27.6752C42.7235 27.6752 42.969 27.7103 43.2144 27.7804C43.4649 27.8506 43.6678 27.9432 43.8231 28.0584L43.6503 28.359C43.485 28.2338 43.2996 28.1436 43.0942 28.0885C42.8888 28.0334 42.681 28.0058 42.4706 28.0058C42.0899 28.0058 41.8093 28.076 41.629 28.2162C41.4537 28.3565 41.366 28.5318 41.366 28.7422C41.366 28.9075 41.4111 29.0403 41.5013 29.1405C41.5964 29.2356 41.7217 29.3108 41.877 29.3659C42.0322 29.416 42.2026 29.4585 42.3879 29.4936C42.5733 29.5237 42.7586 29.5587 42.9439 29.5988C43.1293 29.6389 43.2996 29.6965 43.4549 29.7716C43.6102 29.8418 43.7329 29.9419 43.8231 30.0722C43.9183 30.1974 43.9658 30.3677 43.9658 30.5831C43.9658 30.7985 43.9057 30.9864 43.7855 31.1467C43.6703 31.307 43.4975 31.4322 43.267 31.5224C43.0366 31.6126 42.7536 31.6576 42.418 31.6576ZM46.4633 31.6276V26.3678H46.7864L49.2285 30.5831H49.0556L51.4902 26.3678H51.8057L51.8133 31.6276H51.4376L51.43 26.9464H51.5352L49.2285 30.9288H49.0406L46.7263 26.9464H46.839V31.6276H46.4633ZM54.7592 31.6576C54.3835 31.6576 54.0478 31.5725 53.7523 31.4022C53.4617 31.2318 53.2288 30.9964 53.0535 30.6958C52.8832 30.3953 52.798 30.0521 52.798 29.6664C52.798 29.2757 52.8832 28.9326 53.0535 28.637C53.2288 28.3365 53.4617 28.101 53.7523 27.9307C54.0478 27.7604 54.3835 27.6752 54.7592 27.6752C55.1349 27.6752 55.4705 27.7604 55.766 27.9307C56.0616 28.101 56.2945 28.3365 56.4648 28.637C56.6351 28.9326 56.7203 29.2757 56.7203 29.6664C56.7203 30.0521 56.6351 30.3953 56.4648 30.6958C56.2945 30.9964 56.0616 31.2318 55.766 31.4022C55.4705 31.5725 55.1349 31.6576 54.7592 31.6576ZM54.7592 31.3195C55.0597 31.3195 55.3302 31.2519 55.5707 31.1166C55.8111 30.9764 55.999 30.781 56.1342 30.5305C56.2695 30.2801 56.3371 29.992 56.3371 29.6664C56.3371 29.3358 56.2695 29.0478 56.1342 28.8023C55.999 28.5519 55.8111 28.359 55.5707 28.2237C55.3302 28.0835 55.0597 28.0134 54.7592 28.0134C54.4586 28.0134 54.1881 28.0835 53.9476 28.2237C53.7122 28.359 53.5244 28.5519 53.3841 28.8023C53.2488 29.0478 53.1812 29.3358 53.1812 29.6664C53.1812 29.992 53.2488 30.2801 53.3841 30.5305C53.5244 30.781 53.7122 30.9764 53.9476 31.1166C54.1881 31.2519 54.4586 31.3195 54.7592 31.3195ZM57.5853 31.6276V27.7053H57.946V28.7798L57.9084 28.6596C58.0186 28.344 58.2039 28.101 58.4644 27.9307C58.7249 27.7604 59.0505 27.6752 59.4412 27.6752V28.0434C59.4262 28.0434 59.4112 28.0434 59.3962 28.0434C59.3811 28.0384 59.3661 28.0359 59.3511 28.0359C58.9153 28.0359 58.5746 28.1737 58.3292 28.4492C58.0837 28.7197 57.961 29.0979 57.961 29.5838V31.6276H57.5853ZM61.7321 31.6576C61.3364 31.6576 60.9857 31.5725 60.6802 31.4022C60.3796 31.2318 60.1417 30.9964 59.9663 30.6958C59.796 30.3953 59.7109 30.0521 59.7109 29.6664C59.7109 29.2757 59.791 28.9326 59.9513 28.637C60.1166 28.3365 60.342 28.101 60.6276 27.9307C60.9131 27.7604 61.2337 27.6752 61.5894 27.6752C61.945 27.6752 62.2631 27.7579 62.5436 27.9232C62.8292 28.0885 63.0521 28.3214 63.2124 28.622C63.3777 28.9175 63.4603 29.2607 63.4603 29.6514C63.4603 29.6664 63.4578 29.684 63.4528 29.704C63.4528 29.719 63.4528 29.7366 63.4528 29.7566H59.9889V29.4636H63.25L63.0997 29.6063C63.1047 29.3008 63.0396 29.0277 62.9043 28.7873C62.7741 28.5418 62.5962 28.3515 62.3708 28.2162C62.1454 28.076 61.8849 28.0058 61.5894 28.0058C61.2988 28.0058 61.0383 28.076 60.8079 28.2162C60.5825 28.3515 60.4047 28.5418 60.2744 28.7873C60.1442 29.0277 60.0791 29.3033 60.0791 29.6138V29.6815C60.0791 30.0021 60.1492 30.2876 60.2894 30.5381C60.4347 30.7835 60.6326 30.9764 60.883 31.1166C61.1335 31.2519 61.419 31.3195 61.7396 31.3195C61.9901 31.3195 62.223 31.2744 62.4384 31.1843C62.6589 31.0941 62.8442 30.9563 62.9945 30.771L63.2124 31.0189C63.0421 31.2293 62.8267 31.3896 62.5662 31.4998C62.3107 31.605 62.0327 31.6576 61.7321 31.6576ZM67.0784 31.6276V26.7134H65.1849V26.3678H69.3552V26.7134H67.4617V31.6276H67.0784ZM71.8008 27.6752C72.1214 27.6752 72.3994 27.7378 72.6349 27.8631C72.8753 27.9833 73.0606 28.1686 73.1909 28.4191C73.3261 28.6646 73.3938 28.9701 73.3938 29.3358V31.6276H73.0181V29.3659C73.0181 28.9251 72.9054 28.5894 72.6799 28.359C72.4595 28.1286 72.149 28.0134 71.7482 28.0134C71.4426 28.0134 71.1771 28.076 70.9517 28.2012C70.7263 28.3264 70.5535 28.5018 70.4333 28.7272C70.318 28.9526 70.2604 29.2231 70.2604 29.5387V31.6276H69.8847V26.0522H70.2604V28.7948L70.1928 28.6746C70.313 28.364 70.5109 28.1211 70.7864 27.9457C71.0619 27.7654 71.4001 27.6752 71.8008 27.6752ZM77.1121 31.6276V30.7334L77.097 30.5982V29.1254C77.097 28.7597 76.9969 28.4817 76.7965 28.2914C76.6011 28.101 76.3131 28.0058 75.9324 28.0058C75.6619 28.0058 75.4089 28.0534 75.1735 28.1486C74.943 28.2388 74.7452 28.3565 74.5799 28.5018L74.392 28.2313C74.5874 28.0559 74.8228 27.9207 75.0983 27.8255C75.3738 27.7253 75.6619 27.6752 75.9624 27.6752C76.4483 27.6752 76.8215 27.798 77.082 28.0434C77.3425 28.2889 77.4727 28.6545 77.4727 29.1405V31.6276H77.1121ZM75.6994 31.6576C75.4089 31.6576 75.1559 31.6126 74.9405 31.5224C74.7301 31.4272 74.5673 31.2945 74.4521 31.1241C74.3419 30.9538 74.2868 30.7585 74.2868 30.5381C74.2868 30.3377 74.3319 30.1573 74.4221 29.997C74.5172 29.8317 74.6725 29.699 74.8879 29.5988C75.1033 29.4936 75.3914 29.441 75.752 29.441H77.1947V29.7341H75.7596C75.3538 29.7341 75.0683 29.8092 74.903 29.9595C74.7427 30.1098 74.6625 30.2976 74.6625 30.523C74.6625 30.7735 74.7577 30.9739 74.948 31.1241C75.1384 31.2744 75.4064 31.3496 75.752 31.3496C76.0827 31.3496 76.3607 31.2744 76.5861 31.1241C76.8165 30.9739 76.9868 30.756 77.097 30.4704L77.2022 30.7259C77.097 31.0114 76.9167 31.2394 76.6612 31.4097C76.4108 31.575 76.0902 31.6576 75.6994 31.6576ZM80.6362 27.6752C80.9568 27.6752 81.2348 27.7378 81.4702 27.8631C81.7107 27.9833 81.896 28.1686 82.0263 28.4191C82.1615 28.6646 82.2292 28.9701 82.2292 29.3358V31.6276H81.8535V29.3659C81.8535 28.9251 81.7407 28.5894 81.5153 28.359C81.2949 28.1286 80.9843 28.0134 80.5836 28.0134C80.278 28.0134 80.0125 28.076 79.7871 28.2012C79.5617 28.3264 79.3889 28.5018 79.2686 28.7272C79.1534 28.9526 79.0958 29.2231 79.0958 29.5387V31.6276H78.7201V27.7053H79.0808V28.7948L79.0282 28.6746C79.1484 28.364 79.3463 28.1211 79.6218 27.9457C79.8973 27.7654 80.2354 27.6752 80.6362 27.6752ZM85.8711 31.6276L84.3833 27.7053H84.744L86.1266 31.4172H85.9688L87.3889 27.7053H87.712L89.1246 31.4172H88.9593L90.3644 27.7053H90.7101L89.2223 31.6276H88.8692L87.4866 28.066H87.6068L86.2167 31.6276H85.8711ZM93.1995 27.6752C93.5201 27.6752 93.7981 27.7378 94.0336 27.8631C94.274 27.9833 94.4594 28.1686 94.5896 28.4191C94.7248 28.6646 94.7925 28.9701 94.7925 29.3358V31.6276H94.4168V29.3659C94.4168 28.9251 94.3041 28.5894 94.0786 28.359C93.8582 28.1286 93.5477 28.0134 93.1469 28.0134C92.8413 28.0134 92.5758 28.076 92.3504 28.2012C92.125 28.3264 91.9522 28.5018 91.832 28.7272C91.7167 28.9526 91.6591 29.2231 91.6591 29.5387V31.6276H91.2834V26.0522H91.6591V28.7948L91.5915 28.6746C91.7117 28.364 91.9096 28.1211 92.1851 27.9457C92.4606 27.7654 92.7988 27.6752 93.1995 27.6752ZM98.5108 31.6276V30.7334L98.4957 30.5982V29.1254C98.4957 28.7597 98.3956 28.4817 98.1952 28.2914C97.9998 28.101 97.7118 28.0058 97.3311 28.0058C97.0606 28.0058 96.8076 28.0534 96.5722 28.1486C96.3417 28.2388 96.1439 28.3565 95.9786 28.5018L95.7907 28.2313C95.9861 28.0559 96.2215 27.9207 96.497 27.8255C96.7725 27.7253 97.0606 27.6752 97.3611 27.6752C97.847 27.6752 98.2202 27.798 98.4807 28.0434C98.7412 28.2889 98.8714 28.6545 98.8714 29.1405V31.6276H98.5108ZM97.0981 31.6576C96.8076 31.6576 96.5546 31.6126 96.3392 31.5224C96.1288 31.4272 95.966 31.2945 95.8508 31.1241C95.7406 30.9538 95.6855 30.7585 95.6855 30.5381C95.6855 30.3377 95.7306 30.1573 95.8208 29.997C95.9159 29.8317 96.0712 29.699 96.2866 29.5988C96.502 29.4936 96.7901 29.441 97.1507 29.441H98.5934V29.7341H97.1583C96.7525 29.7341 96.467 29.8092 96.3017 29.9595C96.1414 30.1098 96.0612 30.2976 96.0612 30.523C96.0612 30.7735 96.1564 30.9739 96.3468 31.1241C96.5371 31.2744 96.8051 31.3496 97.1507 31.3496C97.4814 31.3496 97.7594 31.2744 97.9848 31.1241C98.2152 30.9739 98.3855 30.756 98.4957 30.4704L98.6009 30.7259C98.4957 31.0114 98.3154 31.2394 98.0599 31.4097C97.8095 31.575 97.4889 31.6576 97.0981 31.6576ZM101.261 31.6576C100.915 31.6576 100.65 31.5625 100.464 31.3721C100.284 31.1818 100.194 30.9213 100.194 30.5907V26.8487H100.57V30.5531C100.57 30.8035 100.632 30.9964 100.758 31.1317C100.883 31.2669 101.063 31.3345 101.299 31.3345C101.544 31.3345 101.747 31.2619 101.907 31.1166L102.065 31.3796C101.965 31.4748 101.842 31.5449 101.697 31.59C101.557 31.6351 101.411 31.6576 101.261 31.6576ZM99.4726 28.0284V27.7053H101.817V28.0284H99.4726ZM105.801 31.6276V29.719L105.892 29.967L103.683 26.3678H104.103L106.11 29.6364H105.899L107.905 26.3678H108.304L106.095 29.967L106.185 29.719V31.6276H105.801ZM109.922 31.6576C109.547 31.6576 109.211 31.5725 108.915 31.4022C108.625 31.2318 108.392 30.9964 108.217 30.6958C108.046 30.3953 107.961 30.0521 107.961 29.6664C107.961 29.2757 108.046 28.9326 108.217 28.637C108.392 28.3365 108.625 28.101 108.915 27.9307C109.211 27.7604 109.547 27.6752 109.922 27.6752C110.298 27.6752 110.634 27.7604 110.929 27.9307C111.225 28.101 111.458 28.3365 111.628 28.637C111.798 28.9326 111.883 29.2757 111.883 29.6664C111.883 30.0521 111.798 30.3953 111.628 30.6958C111.458 30.9964 111.225 31.2318 110.929 31.4022C110.634 31.5725 110.298 31.6576 109.922 31.6576ZM109.922 31.3195C110.223 31.3195 110.493 31.2519 110.734 31.1166C110.974 30.9764 111.162 30.781 111.297 30.5305C111.433 30.2801 111.5 29.992 111.5 29.6664C111.5 29.3358 111.433 29.0478 111.297 28.8023C111.162 28.5519 110.974 28.359 110.734 28.2237C110.493 28.0835 110.223 28.0134 109.922 28.0134C109.622 28.0134 109.351 28.0835 109.111 28.2237C108.875 28.359 108.688 28.5519 108.547 28.8023C108.412 29.0478 108.344 29.3358 108.344 29.6664C108.344 29.992 108.412 30.2801 108.547 30.5305C108.688 30.781 108.875 30.9764 109.111 31.1166C109.351 31.2519 109.622 31.3195 109.922 31.3195ZM114.341 31.6576C114.006 31.6576 113.715 31.5975 113.47 31.4773C113.224 31.3521 113.034 31.1667 112.899 30.9213C112.769 30.6708 112.703 30.3627 112.703 29.997V27.7053H113.079V29.967C113.079 30.4078 113.192 30.7434 113.417 30.9739C113.643 31.2043 113.961 31.3195 114.371 31.3195C114.667 31.3195 114.923 31.2569 115.138 31.1317C115.353 31.0064 115.519 30.8311 115.634 30.6057C115.749 30.3753 115.807 30.1047 115.807 29.7942V27.7053H116.182V31.6276H115.822V30.5381L115.874 30.6658C115.759 30.9714 115.566 31.2143 115.296 31.3946C115.03 31.57 114.712 31.6576 114.341 31.6576ZM117.474 31.6276V27.7053H117.835V28.7798L117.797 28.6596C117.908 28.344 118.093 28.101 118.353 27.9307C118.614 27.7604 118.94 27.6752 119.33 27.6752V28.0434C119.315 28.0434 119.3 28.0434 119.285 28.0434C119.27 28.0384 119.255 28.0359 119.24 28.0359C118.804 28.0359 118.464 28.1737 118.218 28.4492C117.973 28.7197 117.85 29.0979 117.85 29.5838V31.6276H117.474ZM121.88 31.6276V26.3678H124.075C124.641 26.3678 125.084 26.483 125.405 26.7134C125.725 26.9439 125.885 27.277 125.885 27.7128C125.885 27.9983 125.818 28.2388 125.683 28.4341C125.547 28.6295 125.359 28.7773 125.119 28.8775C124.884 28.9726 124.618 29.0202 124.323 29.0202L124.458 28.8699C124.818 28.8699 125.127 28.9225 125.382 29.0277C125.637 29.1329 125.83 29.2857 125.961 29.4861C126.096 29.6865 126.163 29.9369 126.163 30.2375C126.163 30.6783 126.003 31.0215 125.683 31.2669C125.362 31.5074 124.876 31.6276 124.225 31.6276H121.88ZM122.264 31.297H124.225C124.731 31.297 125.117 31.2118 125.382 31.0415C125.647 30.8662 125.78 30.5881 125.78 30.2074C125.78 29.8317 125.647 29.5587 125.382 29.3884C125.117 29.2131 124.731 29.1254 124.225 29.1254H122.219V28.7948H124.06C124.515 28.7948 124.869 28.7071 125.119 28.5318C125.369 28.3565 125.495 28.0935 125.495 27.7429C125.495 27.3972 125.369 27.1367 125.119 26.9614C124.869 26.7861 124.515 26.6984 124.06 26.6984H122.264V31.297ZM128.643 31.6576C128.267 31.6576 127.931 31.5725 127.636 31.4022C127.345 31.2318 127.112 30.9964 126.937 30.6958C126.767 30.3953 126.682 30.0521 126.682 29.6664C126.682 29.2757 126.767 28.9326 126.937 28.637C127.112 28.3365 127.345 28.101 127.636 27.9307C127.931 27.7604 128.267 27.6752 128.643 27.6752C129.018 27.6752 129.354 27.7604 129.65 27.9307C129.945 28.101 130.178 28.3365 130.348 28.637C130.519 28.9326 130.604 29.2757 130.604 29.6664C130.604 30.0521 130.519 30.3953 130.348 30.6958C130.178 30.9964 129.945 31.2318 129.65 31.4022C129.354 31.5725 129.018 31.6576 128.643 31.6576ZM128.643 31.3195C128.943 31.3195 129.214 31.2519 129.454 31.1166C129.695 30.9764 129.883 30.781 130.018 30.5305C130.153 30.2801 130.221 29.992 130.221 29.6664C130.221 29.3358 130.153 29.0478 130.018 28.8023C129.883 28.5519 129.695 28.359 129.454 28.2237C129.214 28.0835 128.943 28.0134 128.643 28.0134C128.342 28.0134 128.072 28.0835 127.831 28.2237C127.596 28.359 127.408 28.5519 127.268 28.8023C127.132 29.0478 127.065 29.3358 127.065 29.6664C127.065 29.992 127.132 30.2801 127.268 30.5305C127.408 30.781 127.596 30.9764 127.831 31.1166C128.072 31.2519 128.342 31.3195 128.643 31.3195ZM132.979 31.6576C132.613 31.6576 132.283 31.575 131.987 31.4097C131.697 31.2394 131.466 31.0039 131.296 30.7034C131.126 30.4028 131.041 30.0572 131.041 29.6664C131.041 29.2707 131.126 28.9251 131.296 28.6295C131.466 28.3289 131.697 28.096 131.987 27.9307C132.283 27.7604 132.613 27.6752 132.979 27.6752C133.325 27.6752 133.635 27.7554 133.911 27.9157C134.191 28.076 134.412 28.3039 134.572 28.5994C134.737 28.895 134.82 29.2507 134.82 29.6664C134.82 30.0722 134.74 30.4253 134.58 30.7259C134.419 31.0265 134.199 31.2569 133.918 31.4172C133.643 31.5775 133.33 31.6576 132.979 31.6576ZM133.002 31.3195C133.302 31.3195 133.57 31.2519 133.806 31.1166C134.046 30.9764 134.234 30.781 134.369 30.5305C134.51 30.2801 134.58 29.992 134.58 29.6664C134.58 29.3358 134.51 29.0478 134.369 28.8023C134.234 28.5519 134.046 28.359 133.806 28.2237C133.57 28.0835 133.302 28.0134 133.002 28.0134C132.701 28.0134 132.431 28.0835 132.19 28.2237C131.955 28.359 131.767 28.5519 131.627 28.8023C131.491 29.0478 131.424 29.3358 131.424 29.6664C131.424 29.992 131.491 30.2801 131.627 30.5305C131.767 30.781 131.955 30.9764 132.19 31.1166C132.431 31.2519 132.701 31.3195 133.002 31.3195ZM134.587 31.6276V30.3427L134.655 29.6589L134.58 28.9751V26.0522H134.955V31.6276H134.587ZM136.149 33.1153C135.968 33.1153 135.798 33.0853 135.638 33.0252C135.482 32.9651 135.35 32.8774 135.239 32.7622L135.427 32.4767C135.527 32.5819 135.635 32.6595 135.75 32.7096C135.871 32.7597 136.006 32.7847 136.156 32.7847C136.336 32.7847 136.494 32.7346 136.63 32.6345C136.77 32.5343 136.9 32.3514 137.02 32.0859L137.291 31.4848L137.343 31.4172L139.004 27.7053H139.387L137.373 32.1611C137.268 32.4015 137.153 32.5894 137.028 32.7246C136.908 32.8649 136.775 32.9651 136.63 33.0252C136.484 33.0853 136.324 33.1153 136.149 33.1153ZM137.283 31.7253L135.465 27.7053H135.863L137.516 31.3946L137.283 31.7253ZM143.453 27.6752C143.774 27.6752 144.052 27.7378 144.287 27.8631C144.528 27.9833 144.713 28.1686 144.843 28.4191C144.979 28.6646 145.046 28.9701 145.046 29.3358V31.6276H144.671V29.3659C144.671 28.9251 144.558 28.5894 144.333 28.359C144.112 28.1286 143.802 28.0134 143.401 28.0134C143.095 28.0134 142.83 28.076 142.604 28.2012C142.379 28.3264 142.206 28.5018 142.086 28.7272C141.971 28.9526 141.913 29.2231 141.913 29.5387V31.6276H141.537V27.7053H141.898V28.7948L141.845 28.6746C141.966 28.364 142.163 28.1211 142.439 27.9457C142.714 27.7654 143.053 27.6752 143.453 27.6752ZM147.886 31.6576C147.49 31.6576 147.139 31.5725 146.834 31.4022C146.533 31.2318 146.295 30.9964 146.12 30.6958C145.949 30.3953 145.864 30.0521 145.864 29.6664C145.864 29.2757 145.944 28.9326 146.105 28.637C146.27 28.3365 146.495 28.101 146.781 27.9307C147.066 27.7604 147.387 27.6752 147.743 27.6752C148.098 27.6752 148.416 27.7579 148.697 27.9232C148.983 28.0885 149.205 28.3214 149.366 28.622C149.531 28.9175 149.614 29.2607 149.614 29.6514C149.614 29.6664 149.611 29.684 149.606 29.704C149.606 29.719 149.606 29.7366 149.606 29.7566H146.142V29.4636H149.403L149.253 29.6063C149.258 29.3008 149.193 29.0277 149.058 28.7873C148.927 28.5418 148.75 28.3515 148.524 28.2162C148.299 28.076 148.038 28.0058 147.743 28.0058C147.452 28.0058 147.192 28.076 146.961 28.2162C146.736 28.3515 146.558 28.5418 146.428 28.7873C146.298 29.0277 146.232 29.3033 146.232 29.6138V29.6815C146.232 30.0021 146.303 30.2876 146.443 30.5381C146.588 30.7835 146.786 30.9764 147.036 31.1166C147.287 31.2519 147.572 31.3195 147.893 31.3195C148.143 31.3195 148.376 31.2744 148.592 31.1843C148.812 31.0941 148.998 30.9563 149.148 30.771L149.366 31.0189C149.195 31.2293 148.98 31.3896 148.72 31.4998C148.464 31.605 148.186 31.6576 147.886 31.6576ZM152.068 31.6576C151.673 31.6576 151.322 31.5725 151.016 31.4022C150.716 31.2318 150.478 30.9964 150.303 30.6958C150.132 30.3953 150.047 30.0521 150.047 29.6664C150.047 29.2757 150.127 28.9326 150.288 28.637C150.453 28.3365 150.678 28.101 150.964 27.9307C151.249 27.7604 151.57 27.6752 151.926 27.6752C152.281 27.6752 152.599 27.7579 152.88 27.9232C153.165 28.0885 153.388 28.3214 153.549 28.622C153.714 28.9175 153.797 29.2607 153.797 29.6514C153.797 29.6664 153.794 29.684 153.789 29.704C153.789 29.719 153.789 29.7366 153.789 29.7566H150.325V29.4636H153.586L153.436 29.6063C153.441 29.3008 153.376 29.0277 153.241 28.7873C153.11 28.5418 152.932 28.3515 152.707 28.2162C152.482 28.076 152.221 28.0058 151.926 28.0058C151.635 28.0058 151.375 28.076 151.144 28.2162C150.919 28.3515 150.741 28.5418 150.611 28.7873C150.48 29.0277 150.415 29.3033 150.415 29.6138V29.6815C150.415 30.0021 150.485 30.2876 150.626 30.5381C150.771 30.7835 150.969 30.9764 151.219 31.1166C151.47 31.2519 151.755 31.3195 152.076 31.3195C152.326 31.3195 152.559 31.2744 152.775 31.1843C152.995 31.0941 153.18 30.9563 153.331 30.771L153.549 31.0189C153.378 31.2293 153.163 31.3896 152.902 31.4998C152.647 31.605 152.369 31.6576 152.068 31.6576ZM156.169 31.6576C155.803 31.6576 155.472 31.575 155.177 31.4097C154.886 31.2394 154.656 31.0039 154.485 30.7034C154.315 30.4028 154.23 30.0572 154.23 29.6664C154.23 29.2707 154.315 28.9251 154.485 28.6295C154.656 28.3289 154.886 28.096 155.177 27.9307C155.472 27.7604 155.803 27.6752 156.169 27.6752C156.514 27.6752 156.825 27.7554 157.1 27.9157C157.381 28.076 157.601 28.3039 157.762 28.5994C157.927 28.895 158.01 29.2507 158.01 29.6664C158.01 30.0722 157.929 30.4253 157.769 30.7259C157.609 31.0265 157.388 31.2569 157.108 31.4172C156.832 31.5775 156.519 31.6576 156.169 31.6576ZM156.191 31.3195C156.492 31.3195 156.76 31.2519 156.995 31.1166C157.236 30.9764 157.423 30.781 157.559 30.5305C157.699 30.2801 157.769 29.992 157.769 29.6664C157.769 29.3358 157.699 29.0478 157.559 28.8023C157.423 28.5519 157.236 28.359 156.995 28.2237C156.76 28.0835 156.492 28.0134 156.191 28.0134C155.891 28.0134 155.62 28.0835 155.38 28.2237C155.144 28.359 154.956 28.5519 154.816 28.8023C154.681 29.0478 154.613 29.3358 154.613 29.6664C154.613 29.992 154.681 30.2801 154.816 30.5305C154.956 30.781 155.144 30.9764 155.38 31.1166C155.62 31.2519 155.891 31.3195 156.191 31.3195ZM157.777 31.6276V30.3427L157.844 29.6589L157.769 28.9751V26.0522H158.145V31.6276H157.777ZM160.42 31.6576C160.094 31.6576 159.789 31.61 159.503 31.5149C159.223 31.4197 159.005 31.2995 158.85 31.1542L159.022 30.8536C159.173 30.9839 159.373 31.0966 159.624 31.1918C159.874 31.2819 160.145 31.327 160.435 31.327C160.846 31.327 161.141 31.2594 161.322 31.1241C161.502 30.9889 161.592 30.8111 161.592 30.5907C161.592 30.4304 161.545 30.3051 161.449 30.215C161.359 30.1198 161.237 30.0471 161.081 29.997C160.926 29.947 160.756 29.9069 160.57 29.8768C160.385 29.8418 160.2 29.8042 160.014 29.7641C159.829 29.724 159.659 29.6664 159.503 29.5913C159.348 29.5162 159.223 29.4135 159.128 29.2832C159.037 29.148 158.992 28.9701 158.992 28.7497C158.992 28.5494 159.048 28.369 159.158 28.2087C159.268 28.0484 159.433 27.9207 159.654 27.8255C159.874 27.7253 160.15 27.6752 160.48 27.6752C160.726 27.6752 160.971 27.7103 161.217 27.7804C161.467 27.8506 161.67 27.9432 161.825 28.0584L161.652 28.359C161.487 28.2338 161.302 28.1436 161.096 28.0885C160.891 28.0334 160.683 28.0058 160.473 28.0058C160.092 28.0058 159.811 28.076 159.631 28.2162C159.456 28.3565 159.368 28.5318 159.368 28.7422C159.368 28.9075 159.413 29.0403 159.503 29.1405C159.599 29.2356 159.724 29.3108 159.879 29.3659C160.034 29.416 160.205 29.4585 160.39 29.4936C160.575 29.5237 160.761 29.5587 160.946 29.5988C161.131 29.6389 161.302 29.6965 161.457 29.7716C161.612 29.8418 161.735 29.9419 161.825 30.0722C161.92 30.1974 161.968 30.3677 161.968 30.5831C161.968 30.7985 161.908 30.9864 161.788 31.1467C161.672 31.307 161.5 31.4322 161.269 31.5224C161.039 31.6126 160.756 31.6576 160.42 31.6576Z" fill="white"/>
<path d="M12.8835 32.4105C13.2226 32.4169 13.4946 32.6989 13.4882 33.0387C13.4818 33.3784 13.2003 33.6508 12.8611 33.6444C11.1911 33.6091 9.52427 33.2566 7.96942 32.5932C6.46576 31.9522 5.06127 31.0228 3.84234 29.8018C1.27971 27.2347 0 23.8569 0 20.4758C0 17.0947 1.27971 13.7169 3.83914 11.153L12.714 2.26607C12.9539 2.02571 13.3474 2.02571 13.5874 2.26607L22.459 11.153C25.0184 13.7169 26.2981 17.0979 26.2981 20.4758C26.2981 27.4142 19.2917 36.1922 12.1669 29.8499C11.7798 29.5069 11.4438 29.164 11.1527 28.8243C10.4297 28.6545 9.72263 28.3885 9.05398 28.0295C8.34054 27.645 7.67189 27.1514 7.07682 26.5553C5.40999 24.8856 4.57818 22.6807 4.57818 20.4758C4.57818 18.2709 5.40999 16.066 7.07682 14.3963L12.7076 8.75581C12.9475 8.51545 13.341 8.51545 13.581 8.75581L19.2117 14.3963C20.8657 16.0532 21.6976 18.242 21.7072 20.4373C21.7136 21.9468 21.3296 23.4595 20.5554 24.7991C19.7332 26.2252 18.1655 27.4174 16.7483 27.2476C16.1436 27.1738 15.5645 26.8534 15.0814 26.1964C14.1856 24.9753 14.8703 23.0172 15.2286 21.668C15.7085 19.8573 16.2172 17.9376 15.5485 15.9955C15.4398 15.6718 15.6093 15.3193 15.9324 15.2103C16.2556 15.0981 16.6075 15.2712 16.7163 15.5949C17.5065 17.8895 16.9466 19.9951 16.4187 21.9853C16.1628 22.9563 15.9132 23.8985 15.8557 24.7767C15.8653 25.0619 15.9452 25.2926 16.0764 25.4689C17.1226 26.895 18.8246 25.3215 19.4773 24.203C20.1491 23.0493 20.4818 21.7449 20.4754 20.4437C20.4658 18.5689 19.7556 16.6941 18.3383 15.2744L13.9425 10.871C14.0961 14.236 13.0403 17.0434 12.0965 19.5592C10.772 23.0845 9.68104 25.9881 12.9827 28.9269C19.2469 34.5065 25.0568 26.3246 25.0568 20.4758C25.0568 17.412 23.8987 14.3482 21.5792 12.0279L13.1491 3.57684L4.71575 12.0279C2.39627 14.3514 1.23812 17.4152 1.23812 20.4758C1.23812 23.5364 2.39627 26.6034 4.71575 28.9237C5.8227 30.0325 7.09282 30.8754 8.44932 31.4523C9.8634 32.0548 11.3735 32.3753 12.8835 32.4073M10.948 19.1234C11.8853 16.6268 12.9347 13.829 12.6916 10.5281L7.95662 15.2712C6.53294 16.6973 5.8195 18.585 5.8195 20.4758C5.8195 22.3666 6.53294 24.2511 7.95662 25.6804C8.46851 26.1964 9.03798 26.6162 9.64265 26.9399C9.78022 27.0136 9.92099 27.0841 10.0618 27.1482C8.89402 24.6036 9.8506 22.0526 10.9512 19.1234" fill="url(#paint0_linear_351_296)"/>
<defs>
<linearGradient id="paint0_linear_351_296" x1="10.3292" y1="6.46206" x2="24.0713" y2="23.0013" gradientUnits="userSpaceOnUse">
<stop stop-color="#999999"/>
<stop offset="0.217622" stop-color="#C9C9C9"/>
<stop offset="0.444601" stop-color="white"/>
<stop offset="0.731969" stop-color="#999999"/>
<stop offset="1" stop-color="#999999"/>
<stop offset="0.865077" stop-color="#C9C9C9"/>
</linearGradient>
</defs>
</svg>
