<svg width="20" height="21" viewBox="0 0 20 21" fill="none" xmlns="http://www.w3.org/2000/svg">
<mask id="mask0_1564_687" style="mask-type:alpha" maskUnits="userSpaceOnUse" x="0" y="0" width="20" height="21">
<rect y="0.79541" width="20" height="20" fill="#D9D9D9"/>
</mask>
<g mask="url(#mask0_1564_687)">
<path d="M3.33317 17.4622C2.87484 17.4622 2.48248 17.299 2.15609 16.9727C1.8297 16.6463 1.6665 16.2539 1.6665 15.7956V5.79557C1.6665 5.33724 1.8297 4.94488 2.15609 4.61849C2.48248 4.2921 2.87484 4.12891 3.33317 4.12891H16.6665C17.1248 4.12891 17.5172 4.2921 17.8436 4.61849C18.17 4.94488 18.3332 5.33724 18.3332 5.79557V15.7956C18.3332 16.2539 18.17 16.6463 17.8436 16.9727C17.5172 17.299 17.1248 17.4622 16.6665 17.4622H3.33317ZM9.99984 11.6289L16.6665 7.46224V5.79557L9.99984 9.96224L3.33317 5.79557V7.46224L9.99984 11.6289Z" fill="white"/>
</g>
</svg>
