<svg width="20" height="21" viewBox="0 0 20 21" fill="none" xmlns="http://www.w3.org/2000/svg">
<g clip-path="url(#clip0_468_1989)">
<path d="M17.125 9.47189C17.125 15.0136 10 19.7636 10 19.7636C10 19.7636 2.875 15.0136 2.875 9.47189C2.875 7.58223 3.62567 5.76995 4.96186 4.43376C6.29806 3.09756 8.11033 2.34689 10 2.34689C11.8897 2.34689 13.7019 3.09756 15.0381 4.43376C16.3743 5.76995 17.125 7.58223 17.125 9.47189Z" stroke="black" stroke-width="1.15679" stroke-linecap="round" stroke-linejoin="round"/>
<path d="M10 11.8469C11.3117 11.8469 12.375 10.7836 12.375 9.47189C12.375 8.16022 11.3117 7.09689 10 7.09689C8.68832 7.09689 7.625 8.16022 7.625 9.47189C7.625 10.7836 8.68832 11.8469 10 11.8469Z" stroke="black" stroke-width="1.15679" stroke-linecap="round" stroke-linejoin="round"/>
</g>
<defs>
<clipPath id="clip0_468_1989">
<rect width="19" height="19.95" fill="white" transform="translate(0.5 0.605255)"/>
</clipPath>
</defs>
</svg>
