<svg width="61" height="61" viewBox="0 0 61 61" fill="none" xmlns="http://www.w3.org/2000/svg">
<g clip-path="url(#clip0_1564_846)">
<mask id="path-1-inside-1_1564_846" fill="white">
<path d="M22.2476 13.7607C23.9042 13.7608 25.2473 15.1041 25.2476 16.7607V55.1553C25.2475 57.9167 23.0089 60.1552 20.2476 60.1553H18.3267C15.5653 60.1552 13.3267 57.9167 13.3267 55.1553V35.4736C13.3267 34.9744 12.9563 34.5568 12.4692 34.4473C7.79656 33.3965 4.30631 29.2224 4.30615 24.2324C4.30615 18.4495 8.99395 13.7607 14.7769 13.7607H22.2476Z"/>
</mask>
<path d="M22.2476 13.7607L22.2476 12.4607H22.2476V13.7607ZM25.2476 16.7607H26.5476V16.7605L25.2476 16.7607ZM25.2476 55.1553L26.5476 55.1553V55.1553H25.2476ZM20.2476 60.1553V61.4553H20.2476L20.2476 60.1553ZM18.3267 60.1553L18.3266 61.4553H18.3267V60.1553ZM13.3267 55.1553H12.0267L12.0267 55.1553L13.3267 55.1553ZM12.4692 34.4473L12.184 35.7156L12.1841 35.7156L12.4692 34.4473ZM4.30615 24.2324H3.00615V24.2325L4.30615 24.2324ZM22.2476 13.7607L22.2475 15.0607C23.1861 15.0608 23.9474 15.822 23.9476 16.7609L25.2476 16.7607L26.5476 16.7605C26.5472 14.3863 24.6223 12.4608 22.2476 12.4607L22.2476 13.7607ZM25.2476 16.7607H23.9476V55.1553H25.2476H26.5476V16.7607H25.2476ZM25.2476 55.1553L23.9476 55.1553C23.9475 57.1987 22.291 58.8552 20.2475 58.8553L20.2476 60.1553L20.2476 61.4553C23.7269 61.4552 26.5475 58.6346 26.5476 55.1553L25.2476 55.1553ZM20.2476 60.1553V58.8553H18.3267V60.1553V61.4553H20.2476V60.1553ZM18.3267 60.1553L18.3267 58.8553C16.2832 58.8552 14.6267 57.1987 14.6267 55.1553L13.3267 55.1553L12.0267 55.1553C12.0267 58.6346 14.8473 61.4552 18.3266 61.4553L18.3267 60.1553ZM13.3267 55.1553H14.6267V35.4736H13.3267H12.0267V55.1553H13.3267ZM13.3267 35.4736H14.6267C14.6267 34.3013 13.769 33.407 12.7544 33.1789L12.4692 34.4473L12.1841 35.7156C12.153 35.7086 12.1197 35.691 12.0902 35.6564C12.0581 35.6187 12.0267 35.554 12.0267 35.4736H13.3267ZM12.4692 34.4473L12.7545 33.1789C8.66215 32.2587 5.60629 28.6012 5.60615 24.2324L4.30615 24.2324L3.00615 24.2325C3.00633 29.8436 6.93097 34.5343 12.184 35.7156L12.4692 34.4473ZM4.30615 24.2324H5.60615C5.60615 19.1673 9.71208 15.0607 14.7769 15.0607V13.7607V12.4607C8.27582 12.4607 3.00615 17.7317 3.00615 24.2324H4.30615ZM14.7769 13.7607V15.0607H22.2476V13.7607V12.4607H14.7769V13.7607Z" fill="black" mask="url(#path-1-inside-1_1564_846)"/>
<path d="M54.2578 3.31934C55.7459 2.6554 57.4247 3.74448 57.4248 5.37402V49.5557C57.4248 51.1918 55.7433 52.2632 54.2764 51.6191L54.1357 51.5518L24.7197 36.2344V16.502L54.2578 3.31934Z" stroke="black" stroke-width="1.5"/>
<path d="M11.4142 20.8874L14.4581 24.0745L9.93861 25.4538L21.8508 31.9003L17.1588 26.2916L20.4599 24.8768L15.3765 19.0071L11.4142 20.8874Z" fill="black"/>
</g>
<defs>
<clipPath id="clip0_1564_846">
<rect width="60" height="60" fill="white" transform="translate(0.666504 0.452637)"/>
</clipPath>
</defs>
</svg>
