<svg width="20" height="20" viewBox="0 0 20 20" fill="none" xmlns="http://www.w3.org/2000/svg">
<path d="M17.9166 14.0003V16.3753C17.9175 16.5957 17.8724 16.814 17.784 17.016C17.6957 17.218 17.5662 17.3994 17.4037 17.5484C17.2412 17.6975 17.0494 17.8109 16.8406 17.8816C16.6317 17.9522 16.4104 17.9784 16.1908 17.9586C13.7547 17.6939 11.4147 16.8615 9.35872 15.5282C7.44591 14.3127 5.82419 12.691 4.60872 10.7782C3.27078 8.71289 2.43816 6.36147 2.1783 3.91443C2.15852 3.69551 2.18454 3.47487 2.2547 3.26655C2.32486 3.05824 2.43763 2.86681 2.58582 2.70447C2.73402 2.54212 2.9144 2.41241 3.11547 2.3236C3.31654 2.23478 3.5339 2.18881 3.75372 2.1886H6.12872C6.51292 2.18482 6.88539 2.32087 7.1767 2.5714C7.46801 2.82192 7.65828 3.16983 7.71205 3.55027C7.81229 4.31032 7.9982 5.05659 8.26622 5.77485C8.37273 6.05821 8.39578 6.36616 8.33264 6.66221C8.2695 6.95827 8.12282 7.23002 7.90997 7.44527L6.90455 8.45068C8.03153 10.4327 9.67258 12.0737 11.6546 13.2007L12.66 12.1953C12.8752 11.9824 13.147 11.8357 13.443 11.7726C13.7391 11.7095 14.047 11.7325 14.3304 11.839C15.0486 12.107 15.7949 12.2929 16.555 12.3932C16.9395 12.4474 17.2907 12.6411 17.5418 12.9374C17.7929 13.2338 17.9263 13.612 17.9166 14.0003Z" stroke="black" stroke-width="1.15679" stroke-linecap="round" stroke-linejoin="round"/>
</svg>
