<svg width="163" height="117" viewBox="0 0 163 117" fill="none" xmlns="http://www.w3.org/2000/svg">
<rect x="1.24609" y="0.595703" width="160.873" height="115.548" rx="13.877" fill="white"/>
<rect x="1.24609" y="0.595703" width="160.873" height="115.548" rx="13.877" stroke="#E3E3E3"/>
<g clip-path="url(#clip0_13201_8232)">
<path fill-rule="evenodd" clip-rule="evenodd" d="M73.3461 52.2599L83.6472 41.9917L93.0538 51.3695L83.1426 61.2491L78.5068 65.8713L74.2584 61.6365L84.5405 51.3886L83.6281 50.4791L73.3461 60.727L71.2231 58.6109L67.5813 54.9807L63.9395 51.3505L74.2164 41.1063L78.4877 36.8486L82.7348 41.0822L78.3883 45.4148L72.4337 51.3505L73.3461 52.2599Z" fill="#FDB813"/>
<path fill-rule="evenodd" clip-rule="evenodd" d="M62.9414 34.9383C71.2279 38.3449 74.3193 35.7322 74.3193 34.133C74.3193 30.3795 71.2228 30.0849 76.8755 24.4515C77.4196 23.9092 78.267 24.3321 78.267 25.0092V34.9091C78.267 35.1898 78.1192 35.4044 78.0249 35.4895L73.5254 39.9746L70.7679 42.7233L62.944 34.9383H62.9414Z" fill="#1D2167"/>
<path fill-rule="evenodd" clip-rule="evenodd" d="M94.0756 34.9383C85.789 38.3449 82.6977 35.7322 82.6977 34.133C82.6977 30.3795 85.7941 30.0849 80.1415 24.4515C79.5974 23.9092 78.75 24.3321 78.75 25.0092V34.9091C78.75 35.1898 78.8978 35.4044 78.9921 35.4895L83.4915 39.9746L86.249 42.7233L94.073 34.9383H94.0756Z" fill="#1D2167"/>
<path fill-rule="evenodd" clip-rule="evenodd" d="M62.0264 66.8831C65.4439 58.623 62.8228 55.5415 61.2185 55.5415C57.453 55.5415 57.1574 58.6281 51.506 52.9935C50.9619 52.4511 51.3863 51.6064 52.0654 51.6064H61.9983C62.2799 51.6064 62.4953 51.7538 62.5807 51.8478L67.0801 56.3328L69.8376 59.0816L62.0276 66.8806L62.0264 66.8831Z" fill="#1D2167"/>
<path fill-rule="evenodd" clip-rule="evenodd" d="M62.0264 35.8486C65.4439 44.1087 62.8228 47.1902 61.2185 47.1902C57.453 47.1902 57.1574 44.1036 51.506 49.7382C50.9619 50.2806 51.3863 51.1253 52.0654 51.1253H61.9983C62.2799 51.1253 62.4953 50.9779 62.5807 50.8839L67.0801 46.3989L69.8376 43.6502L62.0276 35.8512L62.0264 35.8486Z" fill="#1D2167"/>
<path fill-rule="evenodd" clip-rule="evenodd" d="M62.9414 67.7931C71.2279 64.3865 74.3193 66.9993 74.3193 68.5984C74.3193 72.3519 71.2228 72.6466 76.8755 78.2799C77.4196 78.8223 78.267 78.3993 78.267 77.7223V67.8211C78.267 67.5404 78.1192 67.3257 78.0249 67.2406L73.5254 62.7555L70.7679 60.0068L62.944 67.7919L62.9414 67.7931Z" fill="#1D2167"/>
<path fill-rule="evenodd" clip-rule="evenodd" d="M94.0756 67.7951C85.789 64.3884 82.6977 67.0012 82.6977 68.6004C82.6977 72.3538 85.7941 72.6485 80.1415 78.2818C79.5974 78.8242 78.75 78.4012 78.75 77.7242V67.823C78.75 67.5423 78.8978 67.3277 78.9921 67.2426L83.4915 62.7575L86.249 60.0088L94.073 67.7938L94.0756 67.7951Z" fill="#1D2167"/>
<path fill-rule="evenodd" clip-rule="evenodd" d="M94.9753 66.8831C91.5577 58.623 94.1789 55.5415 95.7832 55.5415C99.5486 55.5415 99.8443 58.6281 105.496 52.9935C106.04 52.4511 105.615 51.6064 104.936 51.6064H95.0033C94.7217 51.6064 94.5064 51.7538 94.421 51.8478L89.9216 56.3328L87.1641 59.0816L94.974 66.8806L94.9753 66.8831Z" fill="#1D2167"/>
<path fill-rule="evenodd" clip-rule="evenodd" d="M94.9753 35.8486C91.5577 44.1087 94.1789 47.1902 95.7832 47.1902C99.5486 47.1902 99.8443 44.1036 105.496 49.7382C106.04 50.2806 105.615 51.1253 104.936 51.1253H95.0033C94.7217 51.1253 94.5064 50.9779 94.421 50.8839L89.9216 46.3989L87.1641 43.6502L94.974 35.8512L94.9753 35.8486Z" fill="#1D2167"/>
<path d="M47.1049 89.0255C47.1049 90.0786 46.6946 90.8915 45.8726 91.4644C45.5081 91.7096 45.0889 91.8976 44.6136 92.0259C44.1382 92.1542 43.6017 92.219 43.0028 92.219C42.0636 92.219 41.3601 92.1542 40.8899 92.0259C40.1393 91.8265 39.4703 91.4352 38.8828 90.8496L40.7485 88.9899C41.2773 89.5171 42.0457 89.78 43.055 89.78C43.877 89.78 44.2873 89.5755 44.2873 89.1652C44.2873 88.8261 44.0579 88.6266 43.6004 88.5682L42.1388 88.4285C40.3075 88.2532 39.3926 87.3398 39.3926 85.691C39.3926 84.7205 39.7863 83.9355 40.5726 83.3397C41.2888 82.8252 42.1515 82.5674 43.1608 82.5674C44.8506 82.5674 46.0956 82.9535 46.8934 83.7259L45.1156 85.4979C44.7397 85.1232 44.0707 84.9365 43.1086 84.9365C42.4867 84.9365 42.1757 85.1181 42.1757 85.4801C42.1757 85.8422 42.3809 86.006 42.7925 86.006L44.2542 86.147C45.2049 86.2283 45.9274 86.5446 46.4193 87.0947C46.8768 87.5863 47.1062 88.229 47.1062 89.0255" fill="#1D2167"/>
<path d="M53.1935 88.5682V88.323H51.7318C51.1214 88.323 50.8168 88.5745 50.8168 89.0776C50.8168 89.5806 51.1341 89.8677 51.7675 89.8677C52.2836 89.8677 52.6659 89.7508 52.9118 89.5171C53.0992 89.3304 53.1935 89.0141 53.1935 88.5695M56.0811 92.1148H53.2635V91.3425C52.6888 91.9154 51.9841 92.2025 51.1507 92.2025C50.1885 92.2025 49.4316 91.9217 48.8798 91.3603C48.328 90.7988 48.0527 90.062 48.0527 89.1487C48.0527 88.3649 48.3114 87.7323 48.8275 87.2534C49.3908 86.692 50.2064 86.4113 51.2743 86.4113H53.1935V86.1661C53.1935 85.3823 52.7181 84.9898 51.7675 84.9898C51.2042 84.9898 50.6996 85.2007 50.2535 85.6211L48.458 83.8313C48.9155 83.3753 49.4086 83.0475 49.9362 82.8481C50.2064 82.7541 50.4906 82.6842 50.79 82.6372C51.0895 82.5902 51.4616 82.5674 51.9076 82.5674C54.6895 82.5674 56.0799 83.7081 56.0799 85.9895V92.1148H56.0811Z" fill="#1D2167"/>
<path fill-rule="evenodd" clip-rule="evenodd" d="M69.9384 85.3249L67.8894 92.1103H65.583L63.8755 86.9343L62.168 92.1103H59.8616L57.0098 82.6689H60.0553L61.2339 87.5656L62.8714 82.6689H64.8783L66.5158 87.5656L67.6957 82.6689L69.9384 85.3249Z" fill="#1D2167"/>
<path fill-rule="evenodd" clip-rule="evenodd" d="M70.8641 82.2783L70.0752 84.8875L70.0612 84.9345L67.8184 82.2783H67.9904H70.8641Z" fill="#FDB813"/>
<path d="M76.3595 88.5682V88.323H74.8978C74.2874 88.323 73.9828 88.5745 73.9828 89.0776C73.9828 89.5806 74.3001 89.8677 74.9335 89.8677C75.4496 89.8677 75.8319 89.7508 76.0778 89.5171C76.2652 89.3304 76.3595 89.0141 76.3595 88.5695M79.2471 92.1148H76.4296V91.3425C75.8548 91.9154 75.1501 92.2025 74.3167 92.2025C73.3546 92.2025 72.5976 91.9217 72.0458 91.3603C71.494 90.7988 71.2188 90.062 71.2188 89.1487C71.2188 88.3649 71.4774 87.7323 71.9936 87.2534C72.5568 86.692 73.3724 86.4113 74.4403 86.4113H76.3595V86.1661C76.3595 85.3823 75.8841 84.9898 74.9335 84.9898C74.3702 84.9898 73.8656 85.2007 73.4195 85.6211L71.624 83.8313C72.0815 83.3753 72.5747 83.0475 73.1022 82.8481C73.3724 82.7541 73.6566 82.6842 73.956 82.6372C74.2555 82.5902 74.6276 82.5674 75.0737 82.5674C77.8556 82.5674 79.2459 83.7081 79.2459 85.9895V92.1148H79.2471Z" fill="#1D2167"/>
<path d="M88.5815 89.0255C88.5815 90.0786 88.1711 90.8915 87.3492 91.4644C86.9847 91.7096 86.5655 91.8976 86.0901 92.0259C85.6148 92.1542 85.0783 92.219 84.4793 92.219C83.5401 92.219 82.8367 92.1542 82.3665 92.0259C81.6159 91.8265 80.9468 91.4352 80.3594 90.8496L82.225 88.9899C82.7539 89.5171 83.5223 89.78 84.5316 89.78C85.3535 89.78 85.7639 89.5755 85.7639 89.1652C85.7639 88.8261 85.5345 88.6266 85.077 88.5682L83.6153 88.4285C81.7841 88.2532 80.8691 87.3398 80.8691 85.691C80.8691 84.7205 81.2629 83.9355 82.0492 83.3397C82.7653 82.8252 83.6281 82.5674 84.6374 82.5674C86.3271 82.5674 87.5722 82.9535 88.3699 83.7259L86.5922 85.4979C86.2163 85.1232 85.5472 84.9365 84.5851 84.9365C83.9632 84.9365 83.6523 85.1181 83.6523 85.4801C83.6523 85.8422 83.8575 86.006 84.2678 86.006L85.7295 86.147C86.6801 86.2283 87.4027 86.5446 87.8946 87.0947C88.3521 87.5863 88.5815 88.229 88.5815 89.0255Z" fill="#1D2167"/>
<path d="M95.0904 87.3898C95.0904 86.5947 95.0254 86.051 94.8967 85.7576C94.7209 85.36 94.3857 85.1606 93.8926 85.1606C93.3995 85.1606 93.0656 85.36 92.8898 85.7576C92.7611 86.0739 92.6961 86.6175 92.6961 87.3898C92.6961 88.1621 92.7611 88.7299 92.8898 89.022C93.0656 89.4196 93.4007 89.619 93.8926 89.619C94.3845 89.619 94.7196 89.4196 94.8967 89.022C95.0254 88.7057 95.0904 88.1621 95.0904 87.3898ZM97.9779 92.1099H95.1783V91.3376C94.5909 91.9219 93.8633 92.2153 92.9955 92.2153C92.0449 92.2153 91.2765 91.9282 90.6891 91.3554C90.2788 90.9464 90.015 90.343 89.8965 89.5479C89.8379 89.1033 89.8086 88.3844 89.8086 87.3898C89.8086 86.8868 89.815 86.4537 89.8264 86.0917C89.8379 85.7284 89.8621 85.4426 89.8965 85.2317C90.0023 84.448 90.2661 83.8447 90.6891 83.4243C91.2638 82.8514 92.0271 82.5643 92.9777 82.5643C93.8582 82.5643 94.5616 82.8273 95.0904 83.3544V79.6162H97.9779V92.1111V92.1099Z" fill="#1D2167"/>
<path d="M105.395 86.4086C105.395 85.964 105.269 85.6071 105.017 85.3378C104.764 85.0685 104.422 84.9338 103.987 84.9338C103.401 84.9338 102.984 85.179 102.737 85.6706C102.631 85.9043 102.579 86.1507 102.579 86.4073H105.396L105.395 86.4086ZM108.247 88.3217H102.578C102.578 88.7193 102.727 89.0648 103.026 89.3569C103.326 89.6491 103.733 89.7952 104.25 89.7952C105.024 89.7952 105.676 89.5322 106.203 89.0051L107.929 90.725C107.412 91.2395 106.872 91.6168 106.309 91.8568C105.746 92.0969 105.059 92.2163 104.25 92.2163C101.245 92.2163 99.7422 90.6069 99.7422 87.3905C99.7422 85.87 100.132 84.6848 100.913 83.8363C101.693 82.9877 102.718 82.5635 103.986 82.5635C105.254 82.5635 106.356 83.0017 107.155 83.8795C107.883 84.6988 108.247 85.7519 108.247 87.0387V88.3191V88.3217Z" fill="#1D2167"/>
<path d="M115.231 86.4086C115.231 85.964 115.105 85.6071 114.853 85.3378C114.6 85.0685 114.258 84.9338 113.823 84.9338C113.236 84.9338 112.82 85.179 112.573 85.6706C112.467 85.9043 112.415 86.1507 112.415 86.4073H115.232L115.231 86.4086ZM118.083 88.3217H112.414C112.414 88.7193 112.563 89.0648 112.862 89.3569C113.162 89.6491 113.569 89.7952 114.085 89.7952C114.86 89.7952 115.511 89.5322 116.039 89.0051L117.765 90.725C117.248 91.2395 116.708 91.6168 116.145 91.8568C115.582 92.0969 114.895 92.2163 114.085 92.2163C111.081 92.2163 109.578 90.6069 109.578 87.3905C109.578 85.87 109.968 84.6848 110.749 83.8363C111.529 82.9877 112.554 82.5635 113.822 82.5635C115.09 82.5635 116.192 83.0017 116.991 83.8795C117.719 84.6988 118.083 85.7519 118.083 87.0387V88.3191V88.3217Z" fill="#1D2167"/>
<path d="M122.031 82.665C123.588 82.665 124.851 83.9239 124.851 85.4762C124.851 87.0285 123.588 88.2873 122.031 88.2873C120.474 88.2873 119.211 87.0285 119.211 85.4762C119.211 83.9239 120.474 82.665 122.031 82.665Z" stroke="#1D2167" stroke-width="0.658519" stroke-miterlimit="22.93"/>
<path d="M121.409 85.2925H122.286C122.472 85.2925 122.618 85.2734 122.723 85.2341C122.827 85.196 122.908 85.135 122.961 85.0499C123.016 84.9648 123.043 84.8733 123.043 84.7742C123.043 84.6294 122.991 84.5087 122.885 84.4147C122.779 84.3207 122.612 84.275 122.385 84.275H121.41V85.2938L121.409 85.2925ZM121 87.0112V83.9346H122.367C122.643 83.9346 122.852 83.9625 122.994 84.0171C123.137 84.0718 123.252 84.1696 123.337 84.3093C123.423 84.449 123.465 84.604 123.465 84.773C123.465 84.9914 123.393 85.1756 123.252 85.3255C123.11 85.4754 122.892 85.5694 122.595 85.6101C122.704 85.6622 122.785 85.713 122.841 85.7638C122.961 85.873 123.073 86.0089 123.179 86.1728L123.713 87.0112H123.203L122.796 86.371C122.677 86.1855 122.579 86.0445 122.502 85.9467C122.425 85.8489 122.356 85.7803 122.295 85.7409C122.235 85.7028 122.172 85.6749 122.109 85.6596C122.063 85.6507 121.988 85.6456 121.882 85.6456H121.409V87.0125H121V87.0112Z" fill="#1D2167"/>
</g>
<defs>
<clipPath id="clip0_13201_8232">
<rect width="86.0331" height="68.0127" fill="white" transform="translate(38.8848 24.2041)"/>
</clipPath>
</defs>
</svg>
