<svg width="24" height="24" viewBox="0 0 24 24" fill="none" xmlns="http://www.w3.org/2000/svg">
<path d="M16.9704 16.3329H16.921C15.9611 16.3329 15.0014 16.3328 14.0416 16.3333C14.0152 16.3333 13.9966 16.3281 13.9795 16.3051C13.393 15.5195 12.8058 14.7343 12.2185 13.9492C11.9084 13.5345 11.5982 13.1198 11.288 12.7051C11.2807 12.6954 11.2731 12.686 11.2635 12.6739C11.241 12.6966 11.2192 12.7175 11.1988 12.7395C10.5811 13.4066 9.96358 14.0737 9.34598 14.7409C8.86184 15.2639 8.37776 15.787 7.89281 16.3093C7.88125 16.3218 7.85996 16.3319 7.84317 16.3319C7.57436 16.3333 7.30556 16.333 7.03682 16.3328C7.02747 16.3328 7.01819 16.3316 7 16.3303C8.293 14.9335 9.58076 13.5423 10.8713 12.1481C9.58931 10.434 8.30817 8.72103 7.02298 7.00265C7.04279 7.00177 7.0556 7.00074 7.06849 7.00074C8.02949 7.00066 8.99057 7.00074 9.95157 7C9.98074 7 9.99797 7.00957 10.0151 7.0324C10.8362 8.13142 11.6579 9.22999 12.4797 10.3286C12.4899 10.3423 12.5004 10.3559 12.5135 10.373C12.5399 10.3451 12.5651 10.319 12.5896 10.2925C13.3404 9.48112 14.091 8.66969 14.8418 7.85841C15.0993 7.58018 15.3569 7.30217 15.6153 7.02482C15.6264 7.01289 15.6455 7.00177 15.6609 7.00162C15.937 7.00022 16.2132 7.00066 16.4893 7.00074C16.4928 7.00074 16.4963 7.00177 16.5085 7.00361C15.3058 8.30301 14.1066 9.59851 12.9047 10.897C14.2582 12.7066 15.6107 14.515 16.9704 16.3329ZM8.31001 7.64631C8.32385 7.66561 8.33195 7.67725 8.34042 7.68866C8.93276 8.48057 9.52509 9.27248 10.1175 10.0644C10.6026 10.7129 11.0878 11.3614 11.5729 12.0099C12.4835 13.2273 13.3941 14.4448 14.3043 15.6626C14.3191 15.6825 14.3347 15.6897 14.3593 15.6897C14.7877 15.6889 15.216 15.6892 15.6443 15.6891C15.6547 15.6891 15.665 15.6881 15.6798 15.6872C15.6718 15.6751 15.6669 15.667 15.6612 15.6594C15.2139 15.0609 14.7665 14.4624 14.3191 13.864C13.7767 13.1387 13.2343 12.4136 12.6919 11.6884C11.6915 10.3511 10.6911 9.01384 9.69138 7.67607C9.67481 7.6539 9.65824 7.64558 9.6307 7.64565C9.20606 7.64654 8.78141 7.64624 8.3567 7.64624L8.31001 7.64631Z" fill="#3D3D3D"/>
</svg>
