<svg width="24" height="25" viewBox="0 0 24 25" fill="none" xmlns="http://www.w3.org/2000/svg">
<path fill-rule="evenodd" clip-rule="evenodd" d="M6.989 5.39299C10.3247 5.13202 13.6756 5.13202 17.0113 5.39299L19.252 5.56829C20.5001 5.66594 21.5211 6.60133 21.7274 7.8361C22.2436 10.9256 22.2436 14.0793 21.7274 17.1688C21.5211 18.4036 20.5001 19.339 19.252 19.4366L17.0113 19.6119C13.6756 19.8729 10.3247 19.8729 6.989 19.6119L4.7483 19.4366C3.50023 19.339 2.47921 18.4036 2.2729 17.1688C1.75669 14.0793 1.75669 10.9256 2.2729 7.8361C2.47921 6.60133 3.50023 5.66594 4.7483 5.56829L6.989 5.39299ZM10.0001 14.9726V10.0323C10.0001 9.79914 10.2545 9.65511 10.4545 9.77508L14.5714 12.2452C14.7656 12.3617 14.7656 12.6432 14.5714 12.7597L10.4545 15.2299C10.2545 15.3498 10.0001 15.2058 10.0001 14.9726Z" fill="#3D3D3D"/>
</svg>
