<svg width="61" height="61" viewBox="0 0 61 61" fill="none" xmlns="http://www.w3.org/2000/svg">
<circle cx="30.3325" cy="30.4526" r="25.793" stroke="black" stroke-width="1.5"/>
<path d="M30.6665 46.1558C30.6665 44.0936 30.2603 42.0516 29.4712 40.1464C28.682 38.2412 27.5253 36.5101 26.0672 35.052C24.609 33.5938 22.8779 32.4371 20.9727 31.648C19.0675 30.8588 17.0255 30.4526 14.9634 30.4526C14.9634 39.1252 21.9939 46.1558 30.6665 46.1558Z" fill="black"/>
<path d="M30.6665 14.7495C30.6665 16.8117 30.2603 18.8536 29.4712 20.7588C28.682 22.664 27.5253 24.3951 26.0672 25.8533C24.609 27.3115 22.8779 28.4682 20.9727 29.2573C19.0675 30.0465 17.0255 30.4526 14.9634 30.4526C14.9634 21.78 21.9939 14.7495 30.6665 14.7495Z" fill="black"/>
<path d="M30.6665 46.1558C30.6665 44.0936 31.0727 42.0516 31.8618 40.1464C32.651 38.2412 33.8077 36.5101 35.2658 35.052C36.724 33.5938 38.4551 32.4371 40.3603 31.648C42.2655 30.8588 44.3075 30.4526 46.3696 30.4526C46.3696 39.1252 39.3391 46.1558 30.6665 46.1558Z" fill="black"/>
<path d="M30.6665 14.7495C30.6665 16.8117 31.0727 18.8536 31.8618 20.7588C32.651 22.664 33.8077 24.3951 35.2658 25.8533C36.724 27.3115 38.4551 28.4682 40.3603 29.2573C42.2655 30.0465 44.3075 30.4526 46.3696 30.4526C46.3696 21.78 39.3391 14.7495 30.6665 14.7495Z" fill="black"/>
</svg>
