<svg width="25" height="25" viewBox="0 0 25 25" fill="none" xmlns="http://www.w3.org/2000/svg">
<g opacity="0.7">
<path fill-rule="evenodd" clip-rule="evenodd" d="M10.8534 12.1572C11.3874 11.9223 11.8514 11.5394 12.1963 11.049C12.5134 10.5281 12.6709 9.91676 12.6475 9.29801C12.668 8.73374 12.5639 8.17218 12.3432 7.65784C12.1579 7.21225 11.8603 6.82892 11.4829 6.54962C11.0828 6.25924 10.6285 6.06274 10.1505 5.97335C9.58483 5.84803 9.00785 5.78857 8.42991 5.79604H2.4665C2.30082 5.79604 2.1665 5.93035 2.1665 6.09604V19.4374C2.1665 19.6031 2.30082 19.7374 2.4665 19.7374H8.5663C9.15034 19.7379 9.73206 19.6597 10.2974 19.5047C10.8332 19.3583 11.3409 19.1145 11.7977 18.7844C12.2401 18.4604 12.6004 18.0266 12.8468 17.521C13.1195 16.9556 13.253 16.3267 13.235 15.6924C13.2549 14.9064 13.0462 14.1329 12.637 13.476C12.197 12.8154 11.5443 12.3466 10.801 12.1572H10.8534ZM5.21648 8.04541C5.10602 8.04541 5.01648 8.13495 5.01648 8.24541V11.3454C5.01648 11.4559 5.10602 11.5454 5.21648 11.5454H8.01648C8.98298 11.5454 9.76648 10.7619 9.76648 9.79541C9.76648 8.82891 8.98298 8.04541 8.01648 8.04541H5.21648ZM5.01648 13.4954C5.01648 13.385 5.10602 13.2954 5.21648 13.2954H8.14148C9.31508 13.2954 10.2665 14.2468 10.2665 15.4204C10.2665 16.594 9.31508 17.5454 8.14148 17.5454H5.21648C5.10602 17.5454 5.01648 17.4559 5.01648 17.3454V13.4954Z" fill="white"/>
<path d="M16.1054 6.5053H20.8286C20.9927 6.5053 21.1263 6.63717 21.1285 6.80127L21.1415 7.76386C21.1437 7.9311 21.0088 8.06788 20.8415 8.06788H16.1054C15.9397 8.06788 15.8054 7.93357 15.8054 7.76788V6.8053C15.8054 6.63961 15.9397 6.5053 16.1054 6.5053Z" fill="white"/>
<path fill-rule="evenodd" clip-rule="evenodd" d="M18.6381 17.6651C19.1219 17.6807 19.5985 17.5374 20.002 17.255C20.2618 17.082 20.4688 16.8349 20.5998 16.5436C20.6345 16.4665 20.7089 16.4128 20.7935 16.4128H22.7145C22.8447 16.4128 22.9403 16.5354 22.9019 16.6599C22.6091 17.609 22.0348 18.4362 21.261 19.0171C20.429 19.5553 19.4663 19.825 18.4912 19.7928C17.7962 19.8053 17.1054 19.6775 16.4559 19.416C15.8734 19.1721 15.35 18.7934 14.9241 18.3078C14.5125 17.8132 14.1986 17.2368 14.0009 16.6123C13.7681 15.9226 13.6543 15.1944 13.6651 14.4623C13.6587 13.7405 13.776 13.0233 14.0114 12.3456C14.2307 11.7178 14.5699 11.1444 15.0081 10.6611C15.4474 10.1873 15.9717 9.81055 16.5503 9.5529C17.1822 9.27699 17.86 9.13757 18.5437 9.14286C19.2706 9.131 19.9899 9.30193 20.642 9.64156C21.2281 9.96396 21.7374 10.4224 22.1318 10.9825C22.5235 11.5599 22.8083 12.2104 22.9711 12.8997C23.1393 13.6242 23.1995 14.372 23.1494 15.1162H16.2041C16.1734 15.8308 16.4066 16.5301 16.8546 17.0666C17.0968 17.2907 17.3803 17.4594 17.6872 17.5624C17.9941 17.6654 18.3178 17.7003 18.6381 17.6651ZM16.2665 13.1942C16.2665 13.2501 16.3118 13.2954 16.3677 13.2954H20.4153C20.4712 13.2954 20.5165 13.2501 20.5165 13.1942C20.5165 12.0765 19.6104 11.1704 18.4927 11.1704H18.2903C17.1726 11.1704 16.2665 12.0765 16.2665 13.1942Z" fill="white"/>
</g>
</svg>
