<svg width="60" height="61" viewBox="0 0 60 61" fill="none" xmlns="http://www.w3.org/2000/svg">
<path d="M19.5517 42.1993C5.75548 42.1993 1.41309 35.8752 1.41309 28.0752C1.41309 20.274 7.73714 13.9511 15.5372 13.9511C16.1351 13.9511 16.7248 13.9888 17.3039 14.0606C18.0054 12.0255 19.1576 10.2 20.6418 8.70638C23.0382 6.82787 26.0573 5.70947 29.3387 5.70947C35.5298 5.70947 40.7887 9.69246 42.6966 15.235C43.2757 15.1632 43.8654 15.1255 44.4633 15.1255C52.2633 15.1255 58.5874 21.4484 58.5874 29.2496C58.5874 33.3326 56.7012 37.0108 53.9305 39.5873C51.9068 41.4691 47.6689 42.4583 43.6632 42.4583" stroke="black" stroke-width="1.5"/>
<rect x="21.0444" y="28.894" width="23.402" height="29.9612" rx="2.25" stroke="black" stroke-width="1.5"/>
<path d="M34.2459 22.8716L18.786 25.0757C17.0934 25.317 15.9444 26.9218 16.2614 28.6018L21.3072 55.3471L21.3072 29.3852L38.3322 29.3852L37.6247 25.3265C37.3464 23.7298 35.8504 22.6429 34.2459 22.8716Z" fill="black"/>
</svg>
