<svg width="25" height="25" viewBox="0 0 25 25" fill="none" xmlns="http://www.w3.org/2000/svg">
<g opacity="0.7">
<path d="M19.8577 6.3689C19.9598 6.30178 19.9773 6.15933 19.893 6.07088C18.1171 4.20698 15.6107 3.04541 12.833 3.04541C12.0961 3.04541 11.3783 3.12716 10.6881 3.2821C10.5473 3.31371 10.4904 3.48115 10.5788 3.59528C11.9077 5.31245 13.1074 7.13491 14.1631 9.04804C14.2109 9.13479 14.3149 9.17394 14.4077 9.13918C16.3363 8.41647 18.1622 7.48377 19.8577 6.3689Z" fill="white"/>
<path d="M3.50998 10.8559C3.38788 10.8505 3.29992 10.7369 3.32711 10.6178C4.00524 7.64523 6.04185 5.18982 8.74916 3.93931C8.83135 3.90134 8.92865 3.92499 8.9852 3.99569C10.3584 5.71226 11.5957 7.54221 12.6806 9.46922C12.743 9.58011 12.6865 9.72004 12.5645 9.75612C10.0842 10.4893 7.45804 10.8828 4.73951 10.8828C4.32745 10.8828 3.91754 10.8738 3.50998 10.8559Z" fill="white"/>
<path d="M5.63345 19.0114C5.55478 19.1096 5.4061 19.1139 5.32578 19.0171C3.92509 17.3288 3.08301 15.1605 3.08301 12.7954C3.08301 12.7096 3.08412 12.624 3.08632 12.5387C3.08919 12.4276 3.18417 12.3421 3.29524 12.3475C3.77377 12.371 4.25528 12.3828 4.73951 12.3828C7.73878 12.3828 10.6323 11.9282 13.3547 11.0841C13.4483 11.0551 13.5493 11.0974 13.5933 11.185C13.9006 11.7976 14.1929 12.419 14.4697 13.0488C14.5193 13.1617 14.455 13.2917 14.3359 13.3235C10.8549 14.2528 7.82273 16.2805 5.63345 19.0114Z" fill="white"/>
<path d="M17.1047 21.3975C17.1224 21.4861 17.0782 21.5756 16.9965 21.6143C15.7339 22.2114 14.3225 22.5454 12.833 22.5454C10.5128 22.5454 8.38187 21.735 6.70789 20.3817C6.62498 20.3147 6.6116 20.1938 6.67716 20.1098C8.73027 17.4769 11.632 15.5399 14.9708 14.7091C15.0676 14.685 15.167 14.7372 15.2028 14.8303C16.0129 16.9406 16.6525 19.1353 17.1047 21.3975Z" fill="white"/>
<path d="M22.2072 14.681C22.3107 14.706 22.3755 14.8088 22.3525 14.9128C21.8471 17.1952 20.5418 19.1768 18.7458 20.5485C18.6311 20.6362 18.4661 20.5721 18.4354 20.431C18.0037 18.441 17.4317 16.5033 16.7305 14.6288C16.6852 14.5079 16.7639 14.3759 16.8922 14.3611C17.4676 14.2949 18.0528 14.2609 18.646 14.2609C19.8732 14.2609 21.0656 14.4064 22.2072 14.681Z" fill="white"/>
<path d="M20.806 7.54017C20.8986 7.47859 21.024 7.50337 21.0833 7.59742C22.0333 9.10201 22.583 10.8845 22.583 12.7954C22.583 12.8583 22.5824 12.921 22.5812 12.9835C22.5788 13.1094 22.4598 13.1989 22.337 13.1711C21.1492 12.9025 19.9138 12.7609 18.646 12.7609C17.8217 12.7609 17.0113 12.8207 16.2191 12.9363C16.1284 12.9495 16.0399 12.9003 16.0038 12.8161C15.7029 12.1133 15.3835 11.4203 15.0462 10.7378C14.9936 10.6313 15.0442 10.5025 15.155 10.4599C17.1545 9.6919 19.0476 8.70923 20.806 7.54017Z" fill="white"/>
</g>
</svg>
