<svg width="24" height="25" viewBox="0 0 24 25" fill="none" xmlns="http://www.w3.org/2000/svg">
<path d="M19.0247 6.07593C19.1268 6.00881 19.1443 5.86636 19.06 5.77791C17.2841 3.91401 14.7777 2.75244 12 2.75244C11.2631 2.75244 10.5453 2.83419 9.85511 2.98913C9.7143 3.02074 9.65743 3.18818 9.74576 3.30231C11.0747 5.01948 12.2744 6.84194 13.3301 8.75507C13.3779 8.84182 13.4819 8.88097 13.5747 8.84621C15.5033 8.1235 17.3292 7.1908 19.0247 6.07593Z" fill="#3D3D3D"/>
<path d="M2.67697 10.5629C2.55487 10.5575 2.46692 10.444 2.4941 10.3248C3.17224 7.35226 5.20884 4.89685 7.91615 3.64634C7.99834 3.60838 8.09564 3.63203 8.1522 3.70272C9.52543 5.41929 10.7627 7.24924 11.8476 9.17625C11.91 9.28714 11.8535 9.42707 11.7315 9.46315C9.25122 10.1963 6.62503 10.5898 3.9065 10.5898C3.49444 10.5898 3.08453 10.5808 2.67697 10.5629Z" fill="#3D3D3D"/>
<path d="M4.80045 18.7185C4.72177 18.8166 4.57309 18.8209 4.49277 18.7241C3.09208 17.0359 2.25 14.8675 2.25 12.5024C2.25 12.4166 2.25111 12.3311 2.25331 12.2458C2.25619 12.1346 2.35116 12.0491 2.46223 12.0546C2.94076 12.078 3.42227 12.0898 3.9065 12.0898C6.90577 12.0898 9.79932 11.6352 12.5217 10.7911C12.6153 10.7621 12.7163 10.8044 12.7602 10.892C13.0676 11.5046 13.3599 12.1261 13.6367 12.7558C13.6863 12.8687 13.622 12.9988 13.5029 13.0306C10.0219 13.9598 6.98972 15.9875 4.80045 18.7185Z" fill="#3D3D3D"/>
<path d="M16.2717 21.1045C16.2894 21.1931 16.2452 21.2827 16.1635 21.3213C14.9009 21.9185 13.4895 22.2524 12 22.2524C9.67979 22.2524 7.54887 21.442 5.87488 20.0887C5.79197 20.0217 5.77859 19.9009 5.84415 19.8168C7.89727 17.1839 10.799 15.2469 14.1378 14.4161C14.2346 14.392 14.334 14.4442 14.3697 14.5374C15.1799 16.6476 15.8195 18.8423 16.2717 21.1045Z" fill="#3D3D3D"/>
<path d="M21.3742 14.3881C21.4777 14.413 21.5425 14.5158 21.5194 14.6198C21.014 16.9022 19.7088 18.8838 17.9128 20.2556C17.7981 20.3432 17.633 20.2791 17.6024 20.138C17.1707 18.148 16.5987 16.2103 15.8975 14.3358C15.8522 14.2149 15.9309 14.0829 16.0592 14.0682C16.6346 14.0019 17.2198 13.9679 17.813 13.9679C19.0402 13.9679 20.2326 14.1135 21.3742 14.3881Z" fill="#3D3D3D"/>
<path d="M19.9729 7.2472C20.0656 7.18562 20.191 7.2104 20.2503 7.30445C21.2003 8.80904 21.75 10.5915 21.75 12.5024C21.75 12.5653 21.7494 12.628 21.7482 12.6906C21.7458 12.8164 21.6268 12.9059 21.504 12.8781C20.3162 12.6096 19.0808 12.4679 17.813 12.4679C16.9887 12.4679 16.1783 12.5277 15.3861 12.6433C15.2954 12.6566 15.2069 12.6074 15.1708 12.5231C14.8699 11.8203 14.5505 11.1274 14.2132 10.4448C14.1606 10.3384 14.2111 10.2096 14.322 10.167C16.3215 9.39893 18.2146 8.41626 19.9729 7.2472Z" fill="#3D3D3D"/>
</svg>
