<svg width="20" height="21" viewBox="0 0 20 21" fill="none" xmlns="http://www.w3.org/2000/svg">
<mask id="mask0_1564_682" style="mask-type:alpha" maskUnits="userSpaceOnUse" x="0" y="0" width="20" height="21">
<rect y="0.79541" width="20" height="20" fill="#D9D9D9"/>
</mask>
<g mask="url(#mask0_1564_682)">
<path d="M16.625 18.2954C14.8889 18.2954 13.1736 17.9169 11.4792 17.16C9.78472 16.403 8.24306 15.3301 6.85417 13.9412C5.46528 12.5524 4.39236 11.0107 3.63542 9.31624C2.87847 7.6218 2.5 5.90652 2.5 4.17041C2.5 3.92041 2.58333 3.71208 2.75 3.54541C2.91667 3.37874 3.125 3.29541 3.375 3.29541H6.75C6.94444 3.29541 7.11806 3.36138 7.27083 3.49333C7.42361 3.62527 7.51389 3.78152 7.54167 3.96208L8.08333 6.87874C8.11111 7.10097 8.10417 7.28847 8.0625 7.44124C8.02083 7.59402 7.94444 7.72597 7.83333 7.83708L5.8125 9.87874C6.09028 10.3926 6.42014 10.8892 6.80208 11.3683C7.18403 11.8475 7.60417 12.3093 8.0625 12.7537C8.49306 13.1843 8.94444 13.5836 9.41667 13.9517C9.88889 14.3197 10.3889 14.6565 10.9167 14.9621L12.875 13.0037C13 12.8787 13.1632 12.785 13.3646 12.7225C13.566 12.66 13.7639 12.6426 13.9583 12.6704L16.8333 13.2537C17.0278 13.3093 17.1875 13.41 17.3125 13.5558C17.4375 13.7017 17.5 13.8649 17.5 14.0454V17.4204C17.5 17.6704 17.4167 17.8787 17.25 18.0454C17.0833 18.2121 16.875 18.2954 16.625 18.2954Z" fill="white"/>
</g>
</svg>
