<svg width="163" height="117" viewBox="0 0 163 117" fill="none" xmlns="http://www.w3.org/2000/svg">
<rect x="1.37305" y="0.595703" width="160.873" height="115.548" rx="13.877" fill="white"/>
<rect x="1.37305" y="0.595703" width="160.873" height="115.548" rx="13.877" stroke="#E3E3E3"/>
<path fill-rule="evenodd" clip-rule="evenodd" d="M81.6754 63.0583L74.5098 59.9736V59.9805V63.469L81.6754 66.5383V63.0583Z" fill="black"/>
<path fill-rule="evenodd" clip-rule="evenodd" d="M101.263 38.7974V45.6735L82.2847 54.7052V47.3298L101.263 38.7991V38.7974ZM101.263 46.154V49.6338L82.2847 58.6656V55.1534L101.263 46.1557V46.154ZM101.263 50.1144V53.5942L82.25 62.6242L82.2649 59.1291L82.2847 59.1121L101.263 50.1144ZM101.263 54.0747L82.2847 63.0741V66.5863L101.263 57.5545V54.0747Z" fill="#6699BA"/>
<path fill-rule="evenodd" clip-rule="evenodd" d="M74.5117 44.3027L81.6774 47.263V54.69L74.5117 51.6139V44.3027Z" fill="black"/>
<path fill-rule="evenodd" clip-rule="evenodd" d="M81.6774 55.1318L74.5117 52.0488V52.0522V55.5425L81.6774 58.6118V55.1318Z" fill="black"/>
<path fill-rule="evenodd" clip-rule="evenodd" d="M81.6774 59.0971L74.5117 56.0107V56.0176V59.5078L81.6774 62.5754V59.0971Z" fill="black"/>
<path fill-rule="evenodd" clip-rule="evenodd" d="M54.7225 50.8605L54.6943 61.4243C54.6745 66.3918 54.8316 68.268 58.8737 70.3965L78.009 78.9102C81.8708 80.7063 83.4867 80.5819 86.9234 78.9818L104.063 71.1378C109.605 68.3192 109.82 67.4807 109.82 60.741L109.823 38.9931C109.808 36.3194 107.84 35.9291 106.514 36.5136L101.805 38.5534V49.3592H101.807V61.7958L82.4381 70.6299L62.929 62.6325L63.0911 62.5627L63.3375 39.1499L74.9179 33.5417V24.1196L58.872 31.3246C54.8316 33.453 54.6728 35.3259 54.6927 40.2968L54.7208 50.8588L54.7225 50.8605Z" fill="black"/>
<path d="M63.7146 82.0902C63.7096 82.5912 63.7013 83.0939 63.6947 83.5932C63.6898 83.9596 63.6898 83.9749 63.5277 84.0022C62.6444 84.0959 61.3527 83.6835 60.3338 83.2455C58.7294 82.5571 57.2259 81.5176 56.1359 80.1833C55.0476 78.8489 54.3678 77.2198 54.4058 75.3521C54.4488 73.2015 55.5504 72.1637 56.7595 71.9354C58.0066 71.6917 59.1727 72.0972 60.2627 72.5676C61.1591 72.9527 62.2888 73.6003 62.5518 73.7758C62.8198 73.9377 63.2713 74.212 63.5806 74.362C63.7295 74.4404 63.7559 74.5 63.7543 74.5955C63.7526 74.7523 63.66 75.076 63.6385 76.7699C63.6352 76.9744 63.5591 77.0375 63.4582 76.9932C63.3689 76.954 63.3424 76.8807 63.3292 76.7648C63.3027 76.4495 63.2316 75.9928 62.8992 75.468C62.522 74.875 61.5594 73.861 60.1006 73.2322C59.396 72.9289 58.4995 72.5574 57.5848 72.9459C56.8554 73.2663 56.3642 74.0621 56.3344 75.7049C56.3079 77.1568 56.7181 78.6018 57.4856 79.8322C58.253 81.0643 59.3811 82.0799 60.7738 82.6781C61.1145 82.8229 61.3791 82.9371 61.6917 82.9286C61.8869 82.9149 61.9498 82.7974 61.9514 82.5571C61.958 82.143 61.9646 81.7255 61.9696 81.3114C61.9779 80.6434 61.9878 80.1321 61.9762 79.7129C61.9679 79.2477 61.8389 79.0449 61.4254 78.7416C61.3245 78.6632 61.1029 78.5558 60.9276 78.4791C60.8068 78.4263 60.7225 78.3241 60.7225 78.2457C60.7241 78.1366 60.8267 78.1622 61.0037 78.2389C61.6818 78.532 62.6097 78.9631 62.9967 79.1284C63.4119 79.3056 64.09 79.5647 64.5184 79.7504C64.6921 79.8254 64.7831 79.8799 64.7814 79.9924C64.7814 80.0691 64.7053 80.1032 64.616 80.064C64.5151 80.0197 64.4109 79.9924 64.2637 79.96C63.9064 79.8714 63.7708 80.0043 63.7493 80.4747C63.7295 80.8836 63.7229 81.4238 63.7129 82.0936M68.1969 82.2589C68.1523 82.2401 68.1242 82.1941 68.1523 82.143C68.5807 81.1853 69.0107 80.2242 69.4408 79.2681C69.4557 79.2272 69.4705 79.1523 69.5152 79.171C69.5433 79.1829 69.5599 79.2716 69.5731 79.3244C69.97 80.6434 70.367 81.9641 70.7656 83.283C70.7789 83.3359 70.7656 83.3614 70.7061 83.3359C69.8725 82.9797 69.0339 82.6184 68.1986 82.2589H68.1969ZM70.9773 84.2067C71.0385 84.2322 71.0815 84.2663 71.1113 84.3583C71.4372 85.4115 71.7663 86.468 72.0921 87.5246C72.15 87.7103 72.0624 87.8006 71.9714 87.7785C71.8407 87.7376 71.811 87.7734 71.8093 87.8552C71.8093 87.9506 71.9582 88.0119 72.193 88.1346C73.288 88.6356 74.2357 89.0412 74.6923 89.2389C75.1802 89.4485 75.2563 89.4468 75.2563 89.3326C75.2563 89.2372 75.1984 89.1639 75.0793 89.1128C74.9288 89.048 74.7849 88.9697 74.5914 88.8555C74.3532 88.6919 73.986 88.3562 73.4931 86.9111C73.0829 85.7063 72.3485 83.4824 71.6786 81.4579C71.0088 79.4369 70.4034 77.6066 70.2545 77.1687C70.1222 76.8108 70.0643 76.6575 69.8741 76.5757C69.7435 76.5194 69.6392 76.6353 69.4871 76.9488C68.9098 78.1179 68.3276 79.2869 67.7504 80.4593C67.1731 81.6335 66.5859 82.8127 66.0054 83.9919C65.7292 84.5662 65.5042 84.8883 64.9088 84.7298C64.788 84.6787 64.6408 84.6293 64.5217 84.5799C64.4175 84.5356 64.3712 84.5799 64.3712 84.6617C64.3712 84.7758 64.444 84.8389 64.6061 84.9088C65.2909 85.2036 65.9888 85.4507 66.1212 85.5069C66.5363 85.6875 67.1433 85.9977 67.5701 86.18C67.7057 86.238 67.7801 86.2363 67.7818 86.1221C67.7818 86.042 67.752 85.9653 67.5899 85.8937C67.5254 85.8665 67.4609 85.8392 67.3981 85.8119C66.9978 85.6415 66.8804 85.4438 66.8837 85.2053C66.8837 85.0434 66.9482 84.7349 67.0838 84.4555C67.322 83.9476 67.5585 83.4415 67.7983 82.9354C67.8281 82.8689 67.8413 82.857 67.9174 82.8894C68.9346 83.3273 69.9519 83.7653 70.9707 84.2016L70.9773 84.2067ZM78.4402 84.4861C78.4452 82.4395 78.4469 82.0578 78.4783 81.6403C78.508 81.1785 78.6139 81.0319 78.9662 81.1205C79.1101 81.1529 79.3152 81.2262 79.4624 81.2875C79.6262 81.3557 79.7006 81.3421 79.7006 81.2449C79.7006 81.1478 79.6096 81.0813 79.4178 80.9978C78.9216 80.7831 77.8646 80.3622 77.5553 80.2293C77.203 80.0793 76.381 79.6908 75.7773 79.4317C75.5854 79.3499 75.5011 79.3448 75.5011 79.4386C75.5011 79.5323 75.5705 79.6124 75.7161 79.6754C75.8782 79.7436 76.0436 79.8288 76.1412 79.9072C76.5547 80.2105 76.6704 80.4048 76.7002 80.8751C76.7118 81.3097 76.7118 81.6931 76.7019 83.7414C76.6986 84.5356 76.6953 85.3348 76.6919 86.1306C76.687 87.3763 76.682 88.4499 76.6208 89.002C76.5745 89.3837 76.5017 89.6087 76.2354 89.5576C76.1164 89.5388 75.9675 89.4928 75.7756 89.411C75.6119 89.3411 75.5672 89.4025 75.5672 89.4673C75.5672 89.561 75.6549 89.6513 75.8186 89.7212C76.0833 89.8336 76.4108 89.9597 76.7184 90.0773C77.0277 90.2085 77.3105 90.3091 77.4594 90.3738C77.9903 90.6005 78.5378 90.8578 79.1895 91.1526C79.8379 91.4628 80.5954 91.8053 81.525 92.2041C82.2015 92.4938 82.2627 92.4546 82.352 92.187C82.4578 91.8309 82.5488 90.8544 82.5488 90.6942C82.5488 90.534 82.5174 90.3772 82.4264 90.3381C82.3239 90.2954 82.2924 90.3619 82.2775 90.4846C82.2494 90.7283 82.1154 91.0572 81.9534 91.1628C81.6292 91.3929 81.1247 91.1952 80.435 90.8987C79.426 90.4642 78.9249 90.1693 78.7049 89.866C78.4253 89.4894 78.4287 88.6254 78.432 86.8804C78.4336 86.0846 78.4369 85.2871 78.4402 84.4878V84.4861Z" fill="black"/>
<path d="M104.417 81.1392C104.426 81.3658 104.444 81.9316 104.421 82.5314C104.407 82.9472 104.321 83.2489 104.077 83.4193C103.969 83.4994 103.82 83.5795 103.656 83.651C103.517 83.709 103.468 83.8129 103.47 83.8777C103.474 83.9953 103.57 83.985 103.734 83.9169C104.182 83.726 104.988 83.3307 105.284 83.2046C105.611 83.0648 106.419 82.7683 107.166 82.4496C107.33 82.3798 107.423 82.286 107.419 82.1889C107.418 82.1242 107.345 82.073 107.208 82.131C107.047 82.1991 106.786 82.2946 106.61 82.3372C106.255 82.4241 106.136 82.2111 106.096 81.8174C106.046 81.2465 106.027 80.6791 106.018 80.4541C106.005 80.0894 105.992 79.7265 105.979 79.3584C105.964 78.9068 105.922 78.4995 106.081 77.9269C106.179 77.5929 106.622 76.4324 107.09 75.2719C107.555 74.1165 108.043 72.9492 108.23 72.5965C108.473 72.1193 108.577 71.9472 108.827 71.6967C108.999 71.528 109.214 71.3712 109.335 71.3201C109.469 71.2639 109.563 71.1599 109.56 71.0645C109.558 70.9844 109.474 70.9878 109.338 71.044C109.108 71.1395 108.327 71.5007 108.071 71.6098C107.722 71.758 107.307 71.9046 106.913 72.0716C106.781 72.1278 106.713 72.1858 106.716 72.2829C106.72 72.3937 106.829 72.363 106.936 72.3494C107.143 72.3136 107.199 72.4192 107.204 72.5436C107.209 72.7192 107.166 72.9816 107.054 73.3361C106.893 73.8251 105.552 77.3509 105.413 77.7378C105.196 77.4396 103.532 74.9107 103.299 74.5869C103.198 74.4318 103.14 74.2938 103.137 74.1847C103.134 74.0739 103.198 73.9802 103.291 73.9086C103.478 73.7655 103.56 73.7314 103.557 73.6206C103.554 73.5218 103.488 73.5201 103.377 73.5661C102.838 73.7962 102.284 74.0603 102.026 74.1694C101.634 74.3347 100.737 74.6823 100.535 74.7675C100.386 74.8306 100.307 74.8987 100.31 74.9925C100.314 75.0896 100.396 75.1032 100.491 75.064C100.638 75.001 100.843 74.9925 101 75.0248C101.233 75.0725 101.485 75.2856 101.799 75.6588C102.244 76.2024 103.969 78.5148 104.058 78.6887C104.235 79.021 104.353 79.2664 104.379 80.0059C104.391 80.3826 104.404 80.7626 104.417 81.1375M99.2782 76.7102C98.6448 78.0581 98.0113 79.4061 97.3778 80.7592C97.778 81.2755 99.8853 84.1725 100.196 84.4843C100.41 84.7076 100.606 84.7723 100.869 84.7587C101.036 84.7536 101.228 84.6871 101.337 84.6411C101.42 84.6053 101.491 84.6411 101.493 84.7229C101.496 84.8184 101.402 84.9138 101.263 84.9717C101.144 85.0211 101.027 85.0723 100.909 85.1234C100.62 85.2461 99.6636 85.6551 98.6745 86.0487C98.3603 86.1629 98.2494 86.1765 98.2478 86.0811C98.2461 85.9993 98.2974 85.909 98.4049 85.8306C98.4612 85.788 98.5406 85.6551 98.4397 85.517C97.702 84.4639 97.0106 83.4431 96.435 82.6218C95.8726 83.9578 95.3119 85.2955 94.7479 86.6349C94.6305 86.9161 94.566 87.1581 94.5842 87.3012C94.6007 87.4256 94.7132 87.4597 94.824 87.412C94.8918 87.3847 94.9877 87.3592 95.0853 87.3183C95.1548 87.2893 95.2408 87.3353 95.2425 87.4154C95.2441 87.5177 95.1614 87.5841 94.9944 87.6557C94.9183 87.6898 94.8471 87.7222 94.7744 87.7528C94.7049 87.7818 93.9077 88.0732 93.6033 88.2044C93.3701 88.3033 92.778 88.6066 92.5845 88.6901C92.515 88.7208 92.4439 88.748 92.3761 88.7787C92.252 88.8315 92.1958 88.8043 92.1941 88.7225C92.1941 88.639 92.2619 88.5299 92.3562 88.489C92.4422 88.4515 92.6208 88.3578 92.7995 88.2317C93.1551 87.9658 93.342 87.6523 93.7373 86.8053C94.4932 85.2069 95.2507 83.6118 96.005 82.0219C95.2656 81.0148 94.5246 80.0111 93.7869 79.0073C93.471 78.5881 93.2213 78.4024 92.7929 78.4194C92.601 78.4365 92.4091 78.4876 92.2867 78.5387C92.2189 78.566 92.1577 78.5268 92.1561 78.4296C92.1544 78.3478 92.252 78.2746 92.4025 78.2098C92.6887 78.0905 93.6596 77.7105 94.2302 77.4685C94.3939 77.3987 95.1333 77.0561 95.5815 76.8653C95.7436 76.7971 95.8263 76.7937 95.828 76.8908C95.8296 76.9846 95.7486 77.0698 95.6411 77.1158C95.5749 77.1447 95.4525 77.2112 95.3566 77.2862C95.2491 77.3646 95.1961 77.4685 95.1978 77.5469C95.1995 77.627 95.2606 77.7838 95.3334 77.8997C95.8941 78.7688 96.4085 79.5118 96.908 80.2462C97.2471 79.4811 98.2594 77.1805 98.4512 76.7068C98.5406 76.475 98.5753 76.2637 98.572 76.1512C98.5703 76.0558 98.4843 75.9928 98.3619 76.0132C98.2395 76.0183 98.0758 76.0865 97.9798 76.1257C97.9104 76.1547 97.8277 76.1393 97.826 76.0456C97.8244 75.9502 97.9038 75.882 98.0807 75.807C98.5422 75.611 99.1013 75.41 99.3328 75.3111C99.5611 75.2123 100.051 74.9737 100.497 74.7845C100.633 74.7266 100.717 74.7283 100.721 74.822C100.722 74.9038 100.656 74.9942 100.535 75.047C100.411 75.0998 100.264 75.1918 100.102 75.3094C99.8323 75.5037 99.6272 75.9672 99.2782 76.7153V76.7102ZM86.7441 86.865C86.7045 86.882 86.6763 86.8616 86.7028 86.7832C87.0716 85.4455 87.4421 84.1111 87.8093 82.7785C87.8226 82.7257 87.8325 82.6388 87.8738 82.6218C87.9036 82.6081 87.9185 82.6848 87.9334 82.7257C88.337 83.7362 88.7389 84.7468 89.1425 85.759C89.1573 85.8033 89.1441 85.8442 89.0912 85.8664C88.3105 86.2004 87.5265 86.5327 86.7458 86.865H86.7441ZM89.3674 86.5225C89.4203 86.4986 89.4633 86.4986 89.4915 86.5668C89.8206 87.3677 90.1547 88.1686 90.4888 88.9679C90.5484 89.1076 90.469 89.2763 90.3863 89.3291C90.2606 89.399 90.2341 89.4603 90.2358 89.5421C90.2374 89.6393 90.378 89.5813 90.598 89.5047C91.6185 89.1008 92.5034 88.7242 92.9301 88.5401C93.385 88.3459 93.4545 88.2845 93.4512 88.1652C93.4495 88.0664 93.3916 88.0425 93.2808 88.0902C93.1452 88.1499 93.0046 88.1925 92.8259 88.2351C92.606 88.2675 92.2553 88.2351 91.7608 87.1785C91.3506 86.2924 90.6096 84.6445 89.938 83.1466C89.2665 81.6504 88.6578 80.2922 88.5057 79.9719C88.375 79.7162 88.3188 79.6123 88.1418 79.6856C88.0144 79.7384 87.9218 79.9412 87.7928 80.3877C87.2916 82.056 86.7905 83.7294 86.286 85.4063C85.7815 87.0882 85.277 88.7787 84.7693 90.4726C84.5294 91.2872 84.3293 91.8069 83.7735 92.1443C83.6627 92.1903 83.5238 92.267 83.413 92.3147C83.317 92.3556 83.2773 92.4408 83.2773 92.5226C83.2773 92.6402 83.3468 92.6436 83.5006 92.5789C84.1424 92.3062 84.7924 91.9739 84.9165 91.9228C85.3052 91.7575 85.8741 91.5615 86.2777 91.3894C86.4051 91.3366 86.4729 91.2735 86.4712 91.1559C86.4712 91.0724 86.4382 91.0179 86.2893 91.0827C86.2281 91.1099 86.1686 91.1372 86.109 91.1628C85.7319 91.3212 85.6194 91.219 85.6161 90.9753C85.6145 90.81 85.6608 90.4402 85.7799 90.0414C85.985 89.3223 86.1934 88.6066 86.4001 87.8909C86.4266 87.7954 86.4415 87.7733 86.5109 87.7443C87.4636 87.337 88.418 86.9349 89.3691 86.5259L89.3674 86.5225Z" fill="black"/>
</svg>
