<svg width="25" height="25" viewBox="0 0 25 25" fill="none" xmlns="http://www.w3.org/2000/svg">
<g opacity="0.7">
<path d="M12.3337 9.54546C10.5388 9.54546 9.08368 11.0005 9.08368 12.7955C9.08368 14.5904 10.5388 16.0455 12.3337 16.0455C14.1286 16.0455 15.5837 14.5904 15.5837 12.7955C15.5837 11.0005 14.1286 9.54546 12.3337 9.54546Z" fill="white"/>
<path fill-rule="evenodd" clip-rule="evenodd" d="M7.10322 3.87692C10.5513 3.49155 14.116 3.49155 17.5642 3.87692C19.4626 4.0891 20.9938 5.58488 21.2166 7.48993C21.6289 11.0149 21.6289 14.576 21.2166 18.101C20.9938 20.006 19.4626 21.5018 17.5642 21.714C14.116 22.0994 10.5513 22.0994 7.10322 21.714C5.20482 21.5018 3.67363 20.006 3.45081 18.101C3.03853 14.576 3.03853 11.0149 3.45081 7.48993C3.67363 5.58488 5.20482 4.0891 7.10322 3.87692ZM17.3337 6.79546C16.7814 6.79546 16.3337 7.24317 16.3337 7.79546C16.3337 8.34774 16.7814 8.79546 17.3337 8.79546C17.886 8.79546 18.3337 8.34774 18.3337 7.79546C18.3337 7.24317 17.886 6.79546 17.3337 6.79546ZM7.58368 12.7955C7.58368 10.1721 9.71033 8.04546 12.3337 8.04546C14.957 8.04546 17.0837 10.1721 17.0837 12.7955C17.0837 15.4188 14.957 17.5455 12.3337 17.5455C9.71033 17.5455 7.58368 15.4188 7.58368 12.7955Z" fill="white"/>
</g>
</svg>
