<svg width="24" height="25" viewBox="0 0 24 25" fill="none" xmlns="http://www.w3.org/2000/svg">
<path d="M14.5821 12.27C14.5821 12.7811 14.4305 13.2807 14.1466 13.7056C13.8626 14.1306 13.4591 14.4618 12.9869 14.6573C12.5148 14.8529 11.9952 14.9041 11.4939 14.8044C10.9927 14.7047 10.5323 14.4586 10.1709 14.0972C9.80952 13.7358 9.56342 13.2754 9.46371 12.7741C9.36401 12.2729 9.41518 11.7533 9.61076 11.2812C9.80634 10.809 10.1375 10.4055 10.5625 10.1215C10.9874 9.83758 11.487 9.68604 11.9981 9.68604C12.6831 9.68708 13.3397 9.95966 13.8241 10.444C14.3084 10.9284 14.581 11.585 14.5821 12.27Z" fill="#191919"/>
<path d="M15.0176 6.46729H8.9856C8.64992 6.46775 8.31763 6.53434 8.00769 6.66326C7.69776 6.79217 7.41626 6.98088 7.17927 7.21861C6.94228 7.45634 6.75445 7.73843 6.62651 8.04877C6.49856 8.35911 6.43301 8.69161 6.4336 9.02728V15.5233C6.43302 15.859 6.49857 16.1915 6.62651 16.5018C6.75446 16.8121 6.94229 17.0942 7.17928 17.3319C7.41626 17.5697 7.69776 17.7584 8.0077 17.8873C8.31763 18.0162 8.64992 18.0828 8.9856 18.0833H15.0176C15.3533 18.0828 15.6856 18.0162 15.9955 17.8873C16.3054 17.7584 16.5869 17.5697 16.8239 17.3319C17.0609 17.0942 17.2487 16.8121 17.3767 16.5018C17.5046 16.1915 17.5702 15.859 17.5696 15.5233V9.02728C17.5702 8.69161 17.5046 8.35911 17.3767 8.04877C17.2487 7.73843 17.0609 7.45634 16.8239 7.21861C16.5869 6.98088 16.3054 6.79217 15.9955 6.66326C15.6856 6.53434 15.3533 6.46775 15.0176 6.46729ZM12.0016 16.2593C11.2136 16.2593 10.4434 16.0256 9.78821 15.5879C9.13304 15.1501 8.6224 14.5279 8.32086 13.7999C8.01932 13.0719 7.94043 12.2709 8.09415 11.498C8.24787 10.7252 8.62731 10.0153 9.18448 9.45817C9.74166 8.901 10.4515 8.52156 11.2244 8.36784C11.9972 8.21411 12.7982 8.29301 13.5262 8.59455C14.2542 8.89609 14.8764 9.40673 15.3142 10.0619C15.7519 10.7171 15.9856 11.4873 15.9856 12.2753C15.9828 13.331 15.5621 14.3428 14.8156 15.0893C14.0691 15.8358 13.0574 16.2565 12.0016 16.2593ZM15.9456 8.93928C15.8657 8.93932 15.7867 8.92362 15.7129 8.89308C15.6391 8.86254 15.5721 8.81776 15.5156 8.7613C15.4591 8.70484 15.4144 8.63781 15.3838 8.56403C15.3533 8.49025 15.3376 8.41118 15.3376 8.33132C15.3377 8.25189 15.3536 8.17327 15.3843 8.10001C15.415 8.02675 15.4599 7.9603 15.5164 7.9045C15.573 7.84871 15.64 7.80467 15.7137 7.77495C15.7873 7.74522 15.8662 7.7304 15.9456 7.73133C16.0246 7.73055 16.103 7.74554 16.1761 7.77541C16.2493 7.80529 16.3157 7.84946 16.3716 7.90533C16.4275 7.9612 16.4716 8.02765 16.5015 8.1008C16.5314 8.17394 16.5464 8.25232 16.5456 8.33132C16.5465 8.41075 16.5317 8.48957 16.502 8.56323C16.4722 8.63689 16.4282 8.70393 16.3724 8.76047C16.3166 8.817 16.2502 8.86191 16.1769 8.89261C16.1037 8.9233 16.025 8.93917 15.9456 8.93928Z" fill="#191919"/>
<path d="M12 0.271973C9.62663 0.271973 7.30655 0.97576 5.33316 2.29434C3.35977 3.61291 1.8217 5.48706 0.913451 7.67977C0.00519953 9.87248 -0.232441 12.2853 0.230582 14.6131C0.693605 16.9408 1.83649 19.079 3.51472 20.7572C5.19295 22.4355 7.33115 23.5784 9.65892 24.0414C11.9867 24.5044 14.3995 24.2668 16.5922 23.3585C18.7849 22.4503 20.6591 20.9122 21.9776 18.9388C23.2962 16.9654 24 14.6453 24 12.272C23.9989 9.08973 22.7342 6.03815 20.484 3.78796C18.2338 1.53778 15.1822 0.273124 12 0.271973ZM18.96 15.52C18.9609 16.567 18.5459 17.5715 17.8063 18.3126C17.0667 19.0537 16.063 19.4708 15.016 19.472H8.984C7.93698 19.4708 6.93329 19.0537 6.19368 18.3126C5.45407 17.5715 5.03909 16.567 5.04001 15.52V9.02397C5.03909 7.97694 5.45407 6.97242 6.19368 6.23131C6.93329 5.49019 7.93698 5.07318 8.984 5.07197H15.016C16.063 5.07318 17.0667 5.49019 17.8063 6.23131C18.5459 6.97242 18.9609 7.97694 18.96 9.02397V15.52Z" fill="#191919"/>
</svg>
