<svg width="24" height="25" viewBox="0 0 24 25" fill="none" xmlns="http://www.w3.org/2000/svg">
<g clip-path="url(#clip0_385_157)">
<path d="M12 0.271973C9.62663 0.271973 7.30655 0.97576 5.33316 2.29434C3.35977 3.61291 1.8217 5.48706 0.913451 7.67977C0.00519938 9.87249 -0.232441 12.2853 0.230582 14.6131C0.693605 16.9408 1.83649 19.079 3.51472 20.7573C5.19296 22.4355 7.33115 23.5784 9.65892 24.0414C11.9867 24.5044 14.3995 24.2668 16.5922 23.3585C18.7849 22.4503 20.6591 20.9122 21.9776 18.9388C23.2962 16.9654 24 14.6454 24 12.272C24 9.08938 22.7357 6.03713 20.4853 3.78669C18.2349 1.53625 15.1826 0.271973 12 0.271973ZM8.51053 18.5878H5.89264V10.1546H8.51053V18.5878ZM7.20001 9.00355C6.89872 9.0048 6.60383 8.91669 6.35261 8.75038C6.10138 8.58406 5.90511 8.347 5.78859 8.06915C5.67207 7.79131 5.64053 7.48516 5.69797 7.1894C5.75541 6.89363 5.89925 6.62154 6.11129 6.40751C6.32334 6.19347 6.59408 6.04711 6.8893 5.98692C7.18451 5.92672 7.49094 5.9554 7.76986 6.06933C8.04878 6.18325 8.28766 6.37731 8.45631 6.62697C8.62496 6.87663 8.71581 7.17069 8.71737 7.47197C8.71822 7.87598 8.55908 8.26388 8.27474 8.55088C7.9904 8.83788 7.604 9.00063 7.20001 9.00355ZM18.3158 18.5878H15.6995V14.4825C15.6995 13.5036 15.6805 12.2483 14.3384 12.2483C12.9963 12.2483 12.7595 13.3125 12.7595 14.4114V18.5878H10.1526V10.1546H12.6647V11.3041H12.7011C13.05 10.6409 13.9042 9.94145 15.1784 9.94145C17.8279 9.94145 18.3158 11.6878 18.3158 13.9551V18.5878Z" fill="#191919"/>
</g>
<defs>
<clipPath id="clip0_385_157">
<rect width="24" height="24" fill="white" transform="translate(0 0.271973)"/>
</clipPath>
</defs>
</svg>
