<svg width="24" height="25" viewBox="0 0 24 25" fill="none" xmlns="http://www.w3.org/2000/svg">
<g opacity="0.7">
<path d="M4.75 2.67041C3.57639 2.67041 2.625 3.6218 2.625 4.79541C2.625 5.96902 3.57639 6.92041 4.75 6.92041C5.9236 6.92041 6.875 5.96902 6.875 4.79541C6.875 3.6218 5.9236 2.67041 4.75 2.67041Z" fill="white"/>
<path d="M2.75 8.67041C2.68096 8.67041 2.625 8.72637 2.625 8.79541V21.7954C2.625 21.8644 2.68096 21.9204 2.75 21.9204H6.75C6.81904 21.9204 6.875 21.8644 6.875 21.7954V8.79541C6.875 8.72637 6.81904 8.67041 6.75 8.67041H2.75Z" fill="white"/>
<path d="M9.25 8.67041C9.18096 8.67041 9.125 8.72637 9.125 8.79541V21.7954C9.125 21.8644 9.18096 21.9204 9.25 21.9204H13.25C13.319 21.9204 13.375 21.8644 13.375 21.7954V14.7954C13.375 14.2981 13.5725 13.8212 13.9242 13.4696C14.2758 13.118 14.7527 12.9204 15.25 12.9204C15.7473 12.9204 16.2242 13.118 16.5758 13.4696C16.9275 13.8212 17.125 14.2981 17.125 14.7954V21.7954C17.125 21.8644 17.181 21.9204 17.25 21.9204H21.25C21.319 21.9204 21.375 21.8644 21.375 21.7954V13.1757C21.375 10.7489 19.2644 8.8504 16.8498 9.06991C16.1052 9.1376 15.369 9.32272 14.6815 9.61735L13.375 10.1773V8.79541C13.375 8.72637 13.319 8.67041 13.25 8.67041H9.25Z" fill="white"/>
</g>
</svg>
