<svg width="17" height="17" viewBox="0 0 17 17" fill="none" xmlns="http://www.w3.org/2000/svg">
<mask id="mask0_2335_386" style="mask-type:alpha" maskUnits="userSpaceOnUse" x="0" y="0" width="17" height="17">
<rect x="0.5" y="0.502441" width="16" height="16" fill="#D9D9D9"/>
</mask>
<g mask="url(#mask0_2335_386)">
<path d="M3.16634 13.8361C2.79967 13.8361 2.48579 13.7055 2.22467 13.4444C1.96356 13.1833 1.83301 12.8694 1.83301 12.5028V4.50277C1.83301 4.1361 1.96356 3.82221 2.22467 3.5611C2.48579 3.29999 2.79967 3.16943 3.16634 3.16943H13.833C14.1997 3.16943 14.5136 3.29999 14.7747 3.5611C15.0358 3.82221 15.1663 4.1361 15.1663 4.50277V12.5028C15.1663 12.8694 15.0358 13.1833 14.7747 13.4444C14.5136 13.7055 14.1997 13.8361 13.833 13.8361H3.16634ZM8.49967 9.16943L13.833 5.8361V4.50277L8.49967 7.8361L3.16634 4.50277V5.8361L8.49967 9.16943Z" fill="white"/>
</g>
</svg>
