<svg width="1160" height="148" viewBox="0 0 1160 148" fill="none" xmlns="http://www.w3.org/2000/svg">
<path d="M1130.44 110.467C1124.43 110.467 1119.03 109.387 1114.25 107.228C1109.46 104.975 1105.66 101.971 1102.84 98.2154C1100.03 94.3663 1098.52 90.0948 1098.34 85.4007H1114.95C1115.23 88.9682 1116.78 91.9254 1119.6 94.2724C1122.5 96.6194 1126.12 97.793 1130.44 97.793C1134.94 97.793 1138.41 96.9011 1140.85 95.1174C1143.39 93.2398 1144.65 90.7519 1144.65 87.6539C1144.65 84.8375 1143.25 82.6782 1140.43 81.1761C1137.62 79.674 1133.25 78.172 1127.34 76.6699C1121.61 75.0739 1116.92 73.5718 1113.26 72.1636C1109.69 70.6615 1106.6 68.4084 1103.97 65.4042C1101.34 62.3062 1100.03 58.3163 1100.03 53.4345C1100.03 49.2099 1101.2 45.3608 1103.55 41.8872C1105.89 38.3197 1109.27 35.5033 1113.68 33.438C1118.19 31.3726 1123.44 30.3399 1129.45 30.3399C1138.27 30.3399 1145.36 32.593 1150.71 37.0993C1156.15 41.5117 1159.06 47.567 1159.44 55.2651H1143.39C1143.11 51.5099 1141.7 48.5527 1139.16 46.3934C1136.63 44.1403 1133.2 43.0137 1128.89 43.0137C1124.66 43.0137 1121.43 43.9056 1119.17 45.6893C1116.92 47.3792 1115.79 49.6793 1115.79 52.5896C1115.79 54.6549 1116.55 56.3917 1118.05 57.7999C1119.55 59.2081 1121.43 60.3347 1123.68 61.1796C1125.93 61.9306 1129.12 62.8695 1133.25 63.996C1138.88 65.4981 1143.48 67.0002 1147.05 68.5023C1150.61 70.0044 1153.66 72.3044 1156.2 75.4025C1158.73 78.4067 1160 82.3496 1160 87.2314C1160 91.6438 1158.83 95.6337 1156.48 99.2012C1154.13 102.675 1150.71 105.444 1146.2 107.51C1141.79 109.481 1136.54 110.467 1130.44 110.467Z" fill="black"/>
<path d="M1088.53 4.9922V109.199H1072.48V4.9922H1088.53Z" fill="black"/>
<path d="M978.755 70.0513C978.755 62.2592 980.351 55.359 983.542 49.3507C986.827 43.3423 991.238 38.6953 996.775 35.4094C1002.41 32.0297 1008.6 30.3399 1015.36 30.3399C1021.46 30.3399 1026.76 31.5603 1031.27 34.0012C1035.87 36.3482 1039.53 39.3055 1042.25 42.8729V31.6073H1058.44V109.199H1042.25V97.6521C1039.53 101.313 1035.82 104.365 1031.13 106.805C1026.43 109.246 1021.08 110.467 1015.08 110.467C1008.41 110.467 1002.31 108.777 996.775 105.397C991.238 101.924 986.827 97.1358 983.542 91.0336C980.351 84.8375 978.755 77.8434 978.755 70.0513ZM1042.25 70.3329C1042.25 64.9818 1041.12 60.3347 1038.87 56.3917C1036.71 52.4487 1033.85 49.4446 1030.28 47.3792C1026.72 45.3138 1022.87 44.2811 1018.74 44.2811C1014.61 44.2811 1010.76 45.3138 1007.19 47.3792C1003.63 49.3507 1000.72 52.3079 998.465 56.2509C996.306 60.1 995.227 64.7001 995.227 70.0513C995.227 75.4025 996.306 80.0965 998.465 84.1334C1000.72 88.1702 1003.63 91.2683 1007.19 93.4275C1010.85 95.4929 1014.7 96.5256 1018.74 96.5256C1022.87 96.5256 1026.72 95.4929 1030.28 93.4275C1033.85 91.3621 1036.71 88.358 1038.87 84.415C1041.12 80.3781 1042.25 75.6841 1042.25 70.3329Z" fill="black"/>
<path d="M957.487 44.7036V87.6539C957.487 90.5642 958.144 92.6765 959.458 93.9908C960.866 95.2112 963.212 95.8215 966.497 95.8215H976.352V109.199H963.682C956.455 109.199 950.917 107.51 947.069 104.13C943.221 100.75 941.297 95.2582 941.297 87.6539V44.7036H932.146V31.6073H941.297V12.3149H957.487V31.6073H976.352V44.7036H957.487Z" fill="black"/>
<path d="M916.847 21.3274C913.938 21.3274 911.497 20.3416 909.526 18.3701C907.555 16.3987 906.57 13.9578 906.57 11.0475C906.57 8.13719 907.555 5.6963 909.526 3.72481C911.497 1.75332 913.938 0.767578 916.847 0.767578C919.663 0.767578 922.056 1.75332 924.027 3.72481C925.998 5.6963 926.984 8.13719 926.984 11.0475C926.984 13.9578 925.998 16.3987 924.027 18.3701C922.056 20.3416 919.663 21.3274 916.847 21.3274ZM924.731 31.6073V109.199H908.682V31.6073H924.731Z" fill="black"/>
<path d="M851.561 30.3399C857.568 30.3399 862.871 31.5603 867.47 34.0012C872.162 36.3482 875.823 39.3055 878.451 42.8729V31.6073H894.641V110.467C894.641 117.602 893.139 123.939 890.136 129.478C887.132 135.11 882.768 139.523 877.043 142.715C871.412 145.907 864.654 147.503 856.77 147.503C846.258 147.503 837.53 145.015 830.585 140.039C823.639 135.157 819.697 128.492 818.759 120.043H834.667C835.887 124.079 838.469 127.318 842.41 129.759C846.446 132.294 851.233 133.561 856.77 133.561C863.246 133.561 868.455 131.59 872.397 127.647C876.433 123.704 878.451 117.977 878.451 110.467V97.5113C875.729 101.173 872.022 104.271 867.329 106.805C862.73 109.246 857.474 110.467 851.561 110.467C844.804 110.467 838.609 108.777 832.978 105.397C827.44 101.924 823.029 97.1358 819.744 91.0336C816.553 84.8375 814.958 77.8434 814.958 70.0513C814.958 62.2592 816.553 55.359 819.744 49.3507C823.029 43.3423 827.44 38.6953 832.978 35.4094C838.609 32.0297 844.804 30.3399 851.561 30.3399ZM878.451 70.3329C878.451 64.9818 877.324 60.3347 875.072 56.3917C872.913 52.4487 870.051 49.4446 866.484 47.3792C862.918 45.3138 859.07 44.2811 854.94 44.2811C850.81 44.2811 846.962 45.3138 843.396 47.3792C839.829 49.3507 836.92 52.3079 834.667 56.2509C832.509 60.1 831.429 64.7001 831.429 70.0513C831.429 75.4025 832.509 80.0965 834.667 84.1334C836.92 88.1702 839.829 91.2683 843.396 93.4275C847.056 95.4929 850.904 96.5256 854.94 96.5256C859.07 96.5256 862.918 95.4929 866.484 93.4275C870.051 91.3621 872.913 88.358 875.072 84.415C877.324 80.3781 878.451 75.6841 878.451 70.3329Z" fill="black"/>
<path d="M798.392 21.3274C795.482 21.3274 793.042 20.3416 791.071 18.3701C789.1 16.3987 788.114 13.9578 788.114 11.0475C788.114 8.13719 789.1 5.6963 791.071 3.72481C793.042 1.75332 795.482 0.767578 798.392 0.767578C801.207 0.767578 803.601 1.75332 805.571 3.72481C807.542 5.6963 808.528 8.13719 808.528 11.0475C808.528 13.9578 807.542 16.3987 805.571 18.3701C803.601 20.3416 801.207 21.3274 798.392 21.3274ZM806.275 31.6073V109.199H790.226V31.6073H806.275Z" fill="black"/>
<path d="M729.41 11.3291C739.828 11.3291 748.932 13.3476 756.722 17.3844C764.606 21.3274 770.66 27.0541 774.883 34.5645C779.2 41.9811 781.359 50.665 781.359 60.6163C781.359 70.5676 779.2 79.2046 774.883 86.5273C770.66 93.85 764.606 99.4828 756.722 103.426C748.932 107.275 739.828 109.199 729.41 109.199H697.452V11.3291H729.41ZM729.41 96.948C740.767 96.948 749.495 93.7092 755.596 87.2314C761.79 80.7537 764.887 71.882 764.887 60.6163C764.887 49.2568 761.79 40.3851 755.596 34.0012C749.495 27.5235 740.767 24.2846 729.41 24.2846H713.502V96.948H729.41Z" fill="black"/>
<path d="M601.112 31.6073L622.933 90.7519L645.599 31.6073H662.212L614.627 145.672H598.015L613.782 107.932L583.233 31.6073H601.112Z" fill="black"/>
<path d="M556.441 45.1261C558.787 40.432 561.884 36.8176 565.733 34.2829C569.674 31.6542 574.32 30.3399 579.67 30.3399V46.9567H575.587C569.299 46.9567 564.512 48.5527 561.227 51.7446C558.036 54.9366 556.441 60.4755 556.441 68.3615V109.199H540.392V31.6073H556.441V45.1261Z" fill="black"/>
<path d="M509.449 45.1261C511.795 40.432 514.893 36.8176 518.741 34.2829C522.683 31.6542 527.329 30.3399 532.678 30.3399V46.9567H528.596C522.307 46.9567 517.521 48.5527 514.236 51.7446C511.045 54.9366 509.449 60.4755 509.449 68.3615V109.199H493.4V31.6073H509.449V45.1261Z" fill="black"/>
<path d="M484.645 68.2206C484.645 70.9432 484.457 73.4779 484.082 75.8249H424.671C425.141 82.3027 427.44 87.4661 431.57 91.3152C435.699 95.0704 440.815 96.948 446.915 96.948C455.55 96.948 461.65 93.3336 465.217 86.1049H482.533C480.187 93.2398 475.916 99.1073 469.722 103.707C463.621 108.214 456.019 110.467 446.915 110.467C439.501 110.467 432.837 108.824 426.924 105.538C421.105 102.158 416.506 97.4644 413.127 91.456C409.842 85.3538 408.2 78.3128 408.2 70.3329C408.2 62.3531 409.795 55.359 412.986 49.3507C416.271 43.2485 420.823 38.5544 426.642 35.2686C432.555 31.9828 439.313 30.3399 446.915 30.3399C454.236 30.3399 460.759 31.9359 466.484 35.1278C472.209 38.3197 476.667 42.7791 479.858 48.5058C483.049 54.2325 484.645 60.8041 484.645 68.2206ZM467.892 64.2777C467.798 57.9877 465.686 53.012 461.557 49.3507C457.521 45.6893 452.406 43.8587 446.211 43.8587C440.58 43.8587 435.746 45.6893 431.711 49.3507C427.769 53.012 425.469 57.9877 424.812 64.2777H467.892Z" fill="black"/>
<path d="M341.225 43.1546C343.946 39.3994 347.654 36.3482 352.346 34.0012C357.133 31.5603 362.436 30.3399 368.255 30.3399C375.106 30.3399 381.301 31.9828 386.838 35.2686C392.376 38.5544 396.74 43.2485 399.931 49.3507C403.122 55.359 404.718 62.2592 404.718 70.0513C404.718 77.8434 403.122 84.8375 399.931 91.0336C396.74 97.1358 392.329 101.924 386.697 105.397C381.16 108.777 375.013 110.467 368.255 110.467C362.248 110.467 356.898 109.293 352.206 106.946C347.607 104.599 343.946 101.595 341.225 97.9338V109.199H325.175V4.9922H341.225V43.1546ZM388.387 70.0513C388.387 64.7001 387.261 60.1 385.008 56.2509C382.849 52.3079 379.94 49.3507 376.28 47.3792C372.713 45.3138 368.865 44.2811 364.735 44.2811C360.7 44.2811 356.852 45.3138 353.191 47.3792C349.625 49.4446 346.715 52.4487 344.463 56.3917C342.304 60.3347 341.225 64.9818 341.225 70.3329C341.225 75.6841 342.304 80.3781 344.463 84.415C346.715 88.358 349.625 91.3621 353.191 93.4275C356.852 95.4929 360.7 96.5256 364.735 96.5256C368.865 96.5256 372.713 95.4929 376.28 93.4275C379.94 91.2683 382.849 88.1702 385.008 84.1334C387.261 80.0965 388.387 75.4025 388.387 70.0513Z" fill="black"/>
<path d="M316.42 68.2206C316.42 70.9432 316.233 73.4779 315.857 75.8249H256.447C256.916 82.3027 259.216 87.4661 263.345 91.3152C267.475 95.0704 272.59 96.948 278.691 96.948C287.325 96.948 293.426 93.3336 296.992 86.1049H314.309C311.962 93.2398 307.692 99.1073 301.497 103.707C295.397 108.214 287.795 110.467 278.691 110.467C271.276 110.467 264.612 108.824 258.699 105.538C252.88 102.158 248.282 97.4644 244.903 91.456C241.618 85.3538 239.975 78.3128 239.975 70.3329C239.975 62.3531 241.571 55.359 244.762 49.3507C248.047 43.2485 252.599 38.5544 258.418 35.2686C264.331 31.9828 271.088 30.3399 278.691 30.3399C286.011 30.3399 292.534 31.9359 298.259 35.1278C303.985 38.3197 308.443 42.7791 311.634 48.5058C314.825 54.2325 316.42 60.8041 316.42 68.2206ZM299.667 64.2777C299.573 57.9877 297.462 53.012 293.332 49.3507C289.296 45.6893 284.181 43.8587 277.987 43.8587C272.355 43.8587 267.522 45.6893 263.486 49.3507C259.544 53.012 257.245 57.9877 256.588 64.2777H299.667Z" fill="black"/>
<path d="M205.036 110.467C199.029 110.467 193.633 109.387 188.846 107.228C184.059 104.975 180.258 101.971 177.442 98.2154C174.627 94.3663 173.125 90.0948 172.937 85.4007H189.55C189.831 88.9682 191.38 91.9254 194.196 94.2724C197.105 96.6194 200.719 97.793 205.036 97.793C209.541 97.793 213.014 96.9011 215.454 95.1174C217.988 93.2398 219.255 90.7519 219.255 87.6539C219.255 84.8375 217.847 82.6782 215.031 81.1761C212.216 79.674 207.852 78.172 201.939 76.6699C196.214 75.0739 191.521 73.5718 187.86 72.1636C184.294 70.6615 181.197 68.4084 178.569 65.4042C175.941 62.3062 174.627 58.3163 174.627 53.4345C174.627 49.2099 175.8 45.3608 178.146 41.8872C180.493 38.3197 183.872 35.5033 188.283 33.438C192.788 31.3726 198.044 30.3399 204.05 30.3399C212.873 30.3399 219.959 32.593 225.309 37.0993C230.752 41.5117 233.662 47.567 234.037 55.2651H217.988C217.706 51.5099 216.299 48.5527 213.764 46.3934C211.23 44.1403 207.805 43.0137 203.487 43.0137C199.264 43.0137 196.026 43.9056 193.773 45.6893C191.521 47.3792 190.394 49.6793 190.394 52.5896C190.394 54.6549 191.145 56.3917 192.647 57.7999C194.149 59.2081 196.026 60.3347 198.278 61.1796C200.531 61.9306 203.722 62.8695 207.852 63.996C213.483 65.4981 218.082 67.0002 221.648 68.5023C225.215 70.0044 228.265 72.3044 230.799 75.4025C233.333 78.4067 234.6 82.3496 234.6 87.2314C234.6 91.6438 233.427 95.6337 231.081 99.2012C228.734 102.675 225.309 105.444 220.804 107.51C216.392 109.481 211.137 110.467 205.036 110.467Z" fill="black"/>
<path d="M128.071 110.467C120.75 110.467 114.133 108.824 108.22 105.538C102.307 102.158 97.6615 97.4644 94.2827 91.456C90.9039 85.3538 89.2145 78.3128 89.2145 70.3329C89.2145 62.447 90.9509 55.4529 94.4235 49.3507C97.8961 43.2485 102.636 38.5544 108.643 35.2686C114.649 31.9828 121.36 30.3399 128.775 30.3399C136.189 30.3399 142.9 31.9828 148.906 35.2686C154.913 38.5544 159.653 43.2485 163.126 49.3507C166.598 55.4529 168.334 62.447 168.334 70.3329C168.334 78.2189 166.551 85.213 162.985 91.3152C159.418 97.4174 154.538 102.158 148.343 105.538C142.243 108.824 135.485 110.467 128.071 110.467ZM128.071 96.948C132.2 96.948 136.048 95.9154 139.615 93.85C143.275 91.7846 146.232 88.7804 148.484 84.8375C150.737 80.8006 151.863 75.9658 151.863 70.3329C151.863 64.7001 150.784 59.9122 148.625 55.9692C146.466 51.9324 143.604 48.9282 140.037 46.9567C136.471 44.8914 132.623 43.8587 128.493 43.8587C124.363 43.8587 120.562 44.8914 117.09 46.9567C113.617 48.9282 110.801 51.9324 108.643 55.9692C106.578 59.9122 105.545 64.7001 105.545 70.3329C105.545 75.9658 106.531 80.8006 108.502 84.8375C110.567 88.8743 113.288 91.9254 116.667 93.9908C120.14 95.9623 123.941 96.948 128.071 96.948Z" fill="black"/>
<path d="M80.387 109.199H64.3378L16.0492 36.1135V109.199H0V11.1883H16.0492L64.3378 84.1334V11.1883H80.387V109.199Z" fill="black"/>
</svg>
