<svg width="16" height="17" viewBox="0 0 16 17" fill="none" xmlns="http://www.w3.org/2000/svg">
<mask id="mask0_2335_381" style="mask-type:alpha" maskUnits="userSpaceOnUse" x="0" y="0" width="16" height="17">
<rect y="0.502441" width="16" height="16" fill="#D9D9D9"/>
</mask>
<g mask="url(#mask0_2335_381)">
<path d="M13.3 14.5024C11.9111 14.5024 10.5389 14.1997 9.18333 13.5941C7.82778 12.9886 6.59444 12.1302 5.48333 11.0191C4.37222 9.908 3.51389 8.67466 2.90833 7.31911C2.30278 5.96355 2 4.59133 2 3.20244C2 3.00244 2.06667 2.83577 2.2 2.70244C2.33333 2.56911 2.5 2.50244 2.7 2.50244H5.4C5.55556 2.50244 5.69444 2.55522 5.81667 2.66077C5.93889 2.76633 6.01111 2.89133 6.03333 3.03577L6.46667 5.36911C6.48889 5.54689 6.48333 5.69689 6.45 5.81911C6.41667 5.94133 6.35556 6.04689 6.26667 6.13578L4.65 7.76911C4.87222 8.18022 5.13611 8.57744 5.44167 8.96077C5.74722 9.34411 6.08333 9.71355 6.45 10.0691C6.79444 10.4136 7.15556 10.733 7.53333 11.0274C7.91111 11.3219 8.31111 11.5913 8.73333 11.8358L10.3 10.2691C10.4 10.1691 10.5306 10.0941 10.6917 10.0441C10.8528 9.99411 11.0111 9.98022 11.1667 10.0024L13.4667 10.4691C13.6222 10.5136 13.75 10.5941 13.85 10.7108C13.95 10.8274 14 10.958 14 11.1024V13.8024C14 14.0024 13.9333 14.1691 13.8 14.3024C13.6667 14.4358 13.5 14.5024 13.3 14.5024Z" fill="white"/>
</g>
</svg>
