<svg width="25" height="25" viewBox="0 0 25 25" fill="none" xmlns="http://www.w3.org/2000/svg">
<path d="M21.0462 20.7947H20.9614C19.316 20.7947 17.6708 20.7945 16.0253 20.7954C15.9801 20.7954 15.9483 20.7864 15.919 20.7471C14.9136 19.4002 13.9069 18.0543 12.9002 16.7083C12.3685 15.9974 11.8368 15.2865 11.305 14.5756C11.2925 14.5589 11.2794 14.5429 11.2629 14.5221C11.2243 14.5611 11.1869 14.5968 11.152 14.6346C10.0931 15.7781 9.03452 16.9218 7.97579 18.0655C7.14582 18.9621 6.31598 19.8589 5.48463 20.7543C5.46481 20.7756 5.42832 20.7929 5.39953 20.793C4.93872 20.7954 4.47791 20.7948 4.01723 20.7945C4.0012 20.7945 3.98529 20.7925 3.9541 20.7902C6.17067 18.3957 8.37827 16.0108 10.5907 13.6208C8.39291 10.6823 6.19667 7.74574 3.99349 4.79995C4.02745 4.79844 4.04942 4.79667 4.07151 4.79667C5.71895 4.79655 7.36651 4.79667 9.01394 4.79541C9.06393 4.79541 9.09347 4.81182 9.12276 4.85096C10.5304 6.73498 11.9391 8.61825 13.3478 10.5016C13.3654 10.5251 13.3833 10.5484 13.4058 10.5778C13.4511 10.5298 13.4943 10.4851 13.5363 10.4397C14.8233 9.04876 16.1101 7.65774 17.3972 6.26698C17.8385 5.79001 18.2803 5.31341 18.7232 4.83796C18.7422 4.8175 18.7749 4.79844 18.8013 4.79819C19.2748 4.79579 19.7482 4.79655 20.2215 4.79667C20.2274 4.79667 20.2335 4.79844 20.2545 4.8016C18.1925 7.02915 16.1368 9.25 14.0764 11.4759C16.3968 14.5781 18.7153 17.6783 21.0462 20.7947ZM6.19983 5.90338C6.22356 5.93645 6.23745 5.9564 6.25197 5.97597C7.2674 7.33353 8.28283 8.6911 9.29838 10.0487C10.13 11.1604 10.9617 12.272 11.7933 13.3838C13.3544 15.4708 14.9154 17.558 16.4757 19.6457C16.5012 19.6797 16.5279 19.692 16.5701 19.692C17.3044 19.6907 18.0386 19.6911 18.7729 19.691C18.7907 19.691 18.8084 19.6892 18.8338 19.6878C18.82 19.667 18.8117 19.6531 18.8019 19.6401C18.0351 18.6141 17.2681 17.5882 16.501 16.5623C15.5713 15.319 14.6415 14.0759 13.7116 12.8327C11.9967 10.5401 10.2817 8.24771 8.5679 5.95438C8.53949 5.91638 8.51109 5.90211 8.46387 5.90224C7.73591 5.90376 7.00795 5.90325 6.27987 5.90325L6.19983 5.90338Z" fill="#BAB7C3"/>
</svg>
