<svg width="24" height="25" viewBox="0 0 24 25" fill="none" xmlns="http://www.w3.org/2000/svg">
<g opacity="0.7">
<path fill-rule="evenodd" clip-rule="evenodd" d="M6.98901 5.68596C10.3247 5.42499 13.6756 5.42499 17.0113 5.68596L19.252 5.86126C20.5001 5.95891 21.5211 6.8943 21.7274 8.12907C22.2436 11.2186 22.2436 14.3723 21.7274 17.4618C21.5211 18.6966 20.5001 19.632 19.252 19.7296L17.0113 19.9049C13.6756 20.1659 10.3247 20.1659 6.989 19.9049L4.7483 19.7296C3.50023 19.632 2.47921 18.6966 2.2729 17.4618C1.75669 14.3723 1.75669 11.2186 2.2729 8.12907C2.47921 6.8943 3.50023 5.95891 4.7483 5.86126L6.98901 5.68596ZM10.0001 15.2656V10.3253C10.0001 10.0921 10.2545 9.94808 10.4545 10.068L14.5714 12.5382C14.7656 12.6547 14.7656 12.9362 14.5714 13.0527L10.4545 15.5228C10.2545 15.6428 10.0001 15.4988 10.0001 15.2656Z" fill="white"/>
</g>
</svg>
