<svg width="24" height="25" viewBox="0 0 24 25" fill="none" xmlns="http://www.w3.org/2000/svg">
<path d="M12 24.272C18.6274 24.272 24 18.8994 24 12.272C24 5.64456 18.6274 0.271973 12 0.271973C5.37258 0.271973 0 5.64456 0 12.272C0 18.8994 5.37258 24.272 12 24.272Z" fill="#191919"/>
<path d="M16.244 7.62354H7.75336C6.42003 7.62354 5.33203 8.71154 5.33203 10.0449V14.4875C5.33203 15.8209 6.42003 16.9089 7.75336 16.9089H16.244C17.5774 16.9089 18.6654 15.8209 18.6654 14.4875V10.0449C18.6654 8.71687 17.5774 7.62354 16.244 7.62354ZM12.372 13.5809L10.3027 14.8609V12.3009V9.74087L12.372 11.0209L14.4414 12.3009L12.372 13.5809Z" fill="white"/>
</svg>
